Dinish-Medium.ufo
<glyph name="exclam" format="2">
  <advance width="247"/>
  <unicode hex="0021"/>
  <outline>
    <contour>
      <point x="89.333" y="212.667" type="line"/>
      <point x="159.667" y="212.667" type="line"/>
      <point x="177.333" y="707" type="line"/>
      <point x="71.667" y="707" type="line"/>
    </contour>
    <contour>
      <point x="71.333" y="0" type="line"/>
      <point x="177" y="0" type="line"/>
      <point x="177" y="107.667" type="line"/>
      <point x="71.333" y="107.667" type="line"/>
    </contour>
  </outline>
</glyph>
<glyph name="dollar" format="2">
  <advance width="483"/>
  <unicode hex="0024"/>
  <outline>
    <contour>
      <point x="198.333" y="-60.333" type="line"/>
      <point x="272.667" y="-60.333" type="line"/>
      <point x="272.667" y="31.667" type="line"/>
      <point x="375.987" y="45.311"/>
      <point x="435" y="108.003"/>
      <point x="435" y="212.44" type="curve" smooth="yes"/>
      <point x="435" y="318.601"/>
      <point x="370.107" y="358.885"/>
      <point x="260.363" y="392.744" type="curve" smooth="yes"/>
      <point x="231.433" y="401.799" type="line" smooth="yes"/>
      <point x="163.636" y="421.989"/>
      <point x="134" y="451.358"/>
      <point x="134" y="506.626" type="curve" smooth="yes"/>
      <point x="134" y="568.981"/>
      <point x="166.945" y="599.667"/>
      <point x="234" y="599.667" type="curve" smooth="yes"/>
      <point x="299.138" y="599.667"/>
      <point x="332.461" y="566.548"/>
      <point x="338.333" y="496" type="curve"/>
      <point x="426" y="496" type="line"/>
      <point x="417.755" y="598.786"/>
      <point x="363.718" y="662.218"/>
      <point x="272.667" y="676" type="curve"/>
      <point x="272.667" y="758.667" type="line"/>
      <point x="198.333" y="758.667" type="line"/>
      <point x="198.333" y="675.667" type="line"/>
      <point x="101.624" y="661.932"/>
      <point x="45" y="597.673"/>
      <point x="45" y="502.311" type="curve" smooth="yes"/>
      <point x="45" y="417.461"/>
      <point x="93.165" y="359.185"/>
      <point x="198.165" y="328.538" type="curve" smooth="yes"/>
      <point x="227.405" y="319.722" type="line" smooth="yes"/>
      <point x="319.101" y="292.172"/>
      <point x="345.333" y="268.025"/>
      <point x="345.333" y="210.333" type="curve" smooth="yes"/>
      <point x="345.333" y="141.79"/>
      <point x="308.526" y="107.328"/>
      <point x="235.322" y="107.328" type="curve" smooth="yes"/>
      <point x="164.304" y="107.328"/>
      <point x="125.283" y="145.014"/>
      <point x="118.333" y="220" type="curve"/>
      <point x="32.667" y="220" type="line"/>
      <point x="39.949" y="109.101"/>
      <point x="98.194" y="42.419"/>
      <point x="198.333" y="30.333" type="curve"/>
    </contour>
  </outline>
</glyph>
<glyph name="percent" format="2">
  <advance width="873"/>
  <unicode hex="0025"/>
  <outline>
    <contour>
      <point x="205.334" y="0" type="line"/>
      <point x="281.334" y="0" type="line"/>
      <point x="668" y="708.667" type="line"/>
      <point x="591.334" y="708.667" type="line"/>
    </contour>
    <contour>
      <point x="170" y="272" type="curve" smooth="yes"/>
      <point x="268.241" y="272"/>
      <point x="299" y="335.382"/>
      <point x="299" y="424.333" type="curve" smooth="yes"/>
      <point x="299" y="567.333" type="line" smooth="yes"/>
      <point x="299" y="656.223"/>
      <point x="265.63" y="713.667"/>
      <point x="170" y="713.667" type="curve" smooth="yes"/>
      <point x="76.704" y="713.667"/>
      <point x="41.333" y="653.655"/>
      <point x="41.333" y="567.333" type="curve" smooth="yes"/>
      <point x="41.333" y="424.333" type="line" smooth="yes"/>
      <point x="41.333" y="335.629"/>
      <point x="71.981" y="272"/>
    </contour>
    <contour>
      <point x="170" y="342.333" type="curve" smooth="yes"/>
      <point x="123.6" y="342.333"/>
      <point x="123" y="387.276"/>
      <point x="123" y="422.777" type="curve" smooth="yes"/>
      <point x="123" y="563.869" type="line" smooth="yes"/>
      <point x="123" y="600.323"/>
      <point x="123.793" y="643"/>
      <point x="170" y="643" type="curve" smooth="yes"/>
      <point x="215.039" y="643"/>
      <point x="216.667" y="599.631"/>
      <point x="216.667" y="563.869" type="curve" smooth="yes"/>
      <point x="216.667" y="422.777" type="line" smooth="yes"/>
      <point x="216.667" y="386.894"/>
      <point x="216.442" y="342.333"/>
    </contour>
    <contour>
      <point x="702.333" y="-7" type="curve" smooth="yes"/>
      <point x="800.574" y="-7"/>
      <point x="831.333" y="56.382"/>
      <point x="831.333" y="145.333" type="curve" smooth="yes"/>
      <point x="831.333" y="288.333" type="line" smooth="yes"/>
      <point x="831.333" y="377.223"/>
      <point x="797.963" y="434.667"/>
      <point x="702.333" y="434.667" type="curve" smooth="yes"/>
      <point x="609.037" y="434.667"/>
      <point x="573.666" y="374.655"/>
      <point x="573.666" y="288.333" type="curve" smooth="yes"/>
      <point x="573.666" y="145.333" type="line" smooth="yes"/>
      <point x="573.666" y="56.629"/>
      <point x="604.314" y="-7"/>
    </contour>
    <contour>
      <point x="702.333" y="63.333" type="curve" smooth="yes"/>
      <point x="655.933" y="63.333"/>
      <point x="655.333" y="108.276"/>
      <point x="655.333" y="143.777" type="curve" smooth="yes"/>
      <point x="655.333" y="284.869" type="line" smooth="yes"/>
      <point x="655.333" y="321.323"/>
      <point x="656.126" y="364"/>
      <point x="702.333" y="364" type="curve" smooth="yes"/>
      <point x="747.372" y="364"/>
      <point x="749" y="320.631"/>
      <point x="749" y="284.869" type="curve" smooth="yes"/>
      <point x="749" y="143.777" type="line" smooth="yes"/>
      <point x="749" y="107.894"/>
      <point x="748.775" y="63.333"/>
    </contour>
  </outline>
</glyph>
<glyph name="ampersand" format="2">
  <advance width="611"/>
  <unicode hex="0026"/>
  <outline>
    <contour>
      <point x="413.333" y="218" type="line"/>
      <point x="299" y="378.667" type="line"/>
      <point x="356.185" y="428.493"/>
      <point x="416.667" y="483.89"/>
      <point x="416.667" y="565.667" type="curve" smooth="yes"/>
      <point x="416.667" y="655.619"/>
      <point x="351" y="717.333"/>
      <point x="262" y="717.333" type="curve" smooth="yes"/>
      <point x="173.188" y="717.333"/>
      <point x="105.667" y="653.788"/>
      <point x="105.667" y="564" type="curve" smooth="yes"/>
      <point x="105.667" y="502.163"/>
      <point x="148.622" y="439.629"/>
      <point x="188" y="390.667" type="curve"/>
      <point x="121.842" y="332.278"/>
      <point x="55.333" y="263.88"/>
      <point x="55.333" y="169.667" type="curve" smooth="yes"/>
      <point x="55.333" y="59.681"/>
      <point x="120.319" y="-10.333"/>
      <point x="231.667" y="-10.333" type="curve" smooth="yes"/>
      <point x="308.532" y="-10.333"/>
      <point x="359.968" y="23.592"/>
      <point x="407.333" y="81.667" type="curve"/>
      <point x="418.404" y="64.937" type="line" smooth="yes"/>
      <point x="442.388" y="28.159"/>
      <point x="476.397" y="0"/>
      <point x="526.332" y="0" type="curve" smooth="yes"/>
      <point x="555.667" y="0" type="line"/>
      <point x="555.667" y="81.373" type="line"/>
      <point x="549.779" y="81.373" type="line" smooth="yes"/>
      <point x="519.607" y="81.373"/>
      <point x="497.567" y="96.129"/>
      <point x="475.515" y="128.947" type="curve" smooth="yes"/>
      <point x="461" y="151" type="line"/>
      <point x="544.667" y="261" type="line"/>
      <point x="485.333" y="312.667" type="line"/>
    </contour>
    <contour>
      <point x="252" y="444.333" type="curve"/>
      <point x="220.435" y="480.843"/>
      <point x="191.333" y="527.383"/>
      <point x="191.333" y="567" type="curve" smooth="yes"/>
      <point x="191.333" y="609.956"/>
      <point x="217.381" y="643.333"/>
      <point x="262.333" y="643.333" type="curve" smooth="yes"/>
      <point x="305.723" y="643.333"/>
      <point x="332.667" y="609.287"/>
      <point x="332.667" y="567.667" type="curve" smooth="yes"/>
      <point x="332.667" y="516.376"/>
      <point x="289.363" y="476.171"/>
    </contour>
    <contour>
      <point x="359.667" y="148" type="line"/>
      <point x="329.19" y="108.692"/>
      <point x="292.254" y="68.667"/>
      <point x="238.667" y="68.667" type="curve" smooth="yes"/>
      <point x="174.526" y="68.667"/>
      <point x="142.333" y="114.061"/>
      <point x="142.333" y="174.667" type="curve" smooth="yes"/>
      <point x="142.333" y="235.944"/>
      <point x="191.815" y="286.965"/>
      <point x="234.667" y="325" type="curve"/>
    </contour>
  </outline>
</glyph>
<glyph name="asterisk" format="2">
  <advance width="386"/>
  <unicode hex="002A"/>
  <outline>
    <contour>
      <point x="80.667" y="470.667" type="line"/>
      <point x="166" y="520" type="line"/>
      <point x="166" y="416" type="line"/>
      <point x="220" y="416" type="line"/>
      <point x="220" y="519.667" type="line"/>
      <point x="305.667" y="470.667" type="line"/>
      <point x="330.667" y="513.667" type="line"/>
      <point x="243" y="564" type="line"/>
      <point x="330.333" y="614.333" type="line"/>
      <point x="306" y="656.667" type="line"/>
      <point x="220" y="607.333" type="line"/>
      <point x="220" y="707" type="line"/>
      <point x="166" y="707" type="line"/>
      <point x="166" y="607.667" type="line"/>
      <point x="80.667" y="656.667" type="line"/>
      <point x="55.333" y="614.333" type="line"/>
      <point x="143.333" y="564" type="line"/>
      <point x="55.333" y="513.667" type="line"/>
    </contour>
  </outline>
</glyph>
<glyph name="slash" format="2">
  <advance width="405"/>
  <unicode hex="002F"/>
  <outline>
    <contour>
      <point x="55.333" y="-10" type="line"/>
      <point x="132" y="-10" type="line"/>
      <point x="350.333" y="708.667" type="line"/>
      <point x="274" y="708.667" type="line"/>
    </contour>
  </outline>
</glyph>
<glyph name="zero" format="2">
  <advance width="511"/>
  <unicode hex="0030"/>
  <outline>
    <contour>
      <point x="255.333" y="-10.333" type="curve" smooth="yes"/>
      <point x="402.384" y="-10.333"/>
      <point x="449" y="89.238"/>
      <point x="449" y="221.333" type="curve" smooth="yes"/>
      <point x="449" y="490.667" type="line" smooth="yes"/>
      <point x="449" y="622.193"/>
      <point x="399.905" y="717.333"/>
      <point x="255.333" y="717.333" type="curve" smooth="yes"/>
      <point x="112.043" y="717.333"/>
      <point x="62.333" y="620.788"/>
      <point x="62.333" y="490.667" type="curve" smooth="yes"/>
      <point x="62.333" y="221.333" type="line" smooth="yes"/>
      <point x="62.333" y="89.782"/>
      <point x="108.616" y="-10.333"/>
    </contour>
    <contour>
      <point x="255.333" y="73" type="curve" smooth="yes"/>
      <point x="164.227" y="73"/>
      <point x="156.667" y="162.86"/>
      <point x="156.667" y="234.667" type="curve" smooth="yes"/>
      <point x="156.667" y="471.667" type="line" smooth="yes"/>
      <point x="156.667" y="543.545"/>
      <point x="164.262" y="632.667"/>
      <point x="255.333" y="632.667" type="curve" smooth="yes"/>
      <point x="346.404" y="632.667"/>
      <point x="354.333" y="543.933"/>
      <point x="354.333" y="471.667" type="curve" smooth="yes"/>
      <point x="354.333" y="234.667" type="line" smooth="yes"/>
      <point x="354.333" y="162.514"/>
      <point x="346.436" y="73"/>
    </contour>
  </outline>
</glyph>
<glyph name="one" format="2">
  <advance width="343"/>
  <unicode hex="0031"/>
  <outline>
    <contour>
      <point x="167.333" y="0" type="line"/>
      <point x="261.333" y="0" type="line"/>
      <point x="261.333" y="707" type="line"/>
      <point x="166.667" y="707" type="line"/>
      <point x="46.333" y="614.333" type="line"/>
      <point x="46.333" y="510" type="line"/>
      <point x="167.333" y="600" type="line"/>
    </contour>
  </outline>
</glyph>
<glyph name="two" format="2">
  <advance width="487"/>
  <unicode hex="0032"/>
  <outline>
    <contour>
      <point x="56.333" y="0" type="line"/>
      <point x="432.333" y="0" type="line"/>
      <point x="432.333" y="84" type="line"/>
      <point x="175.879" y="84" type="line"/>
      <point x="369.333" y="356" type="line" smooth="yes"/>
      <point x="413.771" y="418.255"/>
      <point x="432.333" y="468.799"/>
      <point x="432.333" y="527.679" type="curve"/>
      <point x="432.203" y="536.191" type="line" smooth="yes"/>
      <point x="428.762" y="647.351"/>
      <point x="357.642" y="717.333"/>
      <point x="245.91" y="717.333" type="curve" smooth="yes"/>
      <point x="132.054" y="717.333"/>
      <point x="55.333" y="644.651"/>
      <point x="55.333" y="535.667" type="curve" smooth="yes"/>
      <point x="55.333" y="512.333" type="line"/>
      <point x="149.402" y="512.333" type="line"/>
      <point x="149.402" y="523.062" type="line" smooth="yes"/>
      <point x="149.402" y="598.626"/>
      <point x="180.907" y="634.667"/>
      <point x="239.574" y="634.667" type="curve" smooth="yes"/>
      <point x="298.872" y="634.667"/>
      <point x="336.257" y="598.22"/>
      <point x="336.257" y="533.739" type="curve" smooth="yes"/>
      <point x="336.257" y="525.951" type="line" smooth="yes"/>
      <point x="336.257" y="482.876"/>
      <point x="322.81" y="444.145"/>
      <point x="293.62" y="403.667" type="curve" smooth="yes"/>
      <point x="56.333" y="75.333" type="line"/>
    </contour>
  </outline>
</glyph>
<glyph name="three" format="2">
  <advance width="509"/>
  <unicode hex="0033"/>
  <outline>
    <contour>
      <point x="56.673" y="181" type="line"/>
      <point x="56.673" y="170.981" type="line" smooth="yes"/>
      <point x="56.673" y="54.687"/>
      <point x="126.22" y="-10.333"/>
      <point x="250.333" y="-10.333" type="curve" smooth="yes"/>
      <point x="370.559" y="-10.333"/>
      <point x="447.616" y="67.255"/>
      <point x="447.616" y="186.667" type="curve" smooth="yes"/>
      <point x="447.616" y="201.008" type="line" smooth="yes"/>
      <point x="447.616" y="292.765"/>
      <point x="414.834" y="349.657"/>
      <point x="349" y="374.667" type="curve"/>
      <point x="405.794" y="401.035"/>
      <point x="435.981" y="454.688"/>
      <point x="435.981" y="528.656" type="curve" smooth="yes"/>
      <point x="435.981" y="535.667" type="line" smooth="yes"/>
      <point x="435.981" y="648.101"/>
      <point x="365.308" y="717.333"/>
      <point x="250.667" y="717.333" type="curve" smooth="yes"/>
      <point x="134.633" y="717.333"/>
      <point x="64.333" y="650.721"/>
      <point x="64.333" y="541" type="curve" smooth="yes"/>
      <point x="64.333" y="522.667" type="line"/>
      <point x="152.682" y="522.667" type="line"/>
      <point x="152.682" y="528.581" type="line" smooth="yes"/>
      <point x="152.682" y="599.372"/>
      <point x="184.252" y="634.667"/>
      <point x="247.667" y="634.667" type="curve" smooth="yes"/>
      <point x="306.149" y="634.667"/>
      <point x="343.267" y="597.13"/>
      <point x="343.267" y="537.894" type="curve" smooth="yes"/>
      <point x="343.267" y="530.333" type="line" smooth="yes"/>
      <point x="343.267" y="444.952"/>
      <point x="310.641" y="407"/>
      <point x="234" y="407" type="curve" smooth="yes"/>
      <point x="207" y="407" type="line"/>
      <point x="207" y="324.333" type="line"/>
      <point x="234.667" y="324.333" type="line" smooth="yes"/>
      <point x="312.745" y="324.333"/>
      <point x="354.963" y="282.519"/>
      <point x="354.963" y="208" type="curve" smooth="yes"/>
      <point x="354.963" y="196.061" type="line" smooth="yes"/>
      <point x="354.963" y="113.55"/>
      <point x="319.461" y="71.333"/>
      <point x="250.333" y="71.333" type="curve" smooth="yes"/>
      <point x="182.251" y="71.333"/>
      <point x="148.343" y="105.59"/>
      <point x="148.343" y="173.784" type="curve" smooth="yes"/>
      <point x="148.343" y="181" type="line"/>
    </contour>
  </outline>
</glyph>
<glyph name="five" format="2">
  <advance width="499"/>
  <unicode hex="0035"/>
  <outline>
    <contour>
      <point x="62.365" y="170.667" type="line"/>
      <point x="62.365" y="163.871" type="line" smooth="yes"/>
      <point x="62.365" y="51.018"/>
      <point x="127.869" y="-10.333"/>
      <point x="248.333" y="-10.333" type="curve" smooth="yes"/>
      <point x="367.459" y="-10.333"/>
      <point x="438" y="63.301"/>
      <point x="438" y="187.667" type="curve" smooth="yes"/>
      <point x="438" y="261" type="line" smooth="yes"/>
      <point x="438" y="390.574"/>
      <point x="376.719" y="461"/>
      <point x="264" y="461" type="curve" smooth="yes"/>
      <point x="222.781" y="461"/>
      <point x="181.931" y="445.007"/>
      <point x="157" y="419.333" type="curve"/>
      <point x="157" y="622.667" type="line"/>
      <point x="425.667" y="622.667" type="line"/>
      <point x="425.667" y="707" type="line"/>
      <point x="73" y="707" type="line"/>
      <point x="73" y="314" type="line"/>
      <point x="155" y="314" type="line"/>
      <point x="169.87" y="354.837"/>
      <point x="203.54" y="378"/>
      <point x="248" y="378" type="curve" smooth="yes"/>
      <point x="320.693" y="378"/>
      <point x="344.998" y="340.99"/>
      <point x="344.998" y="230.166" type="curve" smooth="yes"/>
      <point x="344.998" y="217.369" type="line" smooth="yes"/>
      <point x="344.998" y="114.124"/>
      <point x="316.768" y="72"/>
      <point x="247.667" y="72" type="curve" smooth="yes"/>
      <point x="185.638" y="72"/>
      <point x="150.721" y="105.201"/>
      <point x="150.721" y="164.263" type="curve" smooth="yes"/>
      <point x="150.721" y="170.667" type="line"/>
    </contour>
  </outline>
</glyph>
<glyph name="six" format="2">
  <advance width="513"/>
  <unicode hex="0036"/>
  <outline>
    <contour>
      <point x="262.667" y="707" type="line"/>
      <point x="98.667" y="380" type="line" smooth="yes"/>
      <point x="74.507" y="331.88"/>
      <point x="55.333" y="279.505"/>
      <point x="55.333" y="225" type="curve" smooth="yes"/>
      <point x="55.333" y="191.333" type="line" smooth="yes"/>
      <point x="55.333" y="68.254"/>
      <point x="133.532" y="-10.333"/>
      <point x="256.667" y="-10.333" type="curve" smooth="yes"/>
      <point x="379.533" y="-10.333"/>
      <point x="457.333" y="72.363"/>
      <point x="457.333" y="194" type="curve" smooth="yes"/>
      <point x="457.333" y="228" type="line" smooth="yes"/>
      <point x="457.333" y="338.371"/>
      <point x="395.445" y="422.333"/>
      <point x="279.333" y="422.333" type="curve" smooth="yes"/>
      <point x="255.644" y="422.333"/>
      <point x="231.705" y="417.26"/>
      <point x="211.667" y="404.333" type="curve"/>
      <point x="361.667" y="707" type="line"/>
    </contour>
    <contour>
      <point x="151" y="189.667" type="curve" smooth="yes"/>
      <point x="151" y="224" type="line" smooth="yes"/>
      <point x="151" y="290.062"/>
      <point x="187.033" y="339.667"/>
      <point x="256.667" y="339.667" type="curve" smooth="yes"/>
      <point x="326.817" y="339.667"/>
      <point x="363.333" y="289.585"/>
      <point x="363.333" y="223" type="curve" smooth="yes"/>
      <point x="363.333" y="189.333" type="line" smooth="yes"/>
      <point x="363.333" y="123.323"/>
      <point x="326.644" y="71.333"/>
      <point x="256.667" y="71.333" type="curve" smooth="yes"/>
      <point x="186.268" y="71.333"/>
      <point x="151" y="123.725"/>
    </contour>
  </outline>
</glyph>
<glyph name="seven" format="2">
  <advance width="450"/>
  <unicode hex="0037"/>
  <outline>
    <contour>
      <point x="92.333" y="0" type="line"/>
      <point x="187.333" y="0" type="line"/>
      <point x="412.333" y="622.667" type="line"/>
      <point x="412.549" y="623.54"/>
      <point x="412.333" y="700.046"/>
      <point x="412.333" y="707" type="curve"/>
      <point x="37.667" y="707" type="line"/>
      <point x="37.667" y="622.667" type="line"/>
      <point x="321.333" y="622.667" type="line"/>
    </contour>
  </outline>
</glyph>
<glyph name="eight" format="2">
  <advance width="528"/>
  <unicode hex="0038"/>
  <outline>
    <contour>
      <point x="156.333" y="372.333" type="curve"/>
      <point x="99.078" y="343.949"/>
      <point x="62.834" y="281.817"/>
      <point x="62.834" y="212" type="curve" smooth="yes"/>
      <point x="62.834" y="183.71" type="line" smooth="yes"/>
      <point x="62.834" y="62.94"/>
      <point x="138.578" y="-10.333"/>
      <point x="263.333" y="-10.333" type="curve" smooth="yes"/>
      <point x="383.701" y="-10.333"/>
      <point x="466.336" y="70.411"/>
      <point x="466.336" y="188" type="curve" smooth="yes"/>
      <point x="466.336" y="212.017" type="line" smooth="yes"/>
      <point x="466.336" y="286.348"/>
      <point x="434.643" y="340.399"/>
      <point x="372.333" y="372.333" type="curve"/>
      <point x="422.962" y="399.428"/>
      <point x="453.046" y="452.34"/>
      <point x="453.046" y="514.333" type="curve" smooth="yes"/>
      <point x="453.046" y="533.688" type="line" smooth="yes"/>
      <point x="453.046" y="645.978"/>
      <point x="379.709" y="717.333"/>
      <point x="264.333" y="717.333" type="curve" smooth="yes"/>
      <point x="155.578" y="717.333"/>
      <point x="76.501" y="640.286"/>
      <point x="76.501" y="534.333" type="curve" smooth="yes"/>
      <point x="76.501" y="516.917" type="line" smooth="yes"/>
      <point x="76.501" y="447.323"/>
      <point x="102.395" y="400.425"/>
    </contour>
    <contour>
      <point x="169.584" y="516.903" type="curve" smooth="yes"/>
      <point x="169.584" y="534.648" type="line" smooth="yes"/>
      <point x="169.584" y="596.499"/>
      <point x="205.742" y="634.667"/>
      <point x="264.333" y="634.667" type="curve" smooth="yes"/>
      <point x="320.448" y="634.667"/>
      <point x="360.902" y="592.768"/>
      <point x="360.902" y="534.648" type="curve" smooth="yes"/>
      <point x="360.902" y="516.903" type="line" smooth="yes"/>
      <point x="360.902" y="450.306"/>
      <point x="324.853" y="410.667"/>
      <point x="264.333" y="410.667" type="curve" smooth="yes"/>
      <point x="207.659" y="410.667"/>
      <point x="169.584" y="453.371"/>
    </contour>
    <contour>
      <point x="155.285" y="192.204" type="curve" smooth="yes"/>
      <point x="155.285" y="213.313" type="line" smooth="yes"/>
      <point x="155.285" y="285.999"/>
      <point x="196.242" y="329.667"/>
      <point x="264.333" y="329.667" type="curve" smooth="yes"/>
      <point x="330.326" y="329.667"/>
      <point x="373.575" y="283.604"/>
      <point x="373.575" y="213.313" type="curve" smooth="yes"/>
      <point x="373.575" y="192.204" type="line" smooth="yes"/>
      <point x="373.575" y="115.567"/>
      <point x="333.563" y="71.333"/>
      <point x="264.333" y="71.333" type="curve" smooth="yes"/>
      <point x="200.527" y="71.333"/>
      <point x="155.285" y="121.481"/>
    </contour>
  </outline>
</glyph>
<glyph name="equal" format="2">
  <advance width="530"/>
  <unicode hex="003D"/>
  <outline>
    <contour>
      <point x="55" y="341.333" type="line"/>
      <point x="474.667" y="341.333" type="line"/>
      <point x="474.667" y="425.667" type="line"/>
      <point x="55" y="425.667" type="line"/>
    </contour>
    <contour>
      <point x="55" y="140" type="line"/>
      <point x="474.667" y="140" type="line"/>
      <point x="474.667" y="223" type="line"/>
      <point x="55" y="223" type="line"/>
    </contour>
  </outline>
</glyph>
<glyph name="greater" format="2">
  <advance width="530"/>
  <unicode hex="003E"/>
  <outline>
    <contour>
      <point x="55" y="75.333" type="line"/>
      <point x="474.667" y="244.667" type="line"/>
      <point x="474.667" y="320" type="line"/>
      <point x="55" y="488.333" type="line"/>
      <point x="55" y="401" type="line"/>
      <point x="358.667" y="282.333" type="line"/>
      <point x="55" y="163.667" type="line"/>
    </contour>
  </outline>
</glyph>
<glyph name="question" format="2">
  <advance width="446"/>
  <unicode hex="003F"/>
  <outline>
    <contour>
      <point x="171" y="187.333" type="line"/>
      <point x="263.317" y="187.333" type="line"/>
      <point x="263.317" y="237.764" type="line" smooth="yes"/>
      <point x="263.317" y="275.072"/>
      <point x="269.297" y="295.033"/>
      <point x="292.333" y="324.333" type="curve" smooth="yes"/>
      <point x="318.321" y="357.275" type="line" smooth="yes"/>
      <point x="361.492" y="412.05"/>
      <point x="403" y="470.068"/>
      <point x="403" y="542.333" type="curve" smooth="yes"/>
      <point x="403" y="651.354"/>
      <point x="325.566" y="717"/>
      <point x="219.667" y="717" type="curve" smooth="yes"/>
      <point x="101.137" y="717"/>
      <point x="37.29" y="649.253"/>
      <point x="35.333" y="532" type="curve"/>
      <point x="126" y="532" type="line"/>
      <point x="127.178" y="593.347"/>
      <point x="151.213" y="633"/>
      <point x="217" y="633" type="curve" smooth="yes"/>
      <point x="276.704" y="633"/>
      <point x="309.333" y="600.372"/>
      <point x="309.333" y="540.667" type="curve" smooth="yes"/>
      <point x="309.333" y="486.234"/>
      <point x="272.626" y="438.726"/>
      <point x="236.853" y="394.884" type="curve" smooth="yes"/>
      <point x="209.199" y="361.08" type="line" smooth="yes"/>
      <point x="176.239" y="320.747"/>
      <point x="171" y="297.526"/>
      <point x="171" y="245.333" type="curve" smooth="yes"/>
    </contour>
    <contour>
      <point x="164.333" y="0" type="line"/>
      <point x="269.667" y="0" type="line"/>
      <point x="269.667" y="106.333" type="line"/>
      <point x="164.333" y="106.333" type="line"/>
    </contour>
  </outline>
</glyph>
<glyph name="at" format="2">
  <advance width="892"/>
  <unicode hex="0040"/>
  <outline>
    <contour>
      <point x="664.333" y="-3" type="line"/>
      <point x="596.395" y="-39.318"/>
      <point x="528.728" y="-55.667"/>
      <point x="446.333" y="-55.667" type="curve" smooth="yes"/>
      <point x="261.445" y="-55.667"/>
      <point x="142.333" y="65.538"/>
      <point x="142.333" y="253.667" type="curve" smooth="yes"/>
      <point x="142.333" y="326.667" type="line" smooth="yes"/>
      <point x="142.333" y="513.79"/>
      <point x="259.616" y="631.333"/>
      <point x="446.333" y="631.333" type="curve" smooth="yes"/>
      <point x="634.011" y="631.333"/>
      <point x="751.638" y="513.943"/>
      <point x="751.638" y="326.667" type="curve" smooth="yes"/>
      <point x="751.638" y="265.69" type="line" smooth="yes"/>
      <point x="751.638" y="173.022"/>
      <point x="727.325" y="127.333"/>
      <point x="678" y="127.333" type="curve" smooth="yes"/>
      <point x="636.733" y="127.333"/>
      <point x="613.333" y="156.503"/>
      <point x="613.333" y="208" type="curve" smooth="yes"/>
      <point x="613.333" y="502.667" type="line"/>
      <point x="532" y="502.667" type="line"/>
      <point x="532" y="458.333" type="line"/>
      <point x="511.567" y="492.719"/>
      <point x="470.015" y="513"/>
      <point x="420" y="513" type="curve" smooth="yes"/>
      <point x="322.317" y="513"/>
      <point x="269.96" y="448.097"/>
      <point x="269.96" y="327" type="curve" smooth="yes"/>
      <point x="269.96" y="270.444" type="line" smooth="yes"/>
      <point x="269.96" y="120.689"/>
      <point x="316.55" y="56.333"/>
      <point x="423.667" y="56.333" type="curve" smooth="yes"/>
      <point x="487.345" y="56.333"/>
      <point x="534.567" y="81.964"/>
      <point x="554.667" y="127.333" type="curve"/>
      <point x="576.464" y="81.68"/>
      <point x="620.105" y="56.333"/>
      <point x="677" y="56.333" type="curve" smooth="yes"/>
      <point x="776.559" y="56.333"/>
      <point x="838" y="133.129"/>
      <point x="838" y="257.667" type="curve" smooth="yes"/>
      <point x="838" y="327.667" type="line" smooth="yes"/>
      <point x="838" y="551.361"/>
      <point x="675.694" y="709.667"/>
      <point x="446.333" y="709.667" type="curve" smooth="yes"/>
      <point x="216.194" y="709.667"/>
      <point x="55.333" y="551.266"/>
      <point x="55.333" y="324.667" type="curve" smooth="yes"/>
      <point x="55.333" y="254" type="line" smooth="yes"/>
      <point x="55.333" y="24.759"/>
      <point x="215.117" y="-133.667"/>
      <point x="446.333" y="-133.667" type="curve" smooth="yes"/>
      <point x="545.627" y="-133.667"/>
      <point x="618.189" y="-115.52"/>
      <point x="695.667" y="-71.333" type="curve"/>
    </contour>
    <contour>
      <point x="442.667" y="128.667" type="curve" smooth="yes"/>
      <point x="384.923" y="128.667"/>
      <point x="355.667" y="168.68"/>
      <point x="355.667" y="247.667" type="curve" smooth="yes"/>
      <point x="355.667" y="326.333" type="line" smooth="yes"/>
      <point x="355.667" y="401.673"/>
      <point x="385.84" y="441.667"/>
      <point x="442.667" y="441.667" type="curve" smooth="yes"/>
      <point x="499.316" y="441.667"/>
      <point x="529.333" y="402.301"/>
      <point x="529.333" y="328" type="curve" smooth="yes"/>
      <point x="529.333" y="243.333" type="line" smooth="yes"/>
      <point x="529.333" y="168.486"/>
      <point x="499.239" y="128.667"/>
    </contour>
  </outline>
</glyph>
<glyph name="A" format="2">
  <advance width="601"/>
  <unicode hex="0041"/>
  <anchor x="299.667" y="774" name="top"/>
  <anchor x="299.667" y="662.333" name="t.ring"/>
  <anchor x="299.667" y="-86" name="bottom"/>
  <anchor x="592.667" y="0" name="b.cedilla"/>
  <outline>
    <contour>
      <point x="6" y="0" type="line"/>
      <point x="105.667" y="0" type="line"/>
      <point x="159.333" y="159" type="line"/>
      <point x="440.333" y="159" type="line"/>
      <point x="494.667" y="0" type="line"/>
      <point x="594.667" y="0" type="line"/>
      <point x="339.667" y="707" type="line"/>
      <point x="261" y="707" type="line"/>
    </contour>
    <contour>
      <point x="186" y="238.333" type="line"/>
      <point x="299.667" y="574.667" type="line"/>
      <point x="414.333" y="238.333" type="line"/>
    </contour>
  </outline>
</glyph>
<glyph name="B" format="2">
  <advance width="623"/>
  <unicode hex="0042"/>
  <anchor x="271" y="774" name="top"/>
  <anchor x="271" y="-86" name="bottom"/>
  <outline>
    <contour>
      <point x="146.457" y="0" type="line"/>
      <point x="346" y="0" type="line" smooth="yes"/>
      <point x="472.107" y="0"/>
      <point x="561" y="64.422"/>
      <point x="561" y="197" type="curve" smooth="yes"/>
      <point x="561" y="275.216"/>
      <point x="524.218" y="338.182"/>
      <point x="448.333" y="364" type="curve"/>
      <point x="513.304" y="388.283"/>
      <point x="550.667" y="447.955"/>
      <point x="550.667" y="516.667" type="curve" smooth="yes"/>
      <point x="550.667" y="647.099"/>
      <point x="460.922" y="707"/>
      <point x="338.333" y="707" type="curve" smooth="yes"/>
      <point x="146.457" y="707" type="line"/>
      <point x="146.457" y="623.333" type="line"/>
      <point x="330.333" y="623.333" type="line" smooth="yes"/>
      <point x="404.296" y="623.333"/>
      <point x="455.667" y="590.357"/>
      <point x="455.667" y="511.333" type="curve" smooth="yes"/>
      <point x="455.667" y="432.807"/>
      <point x="401.92" y="402"/>
      <point x="329.667" y="402" type="curve" smooth="yes"/>
      <point x="146.457" y="402" type="line"/>
      <point x="146.457" y="319" type="line"/>
      <point x="336.333" y="319" type="line" smooth="yes"/>
      <point x="412.939" y="319"/>
      <point x="466.333" y="285.339"/>
      <point x="466.333" y="203.333" type="curve" smooth="yes"/>
      <point x="466.333" y="120.134"/>
      <point x="414.32" y="83.667"/>
      <point x="335.667" y="83.667" type="curve" smooth="yes"/>
      <point x="146.457" y="83.667" type="line"/>
    </contour>
    <contour>
      <point x="74.667" y="0" type="line"/>
      <point x="169.667" y="-0.025" type="line"/>
      <point x="169.667" y="707.301" type="line"/>
      <point x="74.667" y="707" type="line"/>
    </contour>
  </outline>
</glyph>
<glyph name="C" format="2">
  <advance width="616"/>
  <unicode hex="0043"/>
  <anchor x="313.333" y="774" name="top"/>
  <anchor x="283" y="0" name="b.cedilla"/>
  <anchor x="236" y="-86" name="bottom"/>
  <outline>
    <contour>
      <point x="464.325" y="219.333" type="line"/>
      <point x="464.325" y="214.49" type="line" smooth="yes"/>
      <point x="464.325" y="124.545"/>
      <point x="403.112" y="77.333"/>
      <point x="315" y="77.333" type="curve" smooth="yes"/>
      <point x="196.364" y="77.333"/>
      <point x="156.667" y="156.076"/>
      <point x="156.667" y="263.667" type="curve" smooth="yes"/>
      <point x="156.667" y="437.333" type="line" smooth="yes"/>
      <point x="156.667" y="545.967"/>
      <point x="190.292" y="631.667"/>
      <point x="313.667" y="631.667" type="curve" smooth="yes"/>
      <point x="399.919" y="631.667"/>
      <point x="464.279" y="585.67"/>
      <point x="464.279" y="498.122" type="curve" smooth="yes"/>
      <point x="464.279" y="489.667" type="line"/>
      <point x="558.943" y="489.667" type="line"/>
      <point x="558.943" y="499.219" type="line" smooth="yes"/>
      <point x="558.943" y="640.635"/>
      <point x="451.589" y="716.333"/>
      <point x="314" y="716.333" type="curve" smooth="yes"/>
      <point x="137.543" y="716.333"/>
      <point x="62.333" y="609.043"/>
      <point x="62.333" y="441.667" type="curve" smooth="yes"/>
      <point x="62.333" y="265.667" type="line" smooth="yes"/>
      <point x="62.333" y="98.855"/>
      <point x="137.574" y="-8"/>
      <point x="313.333" y="-8" type="curve" smooth="yes"/>
      <point x="452.979" y="-8"/>
      <point x="557" y="67.061"/>
      <point x="557" y="214.333" type="curve" smooth="yes"/>
      <point x="557" y="219.333" type="line"/>
    </contour>
  </outline>
</glyph>
<glyph name="H" format="2">
  <advance width="637"/>
  <unicode hex="0048"/>
  <anchor x="318.667" y="774" name="top"/>
  <anchor x="319" y="-86" name="bottom"/>
  <outline>
    <contour>
      <point x="149.307" y="318.333" type="line"/>
      <point x="488.027" y="318.333" type="line"/>
      <point x="488.027" y="402" type="line"/>
      <point x="149.307" y="402" type="line"/>
    </contour>
    <contour>
      <point x="467.667" y="0" type="line"/>
      <point x="562.333" y="0" type="line"/>
      <point x="562.333" y="707" type="line"/>
      <point x="467.667" y="707" type="line"/>
    </contour>
    <contour>
      <point x="74.667" y="0" type="line"/>
      <point x="169.667" y="0" type="line"/>
      <point x="169.667" y="707" type="line"/>
      <point x="74.667" y="707" type="line"/>
    </contour>
  </outline>
</glyph>
<glyph name="J" format="2">
  <advance width="326"/>
  <unicode hex="004A"/>
  <anchor x="196.667" y="774" name="top"/>
  <anchor x="236" y="-86" name="bottom"/>
  <outline>
    <contour>
      <point x="30.333" y="0" type="line"/>
      <point x="105" y="0" type="line" smooth="yes"/>
      <point x="198.337" y="0"/>
      <point x="244" y="53.695"/>
      <point x="244" y="144.667" type="curve" smooth="yes"/>
      <point x="244" y="707" type="line"/>
      <point x="149.667" y="707" type="line"/>
      <point x="149.667" y="158" type="line" smooth="yes"/>
      <point x="149.667" y="91.277"/>
      <point x="119.751" y="84.839"/>
      <point x="73.684" y="84.839" type="curve" smooth="yes"/>
      <point x="30.333" y="84.839" type="line"/>
    </contour>
  </outline>
</glyph>
<glyph name="K" format="2">
  <advance width="616"/>
  <unicode hex="004B"/>
  <anchor x="296" y="774" name="top"/>
  <anchor x="296" y="-86" name="bottom"/>
  <outline>
    <contour>
      <point x="74.667" y="0" type="line"/>
      <point x="169.667" y="0" type="line"/>
      <point x="169.667" y="196" type="line"/>
      <point x="296.667" y="353.333" type="line"/>
      <point x="499" y="0" type="line"/>
      <point x="608.667" y="0" type="line"/>
      <point x="357.333" y="428.333" type="line"/>
      <point x="581.333" y="707" type="line"/>
      <point x="468.333" y="707" type="line"/>
      <point x="169.667" y="322.333" type="line"/>
      <point x="169.667" y="707" type="line"/>
      <point x="74.667" y="707" type="line"/>
    </contour>
  </outline>
</glyph>
<glyph name="M" format="2">
  <advance width="771"/>
  <unicode hex="004D"/>
  <anchor x="386.333" y="774" name="top"/>
  <anchor x="236" y="-86" name="bottom"/>
  <outline>
    <contour>
      <point x="78.333" y="0" type="line"/>
      <point x="173.333" y="0" type="line"/>
      <point x="173.333" y="509.333" type="line"/>
      <point x="352" y="139.333" type="line"/>
      <point x="420.667" y="139.333" type="line"/>
      <point x="598" y="508.333" type="line"/>
      <point x="598" y="0" type="line"/>
      <point x="692.667" y="0" type="line"/>
      <point x="692.667" y="707" type="line"/>
      <point x="598" y="707" type="line"/>
      <point x="386.333" y="258.667" type="line"/>
      <point x="173.333" y="707" type="line"/>
      <point x="78.333" y="707" type="line"/>
    </contour>
  </outline>
</glyph>
<glyph name="O" format="2">
  <advance width="621"/>
  <unicode hex="004F"/>
  <anchor x="307.333" y="774" name="top"/>
  <anchor x="307.333" y="-86" name="bottom"/>
  <anchor x="260.667" y="0" name="b.cedilla"/>
  <outline>
    <contour>
      <point x="309.333" y="-8" type="curve" smooth="yes"/>
      <point x="470.251" y="-8"/>
      <point x="559" y="89.214"/>
      <point x="559" y="265.446" type="curve" smooth="yes"/>
      <point x="559" y="441.225" type="line" smooth="yes"/>
      <point x="559" y="619.577"/>
      <point x="471.895" y="716.333"/>
      <point x="311.333" y="716.333" type="curve" smooth="yes"/>
      <point x="149.854" y="716.333"/>
      <point x="62.333" y="619.634"/>
      <point x="62.333" y="441.225" type="curve" smooth="yes"/>
      <point x="62.333" y="265.446" type="line" smooth="yes"/>
      <point x="62.333" y="88.011"/>
      <point x="149.059" y="-8"/>
    </contour>
    <contour>
      <point x="310.549" y="77.333" type="curve" smooth="yes"/>
      <point x="208.915" y="77.333"/>
      <point x="156.667" y="140.427"/>
      <point x="156.667" y="263.444" type="curve" smooth="yes"/>
      <point x="156.667" y="436.901" type="line" smooth="yes"/>
      <point x="156.667" y="567.504"/>
      <point x="206.144" y="631"/>
      <point x="307.83" y="631" type="curve" smooth="yes"/>
      <point x="410.762" y="631"/>
      <point x="464.333" y="564.616"/>
      <point x="464.333" y="436.901" type="curve" smooth="yes"/>
      <point x="464.333" y="263.444" type="line" smooth="yes"/>
      <point x="464.333" y="141.162"/>
      <point x="411.582" y="77.333"/>
    </contour>
  </outline>
</glyph>
<glyph name="Q" format="2">
  <advance width="621"/>
  <unicode hex="0051"/>
  <anchor x="310.667" y="774" name="top"/>
  <anchor x="236" y="-86" name="bottom"/>
  <outline>
    <contour>
      <point x="309.333" y="-8" type="curve" smooth="yes"/>
      <point x="473.001" y="-8"/>
      <point x="559" y="86.272"/>
      <point x="559" y="265.667" type="curve" smooth="yes"/>
      <point x="559" y="441.667" type="line" smooth="yes"/>
      <point x="559" y="622.132"/>
      <point x="474.062" y="716.333"/>
      <point x="311.333" y="716.333" type="curve" smooth="yes"/>
      <point x="147.595" y="716.333"/>
      <point x="62.333" y="622.278"/>
      <point x="62.333" y="441.667" type="curve" smooth="yes"/>
      <point x="62.333" y="265.667" type="line" smooth="yes"/>
      <point x="62.333" y="85.809"/>
      <point x="147.004" y="-8"/>
    </contour>
    <contour>
      <point x="311.333" y="77.333" type="curve" smooth="yes"/>
      <point x="207.32" y="77.333"/>
      <point x="156.667" y="138.194"/>
      <point x="156.667" y="263.667" type="curve" smooth="yes"/>
      <point x="156.667" y="437.333" type="line" smooth="yes"/>
      <point x="156.667" y="570.863"/>
      <point x="205.125" y="631.667"/>
      <point x="311.333" y="631.667" type="curve" smooth="yes"/>
      <point x="413.315" y="631.667"/>
      <point x="464.333" y="566.955"/>
      <point x="464.333" y="437.333" type="curve" smooth="yes"/>
      <point x="464.333" y="263.667" type="line" smooth="yes"/>
      <point x="464.333" y="139.366"/>
      <point x="413.361" y="77.333"/>
    </contour>
    <contour>
      <point x="453.667" y="-156" type="line"/>
      <point x="526.667" y="-115" type="line"/>
      <point x="442.993" y="38.826" type="line"/>
      <point x="363.342" y="10.501" type="line"/>
    </contour>
  </outline>
</glyph>
<glyph name="S" format="2">
  <advance width="560"/>
  <unicode hex="0053"/>
  <anchor x="269.667" y="774" name="top"/>
  <anchor x="249" y="0" name="b.cedilla"/>
  <anchor x="269.667" y="-86" name="bottom"/>
  <outline>
    <contour>
      <point x="31.333" y="205" type="line"/>
      <point x="41.569" y="62.613"/>
      <point x="132.718" y="-6"/>
      <point x="271" y="-6" type="curve" smooth="yes"/>
      <point x="403.726" y="-6"/>
      <point x="516.333" y="55.511"/>
      <point x="516.333" y="201.667" type="curve" smooth="yes"/>
      <point x="516.333" y="359.587"/>
      <point x="402.446" y="381.071"/>
      <point x="299.718" y="400.492" type="curve" smooth="yes"/>
      <point x="280.939" y="404.102" type="line" smooth="yes"/>
      <point x="204.006" y="419.081"/>
      <point x="137.667" y="437.638"/>
      <point x="137.667" y="520" type="curve" smooth="yes"/>
      <point x="137.667" y="601.883"/>
      <point x="200.679" y="635.333"/>
      <point x="274.667" y="635.333" type="curve" smooth="yes"/>
      <point x="353.164" y="635.333"/>
      <point x="408.943" y="597.105"/>
      <point x="412.667" y="514.667" type="curve"/>
      <point x="505" y="514.667" type="line"/>
      <point x="492.332" y="646.098"/>
      <point x="406.235" y="716.333"/>
      <point x="276.333" y="716.333" type="curve" smooth="yes"/>
      <point x="150.417" y="716.333"/>
      <point x="45.667" y="648.849"/>
      <point x="45.667" y="513.333" type="curve" smooth="yes"/>
      <point x="45.667" y="360.207"/>
      <point x="154.852" y="340.493"/>
      <point x="255.635" y="322.316" type="curve" smooth="yes"/>
      <point x="275.976" y="318.592" type="line" smooth="yes"/>
      <point x="354.48" y="303.913"/>
      <point x="423" y="284.565"/>
      <point x="423" y="194.667" type="curve" smooth="yes"/>
      <point x="423" y="105.036"/>
      <point x="355.927" y="75.667"/>
      <point x="276.667" y="75.667" type="curve" smooth="yes"/>
      <point x="190.301" y="75.667"/>
      <point x="130.642" y="114.421"/>
      <point x="123" y="205" type="curve"/>
    </contour>
  </outline>
</glyph>
<glyph name="T" format="2">
  <advance width="498"/>
  <unicode hex="0054"/>
  <anchor x="248.667" y="-86" name="bottom"/>
  <anchor x="248.667" y="774" name="top"/>
  <anchor x="220" y="0" name="b.cedilla"/>
  <outline>
    <contour>
      <point x="202" y="0" type="line"/>
      <point x="296.667" y="0" type="line"/>
      <point x="296.667" y="622.667" type="line"/>
      <point x="490.667" y="622.667" type="line"/>
      <point x="490.667" y="707" type="line"/>
      <point x="7.333" y="707" type="line"/>
      <point x="7.333" y="622.667" type="line"/>
      <point x="202" y="622.667" type="line"/>
    </contour>
  </outline>
</glyph>
<glyph name="U" format="2">
  <advance width="640"/>
  <unicode hex="0055"/>
  <anchor x="320.333" y="774" name="top"/>
  <anchor x="320.333" y="-86" name="bottom"/>
  <anchor x="363.333" y="0" name="b.cedilla"/>
  <outline>
    <contour>
      <point x="73.333" y="707" type="line"/>
      <point x="73.333" y="231" type="line" smooth="yes"/>
      <point x="73.333" y="90.487"/>
      <point x="183.03" y="-6"/>
      <point x="320.333" y="-6" type="curve" smooth="yes"/>
      <point x="458.904" y="-6"/>
      <point x="566.667" y="89.394"/>
      <point x="566.667" y="231" type="curve" smooth="yes"/>
      <point x="566.667" y="707" type="line"/>
      <point x="471.333" y="707" type="line"/>
      <point x="471.333" y="237.333" type="line" smooth="yes"/>
      <point x="471.333" y="145.328"/>
      <point x="415.222" y="77"/>
      <point x="320.333" y="77" type="curve" smooth="yes"/>
      <point x="223.978" y="77"/>
      <point x="168.667" y="144.18"/>
      <point x="168.667" y="237.333" type="curve" smooth="yes"/>
      <point x="168.667" y="707" type="line"/>
    </contour>
  </outline>
</glyph>
<glyph name="V" format="2">
  <advance width="546"/>
  <unicode hex="0056"/>
  <anchor x="273.333" y="774" name="top"/>
  <anchor x="273.333" y="-86" name="bottom"/>
  <outline>
    <contour>
      <point x="234.333" y="0" type="line"/>
      <point x="311" y="0" type="line"/>
      <point x="539.667" y="707" type="line"/>
      <point x="441.667" y="707" type="line"/>
      <point x="273.333" y="153.333" type="line"/>
      <point x="104.667" y="707" type="line"/>
      <point x="6" y="707" type="line"/>
    </contour>
  </outline>
</glyph>
<glyph name="W" format="2">
  <advance width="827"/>
  <unicode hex="0057"/>
  <anchor x="414.667" y="774" name="top"/>
  <anchor x="414.667" y="-86" name="bottom"/>
  <outline>
    <contour>
      <point x="184.667" y="0" type="line"/>
      <point x="270" y="0" type="line"/>
      <point x="414.667" y="583" type="line"/>
      <point x="561.667" y="0" type="line"/>
      <point x="647.333" y="0" type="line"/>
      <point x="821.667" y="707" type="line"/>
      <point x="733.333" y="707" type="line"/>
      <point x="608" y="150" type="line"/>
      <point x="476.333" y="707" type="line"/>
      <point x="356.667" y="707" type="line"/>
      <point x="230.333" y="150" type="line"/>
      <point x="99.333" y="707" type="line"/>
      <point x="6" y="707" type="line"/>
    </contour>
  </outline>
</glyph>
<glyph name="X" format="2">
  <advance width="588"/>
  <unicode hex="0058"/>
  <anchor x="293.667" y="774" name="top"/>
  <anchor x="236" y="-86" name="bottom"/>
  <outline>
    <contour>
      <point x="6" y="0" type="line"/>
      <point x="115" y="0" type="line"/>
      <point x="292.333" y="292.333" type="line"/>
      <point x="469" y="0" type="line"/>
      <point x="582.333" y="0" type="line"/>
      <point x="349.333" y="371.667" type="line"/>
      <point x="560" y="707" type="line"/>
      <point x="451" y="707" type="line"/>
      <point x="294.667" y="445" type="line"/>
      <point x="137.667" y="707" type="line"/>
      <point x="24.667" y="707" type="line"/>
      <point x="238" y="368" type="line"/>
    </contour>
  </outline>
</glyph>
<glyph name="Z" format="2">
  <advance width="524"/>
  <unicode hex="005A"/>
  <anchor x="262.333" y="774" name="top"/>
  <anchor x="262.333" y="-86" name="bottom"/>
  <outline>
    <contour>
      <point x="37.667" y="0" type="line"/>
      <point x="491" y="0" type="line"/>
      <point x="491" y="84.667" type="line"/>
      <point x="143" y="84.667" type="line"/>
      <point x="485.333" y="622.667" type="line"/>
      <point x="485.333" y="707" type="line"/>
      <point x="48.333" y="707" type="line"/>
      <point x="48.333" y="622.667" type="line"/>
      <point x="380.333" y="622.667" type="line"/>
      <point x="37.667" y="84.667" type="line"/>
    </contour>
  </outline>
</glyph>
<glyph name="a" format="2">
  <advance width="510"/>
  <unicode hex="0061"/>
  <anchor x="245.667" y="591.333" name="top"/>
  <anchor x="245.667" y="578" name="t.ring"/>
  <anchor x="246" y="-86" name="bottom"/>
  <anchor x="440.667" y="0" name="b.cedilla"/>
  <outline>
    <contour>
      <point x="354.333" y="0" type="line"/>
      <point x="440.667" y="0" type="line"/>
      <point x="440.667" y="352" type="line" smooth="yes"/>
      <point x="440.667" y="472.89"/>
      <point x="359.901" y="530.333"/>
      <point x="245.333" y="530.333" type="curve" smooth="yes"/>
      <point x="151.593" y="530.333"/>
      <point x="59" y="484.326"/>
      <point x="59" y="379" type="curve" smooth="yes"/>
      <point x="59" y="374.333" type="line"/>
      <point x="143.667" y="374.333" type="line"/>
      <point x="143.667" y="378" type="line" smooth="yes"/>
      <point x="143.667" y="434.274"/>
      <point x="195.143" y="459"/>
      <point x="245.667" y="459" type="curve" smooth="yes"/>
      <point x="312.508" y="459"/>
      <point x="352" y="422.266"/>
      <point x="352" y="354.667" type="curve" smooth="yes"/>
      <point x="352" y="301.333" type="line"/>
      <point x="321.998" y="301.978"/>
      <point x="292.012" y="303.443"/>
      <point x="261.997" y="303.443" type="curve" smooth="yes"/>
      <point x="156.033" y="303.443"/>
      <point x="44.333" y="280.323"/>
      <point x="44.333" y="150.667" type="curve" smooth="yes"/>
      <point x="44.333" y="45.775"/>
      <point x="117.03" y="-6"/>
      <point x="216.333" y="-6" type="curve" smooth="yes"/>
      <point x="268.046" y="-6"/>
      <point x="320.576" y="11.179"/>
      <point x="354.333" y="52" type="curve"/>
    </contour>
    <contour>
      <point x="352" y="238.333" type="line"/>
      <point x="352" y="180.333" type="line" smooth="yes"/>
      <point x="352" y="102.044"/>
      <point x="310.137" y="65.333"/>
      <point x="233.333" y="65.333" type="curve" smooth="yes"/>
      <point x="175.878" y="65.333"/>
      <point x="132" y="89.435"/>
      <point x="132" y="152.333" type="curve" smooth="yes"/>
      <point x="132" y="214.979"/>
      <point x="178.19" y="238.333"/>
      <point x="234.667" y="238.333" type="curve" smooth="yes"/>
    </contour>
  </outline>
</glyph>
<glyph name="d" format="2">
  <advance width="524"/>
  <unicode hex="0064"/>
  <anchor x="235" y="587.333" name="top"/>
  <anchor x="235" y="-86" name="bottom"/>
  <outline>
    <contour>
      <point x="366.333" y="0" type="line"/>
      <point x="454.333" y="0" type="line"/>
      <point x="454.333" y="707" type="line"/>
      <point x="365.667" y="707" type="line"/>
      <point x="365.667" y="456.667" type="line"/>
      <point x="336.291" y="505.267"/>
      <point x="288.109" y="530.333"/>
      <point x="231.667" y="530.333" type="curve" smooth="yes"/>
      <point x="103.403" y="530.333"/>
      <point x="55.333" y="429.312"/>
      <point x="55.333" y="315" type="curve" smooth="yes"/>
      <point x="55.333" y="209.333" type="line" smooth="yes"/>
      <point x="55.333" y="96.364"/>
      <point x="104.519" y="-6"/>
      <point x="231.333" y="-6" type="curve" smooth="yes"/>
      <point x="286.016" y="-6"/>
      <point x="336.859" y="14.578"/>
      <point x="366.333" y="62.333" type="curve"/>
    </contour>
    <contour>
      <point x="249" y="72.667" type="curve" smooth="yes"/>
      <point x="165.567" y="72.667"/>
      <point x="145" y="143.184"/>
      <point x="145" y="213.333" type="curve" smooth="yes"/>
      <point x="145" y="310.667" type="line" smooth="yes"/>
      <point x="145" y="383.254"/>
      <point x="168.094" y="450.667"/>
      <point x="252.667" y="450.667" type="curve" smooth="yes"/>
      <point x="336.122" y="450.667"/>
      <point x="365.667" y="379.38"/>
      <point x="365.667" y="306.667" type="curve" smooth="yes"/>
      <point x="365.667" y="214" type="line" smooth="yes"/>
      <point x="365.667" y="138.654"/>
      <point x="333.206" y="72.667"/>
    </contour>
  </outline>
</glyph>
<glyph name="f" format="2">
  <advance width="323"/>
  <unicode hex="0066"/>
  <anchor x="155" y="774" name="top"/>
  <anchor x="236" y="-86" name="bottom"/>
  <outline>
    <contour>
      <point x="95" y="0" type="line"/>
      <point x="183.667" y="0" type="line"/>
      <point x="183.667" y="457" type="line"/>
      <point x="288" y="457" type="line"/>
      <point x="288" y="523.333" type="line"/>
      <point x="183.667" y="523.333" type="line"/>
      <point x="183.667" y="545" type="line" smooth="yes"/>
      <point x="183.667" y="620.017"/>
      <point x="197.801" y="640.9"/>
      <point x="272.268" y="640.9" type="curve" smooth="yes"/>
      <point x="288" y="640.9" type="line"/>
      <point x="288" y="707" type="line"/>
      <point x="227.667" y="707" type="line" smooth="yes"/>
      <point x="144.445" y="707"/>
      <point x="95" y="656.117"/>
      <point x="95" y="573.333" type="curve" smooth="yes"/>
      <point x="95" y="523.333" type="line"/>
      <point x="32.333" y="523.333" type="line"/>
      <point x="32.333" y="457" type="line"/>
      <point x="95" y="457" type="line"/>
    </contour>
  </outline>
</glyph>
<glyph name="g" format="2">
  <advance width="524"/>
  <unicode hex="0067"/>
  <anchor x="249.667" y="591.333" name="top"/>
  <anchor x="236" y="-86" name="bottom"/>
  <outline>
    <contour>
      <point x="64.333" y="-21.667" type="line"/>
      <point x="70.713" y="-124.712"/>
      <point x="162.861" y="-164"/>
      <point x="254.333" y="-164" type="curve" smooth="yes"/>
      <point x="380.832" y="-164"/>
      <point x="454.333" y="-84.544"/>
      <point x="454.333" y="40.333" type="curve" smooth="yes"/>
      <point x="454.333" y="526" type="line"/>
      <point x="365.667" y="526" type="line"/>
      <point x="365.667" y="460" type="line"/>
      <point x="337.173" y="508.255"/>
      <point x="286.852" y="532.333"/>
      <point x="231.667" y="532.333" type="curve" smooth="yes"/>
      <point x="104.265" y="532.333"/>
      <point x="55.333" y="431.447"/>
      <point x="55.333" y="317.667" type="curve" smooth="yes"/>
      <point x="55.333" y="251" type="line" smooth="yes"/>
      <point x="55.333" y="137.493"/>
      <point x="103.669" y="35"/>
      <point x="231.333" y="35" type="curve" smooth="yes"/>
      <point x="286.06" y="35"/>
      <point x="337.007" y="56.268"/>
      <point x="366.333" y="104" type="curve"/>
      <point x="366.515" y="40.04" type="line"/>
      <point x="366.515" y="-35.272"/>
      <point x="339.173" y="-90"/>
      <point x="256" y="-90" type="curve" smooth="yes"/>
      <point x="212.398" y="-90"/>
      <point x="158.207" y="-70.942"/>
      <point x="151" y="-21.667" type="curve"/>
    </contour>
    <contour>
      <point x="249" y="114.667" type="curve" smooth="yes"/>
      <point x="165.849" y="114.667"/>
      <point x="145" y="184.989"/>
      <point x="145" y="255" type="curve" smooth="yes"/>
      <point x="145" y="312.667" type="line" smooth="yes"/>
      <point x="145" y="385.097"/>
      <point x="168.083" y="453.333"/>
      <point x="252.667" y="453.333" type="curve" smooth="yes"/>
      <point x="335.781" y="453.333"/>
      <point x="365.667" y="381.773"/>
      <point x="365.667" y="309.333" type="curve" smooth="yes"/>
      <point x="365.667" y="255.667" type="line" smooth="yes"/>
      <point x="365.667" y="180.326"/>
      <point x="333.096" y="114.667"/>
    </contour>
  </outline>
</glyph>
<glyph name="i" format="2">
  <advance width="234"/>
  <unicode hex="0069"/>
  <anchor x="161.333" y="0" name="b.cedilla"/>
  <anchor x="116.667" y="-86" name="bottom"/>
  <outline>
    <contour>
      <point x="72.667" y="0" type="line"/>
      <point x="161.333" y="0" type="line"/>
      <point x="161.333" y="523.333" type="line"/>
      <point x="72.667" y="523.333" type="line"/>
    </contour>
    <contour>
      <point x="70.667" y="611.667" type="line"/>
      <point x="163" y="611.667" type="line"/>
      <point x="163" y="707" type="line"/>
      <point x="70.667" y="707" type="line"/>
    </contour>
  </outline>
</glyph>
<glyph name="k" format="2">
  <advance width="514"/>
  <unicode hex="006B"/>
  <anchor x="222.667" y="773" name="top"/>
  <anchor x="250" y="-86" name="bottom"/>
  <outline>
    <contour>
      <point x="69.667" y="0" type="line"/>
      <point x="158" y="0" type="line"/>
      <point x="158" y="707" type="line"/>
      <point x="69.667" y="707" type="line"/>
    </contour>
    <contour>
      <point x="148.088" y="144.365" type="line"/>
      <point x="473" y="523.333" type="line"/>
      <point x="366.667" y="523.333" type="line"/>
      <point x="148.235" y="253.717" type="line"/>
    </contour>
    <contour>
      <point x="389" y="0" type="line"/>
      <point x="496.667" y="0" type="line"/>
      <point x="293.03" y="335.464" type="line"/>
      <point x="234.653" y="266.968" type="line"/>
    </contour>
  </outline>
</glyph>
<glyph name="l" format="2">
  <advance width="290"/>
  <unicode hex="006C"/>
  <anchor x="113.667" y="774" name="top"/>
  <anchor x="167" y="-86" name="bottom"/>
  <anchor x="276" y="397" name="dot"/>
  <outline>
    <contour>
      <point x="261" y="0" type="line"/>
      <point x="261" y="78.817" type="line"/>
      <point x="240.341" y="78.817" type="line" smooth="yes"/>
      <point x="191.245" y="78.817"/>
      <point x="158" y="92.492"/>
      <point x="158" y="150" type="curve" smooth="yes"/>
      <point x="158" y="707" type="line"/>
      <point x="69.667" y="707" type="line"/>
      <point x="69.667" y="144.667" type="line" smooth="yes"/>
      <point x="69.667" y="55.911"/>
      <point x="118.231" y="0"/>
      <point x="209" y="0" type="curve" smooth="yes"/>
    </contour>
  </outline>
</glyph>
<glyph name="n" format="2">
  <advance width="533"/>
  <unicode hex="006E"/>
  <anchor x="267.667" y="591.333" name="top"/>
  <anchor x="267.667" y="-86" name="bottom"/>
  <anchor x="0" y="760" name="dot"/>
  <outline>
    <contour>
      <point x="69.667" y="0" type="line"/>
      <point x="158" y="0" type="line"/>
      <point x="158" y="331.333" type="line" smooth="yes"/>
      <point x="158" y="399.002"/>
      <point x="196.619" y="450.667"/>
      <point x="267.667" y="450.667" type="curve" smooth="yes"/>
      <point x="340.284" y="450.667"/>
      <point x="375.333" y="399.711"/>
      <point x="375.333" y="331.333" type="curve" smooth="yes"/>
      <point x="375.333" y="0" type="line"/>
      <point x="464.333" y="0" type="line"/>
      <point x="464.333" y="343" type="line" smooth="yes"/>
      <point x="464.333" y="452.223"/>
      <point x="406.901" y="529.667"/>
      <point x="292.333" y="529.667" type="curve" smooth="yes"/>
      <point x="239.606" y="529.667"/>
      <point x="187.652" y="508.998"/>
      <point x="156.333" y="465.333" type="curve"/>
      <point x="156.333" y="523.333" type="line"/>
      <point x="69.667" y="523.333" type="line"/>
    </contour>
  </outline>
</glyph>
<glyph name="o" format="2">
  <advance width="519"/>
  <unicode hex="006F"/>
  <anchor x="260.667" y="591.333" name="top"/>
  <anchor x="260.667" y="-86" name="bottom"/>
  <anchor x="241" y="0" name="b.cedilla"/>
  <outline>
    <contour>
      <point x="260.667" y="-6" type="curve" smooth="yes"/>
      <point x="398.032" y="-6"/>
      <point x="463.333" y="78.24"/>
      <point x="463.333" y="210.333" type="curve" smooth="yes"/>
      <point x="463.333" y="314" type="line" smooth="yes"/>
      <point x="463.333" y="445.718"/>
      <point x="397.641" y="530.333"/>
      <point x="260.667" y="530.333" type="curve" smooth="yes"/>
      <point x="123.544" y="530.333"/>
      <point x="55.333" y="446.901"/>
      <point x="55.333" y="314" type="curve" smooth="yes"/>
      <point x="55.333" y="210.333" type="line" smooth="yes"/>
      <point x="55.333" y="77.053"/>
      <point x="123.152" y="-6"/>
    </contour>
    <contour>
      <point x="260.667" y="72.667" type="curve" smooth="yes"/>
      <point x="173.82" y="72.667"/>
      <point x="144" y="135.562"/>
      <point x="144" y="213.333" type="curve" smooth="yes"/>
      <point x="144" y="310.667" type="line" smooth="yes"/>
      <point x="144" y="388.864"/>
      <point x="173.556" y="450.667"/>
      <point x="260.667" y="450.667" type="curve" smooth="yes"/>
      <point x="347.414" y="450.667"/>
      <point x="374.667" y="387.499"/>
      <point x="374.667" y="310.667" type="curve" smooth="yes"/>
      <point x="374.667" y="213.333" type="line" smooth="yes"/>
      <point x="374.667" y="136.923"/>
      <point x="347.141" y="72.667"/>
    </contour>
  </outline>
</glyph>
<glyph name="p" format="2">
  <advance width="524"/>
  <unicode hex="0070"/>
  <anchor x="275" y="591.333" name="top"/>
  <anchor x="236" y="-86" name="bottom"/>
  <outline>
    <contour>
      <point x="69.667" y="-157.333" type="line"/>
      <point x="158" y="-157.333" type="line"/>
      <point x="158" y="62" type="line"/>
      <point x="188.333" y="14"/>
      <point x="237.667" y="-6"/>
      <point x="293" y="-6" type="curve" smooth="yes"/>
      <point x="421.667" y="-6"/>
      <point x="468.333" y="95"/>
      <point x="468.333" y="209.333" type="curve" smooth="yes"/>
      <point x="468.333" y="315" type="line" smooth="yes"/>
      <point x="468.333" y="432.333"/>
      <point x="418.333" y="529.667"/>
      <point x="288.333" y="529.667" type="curve" smooth="yes"/>
      <point x="232.333" y="529.667"/>
      <point x="185.667" y="504.333"/>
      <point x="157" y="456.667" type="curve"/>
      <point x="157" y="523.333" type="line"/>
      <point x="69.667" y="523.333" type="line"/>
    </contour>
    <contour>
      <point x="274.667" y="72.667" type="curve" smooth="yes"/>
      <point x="192.333" y="72.667"/>
      <point x="157.667" y="140.333"/>
      <point x="157.667" y="214" type="curve" smooth="yes"/>
      <point x="157.667" y="306.667" type="line" smooth="yes"/>
      <point x="157.667" y="379.333"/>
      <point x="187.333" y="450.667"/>
      <point x="271" y="450.667" type="curve" smooth="yes"/>
      <point x="357" y="450.667"/>
      <point x="379.333" y="383.333"/>
      <point x="379.333" y="310" type="curve" smooth="yes"/>
      <point x="379.333" y="213.333" type="line" smooth="yes"/>
      <point x="379.333" y="142"/>
      <point x="359" y="72.667"/>
    </contour>
  </outline>
</glyph>
<glyph name="r" format="2">
  <advance width="352"/>
  <unicode hex="0072"/>
  <anchor x="196" y="591.333" name="top"/>
  <anchor x="196" y="-86" name="bottom"/>
  <outline>
    <contour>
      <point x="69.667" y="0" type="line"/>
      <point x="158" y="0" type="line"/>
      <point x="158" y="325.667" type="line" smooth="yes"/>
      <point x="158" y="395.515"/>
      <point x="198.594" y="452"/>
      <point x="272.333" y="452" type="curve" smooth="yes"/>
      <point x="291" y="452"/>
      <point x="310" y="449"/>
      <point x="328.667" y="443" type="curve"/>
      <point x="328.667" y="528.667" type="line"/>
      <point x="316.333" y="531"/>
      <point x="303.667" y="532"/>
      <point x="289.667" y="532" type="curve" smooth="yes"/>
      <point x="234.537" y="532"/>
      <point x="183.433" y="508.564"/>
      <point x="156.333" y="459" type="curve"/>
      <point x="156.333" y="523.333" type="line"/>
      <point x="69.667" y="523.333" type="line"/>
    </contour>
  </outline>
</glyph>
<glyph name="s" format="2">
  <advance width="477"/>
  <unicode hex="0073"/>
  <anchor x="240.333" y="591.333" name="top"/>
  <anchor x="218" y="0" name="b.cedilla"/>
  <anchor x="240.667" y="-86" name="bottom"/>
  <outline>
    <contour>
      <point x="44.339" y="154" type="line"/>
      <point x="44.339" y="149.396" type="line" smooth="yes"/>
      <point x="44.339" y="40.075"/>
      <point x="137.721" y="-6"/>
      <point x="237" y="-6" type="curve" smooth="yes"/>
      <point x="338.538" y="-6"/>
      <point x="438.333" y="37.864"/>
      <point x="438.333" y="153.667" type="curve" smooth="yes"/>
      <point x="438.333" y="257.923"/>
      <point x="360.613" y="283.403"/>
      <point x="260.592" y="301.669" type="curve" smooth="yes"/>
      <point x="230.587" y="307.142" type="line" smooth="yes"/>
      <point x="185.353" y="315.352"/>
      <point x="137" y="329.483"/>
      <point x="137" y="381.667" type="curve" smooth="yes"/>
      <point x="137" y="439.459"/>
      <point x="191.301" y="459"/>
      <point x="240.333" y="459" type="curve" smooth="yes"/>
      <point x="289.624" y="459"/>
      <point x="346.611" y="439.499"/>
      <point x="346.611" y="382.496" type="curve" smooth="yes"/>
      <point x="346.611" y="378" type="line"/>
      <point x="430.993" y="378" type="line"/>
      <point x="430.993" y="382.276" type="line" smooth="yes"/>
      <point x="430.993" y="488.114"/>
      <point x="332.846" y="530.333"/>
      <point x="239" y="530.333" type="curve" smooth="yes"/>
      <point x="144.421" y="530.333"/>
      <point x="52" y="482.281"/>
      <point x="52" y="376.667" type="curve" smooth="yes"/>
      <point x="52" y="277.711"/>
      <point x="127.246" y="248.812"/>
      <point x="221.733" y="231.8" type="curve" smooth="yes"/>
      <point x="255.672" y="225.702" type="line" smooth="yes"/>
      <point x="303.297" y="217.172"/>
      <point x="353.333" y="203.216"/>
      <point x="353.333" y="148" type="curve" smooth="yes"/>
      <point x="353.333" y="86.263"/>
      <point x="291.527" y="67.333"/>
      <point x="240.333" y="67.333" type="curve" smooth="yes"/>
      <point x="187.743" y="67.333"/>
      <point x="129.39" y="89.493"/>
      <point x="129.39" y="149.396" type="curve" smooth="yes"/>
      <point x="129.39" y="154" type="line"/>
    </contour>
  </outline>
</glyph>
<glyph name="t" format="2">
  <advance width="352"/>
  <unicode hex="0074"/>
  <anchor x="196.333" y="-86" name="bottom"/>
  <anchor x="154.667" y="774" name="top"/>
  <outline>
    <contour>
      <point x="301.667" y="0" type="line"/>
      <point x="301.667" y="76.666" type="line"/>
      <point x="288.552" y="76.666" type="line" smooth="yes"/>
      <point x="240.733" y="76.666"/>
      <point x="199" y="85.553"/>
      <point x="199" y="142" type="curve" smooth="yes"/>
      <point x="199" y="457" type="line"/>
      <point x="311.333" y="457" type="line"/>
      <point x="311.333" y="523.333" type="line"/>
      <point x="199" y="523.333" type="line"/>
      <point x="199" y="674.333" type="line"/>
      <point x="110.333" y="637.667" type="line"/>
      <point x="110.333" y="523.333" type="line"/>
      <point x="32" y="523.333" type="line"/>
      <point x="32" y="457" type="line"/>
      <point x="110.333" y="457" type="line"/>
      <point x="110.333" y="137.333" type="line" smooth="yes"/>
      <point x="110.333" y="52.429"/>
      <point x="161.83" y="0"/>
      <point x="247" y="0" type="curve" smooth="yes"/>
    </contour>
  </outline>
</glyph>
<glyph name="w" format="2">
  <advance width="738"/>
  <unicode hex="0077"/>
  <anchor x="368.667" y="591.333" name="top"/>
  <anchor x="368.667" y="-86" name="bottom"/>
  <anchor x="368.667" y="578" name="t.ring"/>
  <outline>
    <contour>
      <point x="169.667" y="0" type="line"/>
      <point x="246.667" y="0" type="line"/>
      <point x="368.667" y="394.333" type="line"/>
      <point x="490.667" y="0" type="line"/>
      <point x="568.667" y="0" type="line"/>
      <point x="726" y="523.333" type="line"/>
      <point x="630.333" y="523.333" type="line"/>
      <point x="524" y="133.667" type="line"/>
      <point x="404" y="523.333" type="line"/>
      <point x="333.667" y="523.333" type="line"/>
      <point x="213.333" y="133.667" type="line"/>
      <point x="107.667" y="523.333" type="line"/>
      <point x="12.333" y="523.333" type="line"/>
    </contour>
  </outline>
</glyph>
<glyph name="y" format="2">
  <advance width="464"/>
  <unicode hex="0079"/>
  <anchor x="227" y="591.333" name="top"/>
  <anchor x="353" y="-112" name="dot"/>
  <anchor x="227" y="578" name="t.ring"/>
  <outline>
    <contour>
      <point x="72" y="-156.667" type="line"/>
      <point x="76.438" y="-156.676" type="line"/>
      <point x="164.911" y="-156.676"/>
      <point x="220.156" y="-143.549"/>
      <point x="251.667" y="-52.667" type="curve" smooth="yes"/>
      <point x="451.333" y="523.333" type="line"/>
      <point x="359.333" y="523.333" type="line"/>
      <point x="233.333" y="136.667" type="line"/>
      <point x="107.667" y="523.333" type="line"/>
      <point x="12.333" y="523.333" type="line"/>
      <point x="191.667" y="8" type="line"/>
      <point x="186.618" y="-8.076" type="line" smooth="yes"/>
      <point x="169.991" y="-61.035"/>
      <point x="151.825" y="-76.121"/>
      <point x="86.505" y="-76.121" type="curve"/>
      <point x="72" y="-76" type="line"/>
    </contour>
  </outline>
</glyph>
<glyph name="z" format="2">
  <advance width="466"/>
  <unicode hex="007A"/>
  <anchor x="230.333" y="591.333" name="top"/>
  <anchor x="230.333" y="-86" name="bottom"/>
  <outline>
    <contour>
      <point x="55.333" y="0" type="line"/>
      <point x="411.333" y="0" type="line"/>
      <point x="411.333" y="78.667" type="line"/>
      <point x="153.333" y="78.667" type="line"/>
      <point x="411.333" y="445.333" type="line"/>
      <point x="411.333" y="523.333" type="line"/>
      <point x="55.333" y="523.333" type="line"/>
      <point x="55.333" y="445.333" type="line"/>
      <point x="312" y="445.333" type="line"/>
      <point x="55.333" y="78.667" type="line"/>
    </contour>
  </outline>
</glyph>
<glyph name="braceleft" format="2">
  <advance width="334"/>
  <unicode hex="007B"/>
  <outline>
    <contour>
      <point x="289.333" y="-86" type="line"/>
      <point x="289.333" y="-10.727" type="line"/>
      <point x="271.793" y="-10.727" type="line" smooth="yes"/>
      <point x="238.91" y="-10.727"/>
      <point x="207.667" y="3.612"/>
      <point x="207.667" y="39.667" type="curve" smooth="yes"/>
      <point x="207.667" y="214" type="line" smooth="yes"/>
      <point x="207.667" y="270.425"/>
      <point x="201.399" y="316.889"/>
      <point x="142" y="338" type="curve"/>
      <point x="201.832" y="358.466"/>
      <point x="207.667" y="406.469"/>
      <point x="207.667" y="462.667" type="curve" smooth="yes"/>
      <point x="207.667" y="632" type="line" smooth="yes"/>
      <point x="207.667" y="669.629"/>
      <point x="234.899" y="681.625"/>
      <point x="271.633" y="681.625" type="curve" smooth="yes"/>
      <point x="289.333" y="681.625" type="line"/>
      <point x="289.333" y="758" type="line"/>
      <point x="231.333" y="758" type="line" smooth="yes"/>
      <point x="154.683" y="758"/>
      <point x="119" y="715.753"/>
      <point x="119" y="641" type="curve" smooth="yes"/>
      <point x="119" y="461.333" type="line" smooth="yes"/>
      <point x="119" y="406.998"/>
      <point x="102.142" y="380.085"/>
      <point x="45" y="378.667" type="curve"/>
      <point x="45" y="298" type="line"/>
      <point x="102.142" y="296.582"/>
      <point x="119" y="269.669"/>
      <point x="119" y="215.333" type="curve" smooth="yes"/>
      <point x="119" y="31.333" type="line" smooth="yes"/>
      <point x="119" y="-43.587"/>
      <point x="154.391" y="-86"/>
      <point x="231.333" y="-86" type="curve" smooth="yes"/>
    </contour>
  </outline>
</glyph>
<glyph name="asciitilde" format="2">
  <advance width="530"/>
  <unicode hex="007E"/>
  <outline>
    <contour>
      <point x="106" y="214.333" type="line"/>
      <point x="123.422" y="243.874"/>
      <point x="143.424" y="274.667"/>
      <point x="181.667" y="274.667" type="curve" smooth="yes"/>
      <point x="234.064" y="274.667"/>
      <point x="276.808" y="211.333"/>
      <point x="347.667" y="211.333" type="curve" smooth="yes"/>
      <point x="412.524" y="211.333"/>
      <point x="458.348" y="256.593"/>
      <point x="484.333" y="312" type="curve"/>
      <point x="423.667" y="350" type="line"/>
      <point x="405.97" y="317.497"/>
      <point x="387.841" y="290.333"/>
      <point x="347" y="290.333" type="curve" smooth="yes"/>
      <point x="294.29" y="290.333"/>
      <point x="250.434" y="352"/>
      <point x="180.667" y="352" type="curve" smooth="yes"/>
      <point x="115.191" y="352"/>
      <point x="70.754" y="308.295"/>
      <point x="45.333" y="251.667" type="curve"/>
    </contour>
  </outline>
</glyph>
<glyph name="exclamdown" format="2">
  <advance width="247"/>
  <unicode hex="00A1"/>
  <outline>
    <contour>
      <point x="71" y="414.667" type="line"/>
      <point x="178" y="414.667" type="line"/>
      <point x="178" y="523.333" type="line"/>
      <point x="71" y="523.333" type="line"/>
    </contour>
    <contour>
      <point x="71.667" y="-157.333" type="line"/>
      <point x="177.333" y="-157.333" type="line"/>
      <point x="159.667" y="311" type="line"/>
      <point x="89.333" y="311" type="line"/>
    </contour>
  </outline>
</glyph>
<glyph name="cent" format="2">
  <advance width="530"/>
  <unicode hex="00A2"/>
  <outline>
    <contour>
      <point x="233" y="-102" type="line"/>
      <point x="293" y="-102" type="line"/>
      <point x="293" y="-4" type="line"/>
      <point x="396.518" y="6.012"/>
      <point x="460.333" y="73.113"/>
      <point x="460.333" y="172.333" type="curve" smooth="yes"/>
      <point x="460.333" y="177.333" type="line"/>
      <point x="374.648" y="177.333" type="line"/>
      <point x="374.648" y="173.749" type="line" smooth="yes"/>
      <point x="374.648" y="108.72"/>
      <point x="333.927" y="72.287"/>
      <point x="261.261" y="72.287" type="curve" smooth="yes"/>
      <point x="182.889" y="72.287"/>
      <point x="144" y="119.062"/>
      <point x="144" y="213.333" type="curve" smooth="yes"/>
      <point x="144" y="310.667" type="line" smooth="yes"/>
      <point x="144" y="403.578"/>
      <point x="183.736" y="450.987"/>
      <point x="261.624" y="450.987" type="curve" smooth="yes"/>
      <point x="334.131" y="450.987"/>
      <point x="374.614" y="415.175"/>
      <point x="374.614" y="351.091" type="curve" smooth="yes"/>
      <point x="374.614" y="345" type="line"/>
      <point x="460.293" y="345" type="line"/>
      <point x="460.293" y="351.797" type="line" smooth="yes"/>
      <point x="460.293" y="454.297"/>
      <point x="399.559" y="518.096"/>
      <point x="293" y="528.333" type="curve"/>
      <point x="293" y="631.333" type="line"/>
      <point x="233" y="631.333" type="line"/>
      <point x="233" y="529" type="line"/>
      <point x="116.768" y="519.196"/>
      <point x="55.333" y="445.081"/>
      <point x="55.333" y="314" type="curve" smooth="yes"/>
      <point x="55.333" y="210.333" type="line" smooth="yes"/>
      <point x="55.333" y="80.498"/>
      <point x="117.26" y="5.87"/>
      <point x="233" y="-4" type="curve"/>
    </contour>
  </outline>
</glyph>
<glyph name="sterling" format="2">
  <advance width="456"/>
  <unicode hex="00A3"/>
  <outline>
    <contour>
      <point x="51.333" y="0" type="line"/>
      <point x="426" y="0" type="line"/>
      <point x="426" y="85.333" type="line"/>
      <point x="159" y="85.333" type="line"/>
      <point x="182.216" y="110.561"/>
      <point x="192.442" y="144.575"/>
      <point x="192.442" y="196.646" type="curve" smooth="yes"/>
      <point x="192.442" y="292.333" type="line"/>
      <point x="331.333" y="292.333" type="line"/>
      <point x="331.333" y="376.333" type="line"/>
      <point x="192.333" y="376.333" type="line"/>
      <point x="192.333" y="548" type="line" smooth="yes"/>
      <point x="192.333" y="601.424"/>
      <point x="218.115" y="632.333"/>
      <point x="262.667" y="632.333" type="curve" smooth="yes"/>
      <point x="305.802" y="632.333"/>
      <point x="332.389" y="603.327"/>
      <point x="332.333" y="556.333" type="curve"/>
      <point x="423.333" y="556.333" type="line"/>
      <point x="423.357" y="655.282"/>
      <point x="361.696" y="717"/>
      <point x="262.667" y="717" type="curve" smooth="yes"/>
      <point x="158.784" y="717"/>
      <point x="97" y="649.175"/>
      <point x="97" y="535.333" type="curve" smooth="yes"/>
      <point x="97" y="376.333" type="line"/>
      <point x="31.333" y="376.333" type="line"/>
      <point x="31.333" y="292.333" type="line"/>
      <point x="97" y="292.333" type="line"/>
      <point x="97" y="181.333" type="line" smooth="yes"/>
      <point x="97" y="125.814"/>
      <point x="84.829" y="98.489"/>
      <point x="51.333" y="79" type="curve"/>
    </contour>
  </outline>
</glyph>
<glyph name="yen" format="2">
  <advance width="479"/>
  <unicode hex="00A5"/>
  <outline>
    <contour>
      <point x="51.667" y="146" type="line"/>
      <point x="193" y="146" type="line"/>
      <point x="193" y="0" type="line"/>
      <point x="287.333" y="0" type="line"/>
      <point x="287.333" y="146" type="line"/>
      <point x="428" y="146" type="line"/>
      <point x="428" y="214" type="line"/>
      <point x="287.333" y="214" type="line"/>
      <point x="287.333" y="278.667" type="line"/>
      <point x="428" y="278.667" type="line"/>
      <point x="428" y="347.333" type="line"/>
      <point x="307.667" y="347.333" type="line"/>
      <point x="470.667" y="707" type="line"/>
      <point x="369.667" y="707" type="line"/>
      <point x="241" y="390.333" type="line"/>
      <point x="111" y="707" type="line"/>
      <point x="9" y="707" type="line"/>
      <point x="172.667" y="347.333" type="line"/>
      <point x="51.667" y="347.333" type="line"/>
      <point x="51.667" y="278.667" type="line"/>
      <point x="193" y="278.667" type="line"/>
      <point x="193" y="214" type="line"/>
      <point x="51.667" y="214" type="line"/>
    </contour>
  </outline>
</glyph>
<glyph name="section" format="2">
  <advance width="523"/>
  <unicode hex="00A7"/>
  <outline>
    <contour>
      <point x="88.333" y="-1.333" type="line"/>
      <point x="88.303" y="-112.894"/>
      <point x="147.562" y="-172"/>
      <point x="259.333" y="-172" type="curve" smooth="yes"/>
      <point x="361.59" y="-172"/>
      <point x="430.667" y="-108.849"/>
      <point x="430.667" y="-15.333" type="curve" smooth="yes"/>
      <point x="430.667" y="53.393"/>
      <point x="406.284" y="96.08"/>
      <point x="352.333" y="122.333" type="curve"/>
      <point x="411.364" y="144.281"/>
      <point x="448.333" y="206.03"/>
      <point x="448.333" y="282.667" type="curve" smooth="yes"/>
      <point x="448.333" y="411.959"/>
      <point x="380.735" y="449.41"/>
      <point x="294.315" y="472.78" type="curve" smooth="yes"/>
      <point x="219.25" y="493.057"/>
      <point x="187" y="518.413"/>
      <point x="187" y="576" type="curve" smooth="yes"/>
      <point x="187" y="624.196"/>
      <point x="216.722" y="653.667"/>
      <point x="265.333" y="653.667" type="curve" smooth="yes"/>
      <point x="317.534" y="653.667"/>
      <point x="344.738" y="623.605"/>
      <point x="344.667" y="566" type="curve"/>
      <point x="430" y="566" type="line"/>
      <point x="430.027" y="672.422"/>
      <point x="370.663" y="731.667"/>
      <point x="264" y="731.667" type="curve" smooth="yes"/>
      <point x="164.575" y="731.667"/>
      <point x="97" y="668.82"/>
      <point x="97" y="576.333" type="curve" smooth="yes"/>
      <point x="97" y="512.343"/>
      <point x="121.502" y="469.219"/>
      <point x="172.667" y="443" type="curve"/>
      <point x="109.393" y="416.732"/>
      <point x="74.667" y="359.648"/>
      <point x="74.667" y="282" type="curve" smooth="yes"/>
      <point x="74.667" y="174.9"/>
      <point x="116.557" y="121.781"/>
      <point x="231.107" y="91.208" type="curve" smooth="yes"/>
      <point x="310.058" y="70.118"/>
      <point x="341" y="39.477"/>
      <point x="341" y="-13" type="curve" smooth="yes"/>
      <point x="341" y="-64.232"/>
      <point x="310.911" y="-93.333"/>
      <point x="258" y="-93.333" type="curve" smooth="yes"/>
      <point x="200.74" y="-93.333"/>
      <point x="173.928" y="-63.97"/>
      <point x="174" y="-1.333" type="curve"/>
    </contour>
    <contour>
      <point x="262" y="173" type="curve" smooth="yes"/>
      <point x="200.076" y="173"/>
      <point x="164.667" y="212.774"/>
      <point x="164.667" y="282.333" type="curve" smooth="yes"/>
      <point x="164.667" y="351.501"/>
      <point x="200.424" y="391.667"/>
      <point x="262" y="391.667" type="curve" smooth="yes"/>
      <point x="322.81" y="391.667"/>
      <point x="358.667" y="351.103"/>
      <point x="358.667" y="282.333" type="curve" smooth="yes"/>
      <point x="358.667" y="214.468"/>
      <point x="322.004" y="173"/>
    </contour>
  </outline>
</glyph>
<glyph name="copyright" format="2">
  <advance width="846"/>
  <unicode hex="00A9"/>
  <outline>
    <contour>
      <point x="419.333" y="-9.667" type="curve" smooth="yes"/>
      <point x="630" y="-9.667"/>
      <point x="771.667" y="134.333"/>
      <point x="771.667" y="348.667" type="curve" smooth="yes"/>
      <point x="771.667" y="562.333"/>
      <point x="629.333" y="708"/>
      <point x="419.333" y="708" type="curve" smooth="yes"/>
      <point x="210.333" y="708"/>
      <point x="68" y="562.333"/>
      <point x="68" y="348.667" type="curve" smooth="yes"/>
      <point x="68" y="135.333"/>
      <point x="209.667" y="-9.667"/>
    </contour>
    <contour>
      <point x="419.333" y="52.667" type="curve" smooth="yes"/>
      <point x="245.333" y="52.667"/>
      <point x="134.333" y="168"/>
      <point x="134.333" y="348.667" type="curve" smooth="yes"/>
      <point x="134.333" y="529.667"/>
      <point x="245.333" y="645.333"/>
      <point x="419.333" y="645.333" type="curve" smooth="yes"/>
      <point x="593.667" y="645.333"/>
      <point x="705.333" y="529"/>
      <point x="705.333" y="348.667" type="curve" smooth="yes"/>
      <point x="705.333" y="168.333"/>
      <point x="593.667" y="52.667"/>
    </contour>
    <contour>
      <point x="504.333" y="289" type="line"/>
      <point x="504.333" y="285.333" type="line" smooth="yes"/>
      <point x="504.333" y="238.333"/>
      <point x="476" y="211.667"/>
      <point x="425" y="211.667" type="curve" smooth="yes"/>
      <point x="364" y="211.667"/>
      <point x="337" y="243"/>
      <point x="337" y="314.333" type="curve" smooth="yes"/>
      <point x="337" y="386.333" type="line" smooth="yes"/>
      <point x="337" y="457"/>
      <point x="364.667" y="489"/>
      <point x="425" y="489" type="curve" smooth="yes"/>
      <point x="474.667" y="489"/>
      <point x="504.333" y="462.333"/>
      <point x="504.333" y="417" type="curve" smooth="yes"/>
      <point x="504.333" y="411.667" type="line"/>
      <point x="569" y="411.667" type="line"/>
      <point x="569" y="417" type="line" smooth="yes"/>
      <point x="569" y="501.333"/>
      <point x="515.667" y="549.667"/>
      <point x="422.667" y="549.667" type="curve" smooth="yes"/>
      <point x="322.333" y="549.667"/>
      <point x="269.333" y="494"/>
      <point x="269.333" y="388.667" type="curve" smooth="yes"/>
      <point x="269.333" y="312" type="line" smooth="yes"/>
      <point x="269.333" y="206"/>
      <point x="321.333" y="152"/>
      <point x="422.667" y="152" type="curve" smooth="yes"/>
      <point x="513.667" y="152"/>
      <point x="569" y="202.333"/>
      <point x="569" y="284" type="curve" smooth="yes"/>
      <point x="569" y="289" type="line"/>
    </contour>
  </outline>
</glyph>
<glyph name="ordfeminine" format="2">
  <advance width="345"/>
  <unicode hex="00AA"/>
  <outline>
    <contour>
      <point x="219.667" y="440" type="line"/>
      <point x="291.667" y="440" type="line"/>
      <point x="291.667" y="653.667" type="line" smooth="yes"/>
      <point x="291.667" y="726.667"/>
      <point x="246.667" y="766"/>
      <point x="164.667" y="766" type="curve" smooth="yes"/>
      <point x="91" y="766"/>
      <point x="44.667" y="729"/>
      <point x="44.667" y="670" type="curve" smooth="yes"/>
      <point x="44.667" y="666.333" type="line"/>
      <point x="113.667" y="666.333" type="line"/>
      <point x="113.667" y="669.333" type="line" smooth="yes"/>
      <point x="113.667" y="693.667"/>
      <point x="133.333" y="709.333"/>
      <point x="164.333" y="709.333" type="curve" smooth="yes"/>
      <point x="198.333" y="709.333"/>
      <point x="217.333" y="690.667"/>
      <point x="217.333" y="657.333" type="curve" smooth="yes"/>
      <point x="217.333" y="630" type="line"/>
      <point x="179.667" y="630" type="line" smooth="yes"/>
      <point x="80.333" y="630"/>
      <point x="36.333" y="601.667"/>
      <point x="36.333" y="537.333" type="curve" smooth="yes"/>
      <point x="36.333" y="473.333"/>
      <point x="75.333" y="436"/>
      <point x="141.333" y="436" type="curve" smooth="yes"/>
      <point x="175.667" y="436"/>
      <point x="197.667" y="445.333"/>
      <point x="219.667" y="470" type="curve"/>
    </contour>
    <contour>
      <point x="217.333" y="578.667" type="line"/>
      <point x="217.333" y="554.333" type="line" smooth="yes"/>
      <point x="217.333" y="515"/>
      <point x="198.333" y="497"/>
      <point x="158" y="497" type="curve" smooth="yes"/>
      <point x="125.333" y="497"/>
      <point x="107.667" y="511.667"/>
      <point x="107.667" y="539" type="curve" smooth="yes"/>
      <point x="107.667" y="564.667"/>
      <point x="125" y="578.667"/>
      <point x="159" y="578.667" type="curve" smooth="yes"/>
    </contour>
  </outline>
</glyph>
<glyph name="registered" format="2">
  <advance width="506"/>
  <unicode hex="00AE"/>
  <outline>
    <contour>
      <point x="252.333" y="313.667" type="curve" smooth="yes"/>
      <point x="363.587" y="313.667"/>
      <point x="446" y="397.499"/>
      <point x="446" y="510.667" type="curve" smooth="yes"/>
      <point x="446" y="622.842"/>
      <point x="363.175" y="706.667"/>
      <point x="252.333" y="706.667" type="curve" smooth="yes"/>
      <point x="143.19" y="706.667"/>
      <point x="60" y="621.893"/>
      <point x="60" y="510.667" type="curve" smooth="yes"/>
      <point x="60" y="398.792"/>
      <point x="143.109" y="313.667"/>
    </contour>
    <contour>
      <point x="252.333" y="348.667" type="curve" smooth="yes"/>
      <point x="161.154" y="348.667"/>
      <point x="97.667" y="415.162"/>
      <point x="97.667" y="510.667" type="curve" smooth="yes"/>
      <point x="97.667" y="605.717"/>
      <point x="161.021" y="671.667"/>
      <point x="252.333" y="671.667" type="curve" smooth="yes"/>
      <point x="343.819" y="671.667"/>
      <point x="408.667" y="604.888"/>
      <point x="408.667" y="510.667" type="curve" smooth="yes"/>
      <point x="408.667" y="415.909"/>
      <point x="343.77" y="348.667"/>
    </contour>
    <contour>
      <point x="178.667" y="402" type="line"/>
      <point x="221" y="402" type="line"/>
      <point x="221" y="489.333" type="line"/>
      <point x="257" y="489.333" type="line"/>
      <point x="298.333" y="402" type="line"/>
      <point x="344" y="402" type="line"/>
      <point x="299" y="495" type="line"/>
      <point x="325.499" y="505.969"/>
      <point x="338.333" y="525.672"/>
      <point x="338.333" y="555.333" type="curve" smooth="yes"/>
      <point x="338.333" y="597.088"/>
      <point x="311.287" y="621.333"/>
      <point x="264.667" y="621.333" type="curve" smooth="yes"/>
      <point x="178.667" y="621.333" type="line"/>
    </contour>
    <contour>
      <point x="221" y="525.667" type="line"/>
      <point x="221" y="584.333" type="line"/>
      <point x="263" y="584.333" type="line" smooth="yes"/>
      <point x="285.574" y="584.333"/>
      <point x="297.333" y="574.288"/>
      <point x="297.333" y="555" type="curve" smooth="yes"/>
      <point x="297.333" y="535.712"/>
      <point x="285.574" y="525.667"/>
      <point x="263" y="525.667" type="curve" smooth="yes"/>
    </contour>
  </outline>
</glyph>
<glyph name="degree" format="2">
  <advance width="414"/>
  <unicode hex="00B0"/>
  <outline>
    <contour>
      <point x="62.333" y="571" type="curve" smooth="yes"/>
      <point x="62.333" y="486.641"/>
      <point x="123.829" y="425.667"/>
      <point x="208" y="425.667" type="curve" smooth="yes"/>
      <point x="290.777" y="425.667"/>
      <point x="352.667" y="488.391"/>
      <point x="352.667" y="571" type="curve" smooth="yes"/>
      <point x="352.667" y="653.474"/>
      <point x="291.096" y="717.333"/>
      <point x="208" y="717.333" type="curve" smooth="yes"/>
      <point x="123.503" y="717.333"/>
      <point x="62.333" y="655.257"/>
    </contour>
    <contour>
      <point x="208" y="484.667" type="curve" smooth="yes"/>
      <point x="157.59" y="484.667"/>
      <point x="123.667" y="521.193"/>
      <point x="123.667" y="571" type="curve" smooth="yes"/>
      <point x="123.667" y="621.43"/>
      <point x="156.373" y="659"/>
      <point x="208" y="659" type="curve" smooth="yes"/>
      <point x="257.721" y="659"/>
      <point x="291.333" y="619.238"/>
      <point x="291.333" y="571" type="curve" smooth="yes"/>
      <point x="291.333" y="523.387"/>
      <point x="256.542" y="484.667"/>
    </contour>
  </outline>
</glyph>
<glyph name="plusminus" format="2">
  <advance width="530"/>
  <unicode hex="00B1"/>
  <outline>
    <contour>
      <point x="223" y="118.667" type="line"/>
      <point x="307.333" y="118.667" type="line"/>
      <point x="307.333" y="286.667" type="line"/>
      <point x="475" y="286.667" type="line"/>
      <point x="475" y="370" type="line"/>
      <point x="307.333" y="370" type="line"/>
      <point x="307.333" y="538" type="line"/>
      <point x="223" y="538" type="line"/>
      <point x="223" y="370" type="line"/>
      <point x="55" y="370" type="line"/>
      <point x="55" y="286.667" type="line"/>
      <point x="223" y="286.667" type="line"/>
    </contour>
    <contour>
      <point x="55" y="-15" type="line"/>
      <point x="475" y="-15" type="line"/>
      <point x="475" y="68.667" type="line"/>
      <point x="55" y="68.667" type="line"/>
    </contour>
  </outline>
</glyph>
<glyph name="mu" format="2">
  <advance width="529"/>
  <unicode hex="00B5"/>
  <outline>
    <contour>
      <point x="69.667" y="-157.333" type="line"/>
      <point x="157.667" y="-157.333" type="line"/>
      <point x="157.667" y="24.667" type="line"/>
      <point x="180.316" y="3.58"/>
      <point x="211.242" y="-7.333"/>
      <point x="248.333" y="-7.333" type="curve" smooth="yes"/>
      <point x="302.263" y="-7.333"/>
      <point x="344.335" y="14.5"/>
      <point x="371.667" y="56.667" type="curve"/>
      <point x="371.667" y="0" type="line"/>
      <point x="459.667" y="0" type="line"/>
      <point x="459.667" y="523.333" type="line"/>
      <point x="370" y="523.333" type="line"/>
      <point x="370" y="188.333" type="line" smooth="yes"/>
      <point x="370" y="118.497"/>
      <point x="326.958" y="72"/>
      <point x="262.333" y="72" type="curve" smooth="yes"/>
      <point x="197.293" y="72"/>
      <point x="158" y="115.825"/>
      <point x="158" y="188.333" type="curve" smooth="yes"/>
      <point x="158" y="523.333" type="line"/>
      <point x="69.667" y="523.333" type="line"/>
    </contour>
  </outline>
</glyph>
<glyph name="paragraph" format="2">
  <advance width="638"/>
  <unicode hex="00B6"/>
  <outline>
    <contour>
      <point x="270" y="-157.333" type="line"/>
      <point x="353.667" y="-157.333" type="line"/>
      <point x="353.667" y="628" type="line"/>
      <point x="443.667" y="628" type="line"/>
      <point x="443.667" y="-157.333" type="line"/>
      <point x="526" y="-157.333" type="line"/>
      <point x="526" y="707" type="line"/>
      <point x="300.333" y="707" type="line" smooth="yes"/>
      <point x="166.152" y="707"/>
      <point x="74.667" y="618.894"/>
      <point x="74.667" y="489.667" type="curve" smooth="yes"/>
      <point x="74.667" y="368.237"/>
      <point x="153.461" y="280.571"/>
      <point x="270" y="272.333" type="curve"/>
    </contour>
  </outline>
</glyph>
<glyph name="cedilla" format="2">
  <advance width="512"/>
  <unicode hex="00B8"/>
  <outline>
    <contour>
      <point x="182" y="-156" type="line"/>
      <point x="268.667" y="-156" type="line"/>
      <point x="323" y="12.333" type="line"/>
      <point x="248" y="12.333" type="line"/>
    </contour>
  </outline>
</glyph>
<glyph name="onesuperior" format="2">
  <advance width="238"/>
  <unicode hex="00B9"/>
  <outline>
    <contour>
      <point x="100.333" y="440" type="line"/>
      <point x="183" y="440" type="line"/>
      <point x="183" y="867.667" type="line"/>
      <point x="100.667" y="867.667" type="line"/>
      <point x="28" y="814" type="line"/>
      <point x="28" y="725.667" type="line"/>
      <point x="100.333" y="779.333" type="line"/>
    </contour>
  </outline>
</glyph>
<glyph name="ordmasculine" format="2">
  <advance width="346"/>
  <unicode hex="00BA"/>
  <outline>
    <contour>
      <point x="42.667" y="570.667" type="line" smooth="yes"/>
      <point x="42.667" y="483.345"/>
      <point x="88.616" y="436"/>
      <point x="173.333" y="436" type="curve" smooth="yes"/>
      <point x="258.101" y="436"/>
      <point x="303.667" y="483.082"/>
      <point x="303.667" y="570.667" type="curve" smooth="yes"/>
      <point x="303.667" y="631.667" type="line" smooth="yes"/>
      <point x="303.667" y="719.328"/>
      <point x="258.399" y="766"/>
      <point x="173.333" y="766" type="curve" smooth="yes"/>
      <point x="88.313" y="766"/>
      <point x="42.667" y="719.07"/>
      <point x="42.667" y="631.667" type="curve" smooth="yes"/>
    </contour>
    <contour>
      <point x="173" y="503.333" type="curve" smooth="yes"/>
      <point x="135.65" y="503.333"/>
      <point x="117" y="525.755"/>
      <point x="117" y="570.667" type="curve" smooth="yes"/>
      <point x="117" y="631.333" type="line" smooth="yes"/>
      <point x="117" y="676.448"/>
      <point x="135.847" y="699.333"/>
      <point x="173" y="699.333" type="curve" smooth="yes"/>
      <point x="210.153" y="699.333"/>
      <point x="229" y="676.448"/>
      <point x="229" y="631.333" type="curve" smooth="yes"/>
      <point x="229" y="570.667" type="line" smooth="yes"/>
      <point x="229" y="525.755"/>
      <point x="210.35" y="503.333"/>
    </contour>
  </outline>
</glyph>
<glyph name="onequarter" format="2">
  <advance width="732"/>
  <unicode hex="00BC"/>
  <outline>
    <contour>
      <point x="101.333" y="0" type="line"/>
      <point x="178" y="0" type="line"/>
      <point x="564.333" y="708.667" type="line"/>
      <point x="487.333" y="708.667" type="line"/>
    </contour>
    <contour>
      <point x="100.333" y="280" type="line"/>
      <point x="183" y="280" type="line"/>
      <point x="183" y="707.667" type="line"/>
      <point x="100.667" y="707.667" type="line"/>
      <point x="28" y="654" type="line"/>
      <point x="28" y="565.667" type="line"/>
      <point x="100.333" y="619.333" type="line"/>
    </contour>
    <contour>
      <point x="423" y="70.667" type="line"/>
      <point x="585.667" y="70.667" type="line"/>
      <point x="585.667" y="0" type="line"/>
      <point x="667.333" y="0" type="line"/>
      <point x="667.333" y="70.667" type="line"/>
      <point x="703.333" y="70.667" type="line"/>
      <point x="703.333" y="141.333" type="line"/>
      <point x="667.333" y="141.333" type="line"/>
      <point x="667.333" y="238.667" type="line"/>
      <point x="585.667" y="238.667" type="line"/>
      <point x="585.667" y="141.333" type="line"/>
      <point x="505.333" y="141.333" type="line"/>
      <point x="623.333" y="427.667" type="line"/>
      <point x="542" y="427.667" type="line"/>
      <point x="423" y="141.333" type="line"/>
    </contour>
  </outline>
</glyph>
<glyph name="onehalf" format="2">
  <advance width="764"/>
  <unicode hex="00BD"/>
  <outline>
    <contour>
      <point x="101.333" y="0" type="line"/>
      <point x="178" y="0" type="line"/>
      <point x="564.333" y="708.667" type="line"/>
      <point x="487.333" y="708.667" type="line"/>
    </contour>
    <contour>
      <point x="100.333" y="280" type="line"/>
      <point x="183" y="280" type="line"/>
      <point x="183" y="707.667" type="line"/>
      <point x="100.667" y="707.667" type="line"/>
      <point x="28" y="654" type="line"/>
      <point x="28" y="565.667" type="line"/>
      <point x="100.333" y="619.333" type="line"/>
    </contour>
    <contour>
      <point x="472.667" y="0" type="line"/>
      <point x="722" y="0" type="line"/>
      <point x="722" y="70.333" type="line"/>
      <point x="576.333" y="70.333" type="line"/>
      <point x="681" y="209.667" type="line" smooth="yes"/>
      <point x="705.153" y="241.62"/>
      <point x="721.299" y="268.42"/>
      <point x="721.299" y="310" type="curve" smooth="yes"/>
      <point x="721.299" y="315.181" type="line" smooth="yes"/>
      <point x="721.299" y="389.685"/>
      <point x="673.613" y="434.667"/>
      <point x="596.667" y="434.667" type="curve" smooth="yes"/>
      <point x="524.214" y="434.667"/>
      <point x="469.667" y="394.157"/>
      <point x="469.667" y="318" type="curve" smooth="yes"/>
      <point x="469.667" y="303" type="line"/>
      <point x="548.708" y="303" type="line"/>
      <point x="548.708" y="309.596" type="line" smooth="yes"/>
      <point x="548.708" y="339.253"/>
      <point x="556.494" y="367.333"/>
      <point x="593.667" y="367.333" type="curve" smooth="yes"/>
      <point x="623.216" y="367.333"/>
      <point x="638.297" y="345.812"/>
      <point x="638.297" y="318" type="curve" smooth="yes"/>
      <point x="638.297" y="312.664" type="line" smooth="yes"/>
      <point x="638.297" y="286.179"/>
      <point x="630.851" y="272.062"/>
      <point x="614" y="249.667" type="curve" smooth="yes"/>
      <point x="472.667" y="62.667" type="line"/>
    </contour>
  </outline>
</glyph>
<glyph name="threequarters" format="2">
  <advance width="839"/>
  <unicode hex="00BE"/>
  <outline>
    <contour>
      <point x="198" y="0" type="line"/>
      <point x="274" y="0" type="line"/>
      <point x="660.333" y="708.667" type="line"/>
      <point x="583.333" y="708.667" type="line"/>
    </contour>
    <contour>
      <point x="39.386" y="397.667" type="line"/>
      <point x="39.386" y="393.26" type="line" smooth="yes"/>
      <point x="39.386" y="312.604"/>
      <point x="81.735" y="273.333"/>
      <point x="164.7" y="273.333" type="curve" smooth="yes"/>
      <point x="237.924" y="273.333"/>
      <point x="291.905" y="321.172"/>
      <point x="291.905" y="396" type="curve" smooth="yes"/>
      <point x="291.905" y="408.041" type="line" smooth="yes"/>
      <point x="291.905" y="449.958"/>
      <point x="277.635" y="488.075"/>
      <point x="234.7" y="506.333" type="curve"/>
      <point x="267.232" y="523.435"/>
      <point x="285.562" y="555.876"/>
      <point x="285.562" y="592.333" type="curve" smooth="yes"/>
      <point x="285.562" y="602.785" type="line" smooth="yes"/>
      <point x="285.562" y="674.45"/>
      <point x="239.456" y="714.333"/>
      <point x="164.033" y="714.333" type="curve" smooth="yes"/>
      <point x="93.66" y="714.333"/>
      <point x="41.367" y="675.182"/>
      <point x="41.367" y="601.333" type="curve" smooth="yes"/>
      <point x="41.367" y="590" type="line"/>
      <point x="114.064" y="590" type="line"/>
      <point x="114.064" y="594.631" type="line" smooth="yes"/>
      <point x="114.064" y="625.707"/>
      <point x="124.772" y="647"/>
      <point x="161.367" y="647" type="curve" smooth="yes"/>
      <point x="192.421" y="647"/>
      <point x="206.581" y="623.657"/>
      <point x="206.581" y="595" type="curve" smooth="yes"/>
      <point x="206.581" y="585.681" type="line" smooth="yes"/>
      <point x="206.581" y="543.187"/>
      <point x="185.416" y="534.061"/>
      <point x="146.784" y="534.061" type="curve" smooth="yes"/>
      <point x="135.7" y="534.061" type="line"/>
      <point x="135.7" y="466.916" type="line"/>
      <point x="145.924" y="466.916" type="line" smooth="yes"/>
      <point x="185.038" y="466.916"/>
      <point x="213.618" y="454.988"/>
      <point x="213.618" y="407.667" type="curve" smooth="yes"/>
      <point x="213.618" y="399.064" type="line" smooth="yes"/>
      <point x="213.618" y="366.939"/>
      <point x="202.677" y="339.667"/>
      <point x="163.033" y="339.667" type="curve" smooth="yes"/>
      <point x="125.725" y="339.667"/>
      <point x="111.74" y="359.989"/>
      <point x="111.74" y="392.701" type="curve" smooth="yes"/>
      <point x="111.74" y="397.667" type="line"/>
    </contour>
    <contour>
      <point x="528" y="70.667" type="line"/>
      <point x="690.667" y="70.667" type="line"/>
      <point x="690.667" y="0" type="line"/>
      <point x="772.333" y="0" type="line"/>
      <point x="772.333" y="70.667" type="line"/>
      <point x="808.333" y="70.667" type="line"/>
      <point x="808.333" y="141.333" type="line"/>
      <point x="772.333" y="141.333" type="line"/>
      <point x="772.333" y="238.667" type="line"/>
      <point x="690.667" y="238.667" type="line"/>
      <point x="690.667" y="141.333" type="line"/>
      <point x="610.333" y="141.333" type="line"/>
      <point x="728.333" y="427.667" type="line"/>
      <point x="647" y="427.667" type="line"/>
      <point x="528" y="141.333" type="line"/>
    </contour>
  </outline>
</glyph>
<glyph name="questiondown" format="2">
  <advance width="446"/>
  <unicode hex="00BF"/>
  <outline>
    <contour>
      <point x="177.667" y="415.667" type="line"/>
      <point x="282.667" y="415.667" type="line"/>
      <point x="282.667" y="523.333" type="line"/>
      <point x="177.667" y="523.333" type="line"/>
    </contour>
    <contour>
      <point x="321.333" y="17.667" type="line"/>
      <point x="320.64" y="-49.895"/>
      <point x="290.278" y="-83.667"/>
      <point x="230.333" y="-83.667" type="curve" smooth="yes"/>
      <point x="171.031" y="-83.667"/>
      <point x="137.333" y="-50.204"/>
      <point x="137.333" y="8.667" type="curve" smooth="yes"/>
      <point x="137.333" y="49.356"/>
      <point x="154.126" y="83.384"/>
      <point x="201.083" y="137.539" type="curve" smooth="yes"/>
      <point x="216.223" y="155.161" type="line" smooth="yes"/>
      <point x="258.113" y="203.193"/>
      <point x="275.667" y="245.79"/>
      <point x="275.667" y="299.333" type="curve" smooth="yes"/>
      <point x="275.667" y="337" type="line"/>
      <point x="183.456" y="337" type="line"/>
      <point x="183.456" y="309.904" type="line" smooth="yes"/>
      <point x="183.456" y="261.952"/>
      <point x="176.197" y="239.208"/>
      <point x="152.199" y="211.855" type="curve" smooth="yes"/>
      <point x="136.368" y="193.957" type="line" smooth="yes"/>
      <point x="76.638" y="125.84"/>
      <point x="43.667" y="71.305"/>
      <point x="43.667" y="6.333" type="curve" smooth="yes"/>
      <point x="43.667" y="-98.005"/>
      <point x="117.029" y="-167.333"/>
      <point x="227.333" y="-167.333" type="curve" smooth="yes"/>
      <point x="346.209" y="-167.333"/>
      <point x="412" y="-101.421"/>
      <point x="412" y="17.667" type="curve"/>
    </contour>
  </outline>
</glyph>
<glyph name="multiply" format="2">
  <advance width="530"/>
  <unicode hex="00D7"/>
  <outline>
    <contour>
      <point x="110" y="132" type="line"/>
      <point x="181" y="143" type="line"/>
      <point x="305.667" y="186" type="line"/>
      <point x="415.667" y="128.333" type="line"/>
      <point x="405.667" y="199" type="line"/>
      <point x="362.333" y="324" type="line"/>
      <point x="420.333" y="434.333" type="line"/>
      <point x="349" y="423.667" type="line"/>
      <point x="224" y="380.333" type="line"/>
      <point x="114.333" y="438.667" type="line"/>
      <point x="125" y="367.667" type="line"/>
      <point x="168.333" y="243" type="line"/>
    </contour>
  </outline>
</glyph>
<glyph name="Oslash" format="2">
  <advance width="621"/>
  <unicode hex="00D8"/>
  <anchor x="307.333" y="774" name="top"/>
  <outline>
    <component base="O"/>
    <contour>
      <point x="62.333" y="-20" type="line"/>
      <point x="126.333" y="-20" type="line"/>
      <point x="559" y="728.667" type="line"/>
      <point x="495.333" y="728.667" type="line"/>
    </contour>
  </outline>
</glyph>
<glyph name="Thorn" format="2">
  <advance width="587"/>
  <unicode hex="00DE"/>
  <outline>
    <contour>
      <point x="74.667" y="0" type="line"/>
      <point x="169.667" y="0" type="line"/>
      <point x="169.667" y="159.667" type="line"/>
      <point x="325.667" y="159.667" type="line" smooth="yes"/>
      <point x="456.155" y="159.667"/>
      <point x="550.667" y="230.649"/>
      <point x="550.667" y="367.333" type="curve" smooth="yes"/>
      <point x="550.667" y="506.292"/>
      <point x="460.831" y="582"/>
      <point x="325.667" y="582" type="curve" smooth="yes"/>
      <point x="169.667" y="582" type="line"/>
      <point x="169.667" y="707" type="line"/>
      <point x="74.667" y="707" type="line"/>
    </contour>
    <contour>
      <point x="169.667" y="243" type="line"/>
      <point x="169.667" y="498.333" type="line"/>
      <point x="318.667" y="498.333" type="line" smooth="yes"/>
      <point x="404.627" y="498.333"/>
      <point x="456" y="455.822"/>
      <point x="456" y="367.333" type="curve" smooth="yes"/>
      <point x="456" y="280.55"/>
      <point x="400.495" y="243"/>
      <point x="318.667" y="243" type="curve" smooth="yes"/>
    </contour>
  </outline>
</glyph>
<glyph name="germandbls" format="2">
  <advance width="523"/>
  <unicode hex="00DF"/>
  <outline>
    <contour>
      <point x="69.667" y="0" type="line"/>
      <point x="158" y="0" type="line"/>
      <point x="158" y="525" type="line" smooth="yes"/>
      <point x="158" y="600.433"/>
      <point x="190.999" y="636"/>
      <point x="267" y="636" type="curve" smooth="yes"/>
      <point x="325.943" y="636"/>
      <point x="370.333" y="617.518"/>
      <point x="370.333" y="551.333" type="curve" smooth="yes"/>
      <point x="370.333" y="490.554"/>
      <point x="345.2" y="469.373"/>
      <point x="273.042" y="469.373" type="curve" smooth="yes"/>
      <point x="257.333" y="469.373" type="line"/>
      <point x="257.333" y="391.648" type="line"/>
      <point x="273.039" y="391.648" type="line" smooth="yes"/>
      <point x="357.412" y="391.648"/>
      <point x="379" y="359.121"/>
      <point x="379" y="232" type="curve" smooth="yes"/>
      <point x="379" y="110.561"/>
      <point x="356.121" y="73.223"/>
      <point x="281.466" y="73.223" type="curve" smooth="yes"/>
      <point x="258" y="73.223" type="line"/>
      <point x="258" y="-3.992" type="line"/>
      <point x="275.23" y="-3.992" type="line" smooth="yes"/>
      <point x="431.824" y="-3.992"/>
      <point x="468" y="40.383"/>
      <point x="468" y="231" type="curve" smooth="yes"/>
      <point x="468" y="354.106"/>
      <point x="447.689" y="402.271"/>
      <point x="395.667" y="434" type="curve"/>
      <point x="442.28" y="460.802"/>
      <point x="459.667" y="501.489"/>
      <point x="459.667" y="554" type="curve" smooth="yes"/>
      <point x="459.667" y="671.135"/>
      <point x="371.172" y="715"/>
      <point x="266" y="715" type="curve" smooth="yes"/>
      <point x="131.401" y="715"/>
      <point x="69.667" y="648.681"/>
      <point x="69.667" y="515.333" type="curve" smooth="yes"/>
    </contour>
  </outline>
</glyph>
<glyph name="divide" format="2">
  <advance width="530"/>
  <unicode hex="00F7"/>
  <outline>
    <contour>
      <point x="264.667" y="381" type="curve" smooth="yes"/>
      <point x="296.348" y="381"/>
      <point x="320.333" y="404.985"/>
      <point x="320.333" y="436.667" type="curve" smooth="yes"/>
      <point x="320.333" y="468.215"/>
      <point x="296.104" y="492"/>
      <point x="264.667" y="492" type="curve" smooth="yes"/>
      <point x="233.024" y="492"/>
      <point x="209.667" y="468.18"/>
      <point x="209.667" y="436.667" type="curve" smooth="yes"/>
      <point x="209.667" y="405.008"/>
      <point x="232.761" y="381"/>
    </contour>
    <contour>
      <point x="55" y="240.667" type="line"/>
      <point x="475" y="240.667" type="line"/>
      <point x="475" y="324.333" type="line"/>
      <point x="55" y="324.333" type="line"/>
    </contour>
    <contour>
      <point x="264.667" y="74.667" type="curve" smooth="yes"/>
      <point x="296.422" y="74.667"/>
      <point x="320.333" y="98.559"/>
      <point x="320.333" y="130.333" type="curve" smooth="yes"/>
      <point x="320.333" y="161.881"/>
      <point x="296.104" y="185.667"/>
      <point x="264.667" y="185.667" type="curve" smooth="yes"/>
      <point x="233.024" y="185.667"/>
      <point x="209.667" y="161.847"/>
      <point x="209.667" y="130.333" type="curve" smooth="yes"/>
      <point x="209.667" y="98.675"/>
      <point x="232.761" y="74.667"/>
    </contour>
  </outline>
</glyph>
<glyph name="oslash" format="2">
  <advance width="519"/>
  <unicode hex="00F8"/>
  <anchor x="260.667" y="591.333" name="top"/>
  <outline>
    <component base="o"/>
    <contour>
      <point x="55.333" y="-30.667" type="line"/>
      <point x="106.667" y="-30.667" type="line"/>
      <point x="463.333" y="550.333" type="line"/>
      <point x="412.333" y="550.333" type="line"/>
    </contour>
  </outline>
</glyph>
<glyph name="dcaron" format="2">
  <advance width="594"/>
  <unicode hex="010F"/>
  <outline>
    <component base="d"/>
    <contour>
      <point x="518.333" y="515.667" type="line"/>
      <point x="594.333" y="584" type="line"/>
      <point x="594.333" y="707" type="line"/>
      <point x="518.333" y="707" type="line"/>
    </contour>
  </outline>
</glyph>
<glyph name="Dcroat" format="2">
  <advance width="685"/>
  <unicode hex="0110"/>
  <outline>
    <component base="D" xScale="1" xOffset="50.667"/>
    <contour>
      <point x="39" y="400.333" type="line"/>
      <point x="39" y="316.333" type="line"/>
      <point x="356.333" y="316.333" type="line"/>
      <point x="356.333" y="400.333" type="line"/>
    </contour>
  </outline>
</glyph>
<glyph name="dcroat" format="2">
  <advance width="524"/>
  <unicode hex="0111"/>
  <outline>
    <component base="d"/>
    <contour>
      <point x="250.667" y="587.667" type="line"/>
      <point x="524" y="587.667" type="line"/>
      <point x="524" y="641.333" type="line"/>
      <point x="250.667" y="641.333" type="line"/>
    </contour>
  </outline>
</glyph>
<glyph name="gcommaaccent" format="2">
  <advance width="524"/>
  <unicode hex="0123"/>
  <outline>
    <component base="g"/>
    <contour>
      <point x="214.333" y="570.667" type="line"/>
      <point x="290.333" y="570.667" type="line"/>
      <point x="290.333" y="707" type="line"/>
      <point x="214.333" y="638.667" type="line"/>
    </contour>
  </outline>
</glyph>
<glyph name="Hbar" format="2">
  <advance width="637"/>
  <unicode hex="0126"/>
  <outline>
    <contour>
      <point x="30" y="506.333" type="line"/>
      <point x="605.333" y="506.333" type="line"/>
      <point x="605.333" y="590.333" type="line"/>
      <point x="30" y="590.333" type="line"/>
    </contour>
    <contour>
      <point x="149.307" y="318.333" type="line"/>
      <point x="488.027" y="318.333" type="line"/>
      <point x="488.027" y="402" type="line"/>
      <point x="149.307" y="402" type="line"/>
    </contour>
    <contour>
      <point x="467.667" y="0" type="line"/>
      <point x="562.333" y="0" type="line"/>
      <point x="562.333" y="707" type="line"/>
      <point x="467.667" y="707" type="line"/>
    </contour>
    <contour>
      <point x="74.667" y="0" type="line"/>
      <point x="169.667" y="0" type="line"/>
      <point x="169.667" y="707" type="line"/>
      <point x="74.667" y="707" type="line"/>
    </contour>
  </outline>
</glyph>
<glyph name="kgreenlandic" format="2">
  <advance width="514"/>
  <unicode hex="0138"/>
  <anchor x="222.667" y="773" name="top"/>
  <anchor x="250" y="-86" name="bottom"/>
  <outline>
    <contour>
      <point x="69.667" y="0" type="line"/>
      <point x="158" y="0" type="line"/>
      <point x="158" y="523.333" type="line"/>
      <point x="69.667" y="496.667" type="line"/>
    </contour>
    <contour>
      <point x="148.088" y="144.365" type="line"/>
      <point x="473" y="523.333" type="line"/>
      <point x="366.667" y="523.333" type="line"/>
      <point x="148.235" y="253.717" type="line"/>
    </contour>
    <contour>
      <point x="389" y="0" type="line"/>
      <point x="496.667" y="0" type="line"/>
      <point x="293.03" y="335.464" type="line"/>
      <point x="234.653" y="266.968" type="line"/>
    </contour>
  </outline>
</glyph>
<glyph name="Lcaron" format="2">
  <advance width="537"/>
  <unicode hex="013D"/>
  <outline>
    <component base="L"/>
    <contour>
      <point x="255" y="515.333" type="line"/>
      <point x="331" y="583.667" type="line"/>
      <point x="331" y="706.667" type="line"/>
      <point x="255" y="706.667" type="line"/>
    </contour>
  </outline>
</glyph>
<glyph name="lcaron" format="2">
  <advance width="306"/>
  <unicode hex="013E"/>
  <outline>
    <component base="l"/>
    <contour>
      <point x="218.333" y="515.667" type="line"/>
      <point x="294.333" y="584" type="line"/>
      <point x="294.333" y="707" type="line"/>
      <point x="218.333" y="707" type="line"/>
    </contour>
  </outline>
</glyph>
<glyph name="lslash" format="2">
  <advance width="284"/>
  <unicode hex="0142"/>
  <outline>
    <component base="l"/>
    <contour>
      <point x="11.667" y="326.667" type="line"/>
      <point x="233.333" y="418.667" type="line"/>
      <point x="233.333" y="495.333" type="line"/>
      <point x="11.667" y="403" type="line"/>
    </contour>
  </outline>
</glyph>
<glyph name="Eng" format="2">
  <advance width="668"/>
  <unicode hex="014A"/>
  <outline>
    <contour>
      <point x="74.667" y="0" type="line"/>
      <point x="169.667" y="0" type="line"/>
      <point x="169.667" y="526.333" type="line"/>
      <point x="499.644" y="0" type="line"/>
      <point x="499.674" y="-18.495" type="line" smooth="yes"/>
      <point x="499.77" y="-80.687"/>
      <point x="484.807" y="-94.334"/>
      <point x="418.042" y="-94.334" type="curve" smooth="yes"/>
      <point x="403" y="-94.334" type="line"/>
      <point x="403" y="-173" type="line"/>
      <point x="455" y="-173" type="line" smooth="yes"/>
      <point x="550.324" y="-173"/>
      <point x="594.333" y="-116.272"/>
      <point x="594.333" y="-24.667" type="curve" smooth="yes"/>
      <point x="594.333" y="707" type="line"/>
      <point x="499.667" y="707" type="line"/>
      <point x="499.667" y="180.667" type="line"/>
      <point x="169.667" y="707" type="line"/>
      <point x="74.667" y="707" type="line"/>
    </contour>
  </outline>
</glyph>
<glyph name="eng" format="2">
  <advance width="533"/>
  <unicode hex="014B"/>
  <outline>
    <contour>
      <point x="69.667" y="0" type="line"/>
      <point x="158" y="0" type="line"/>
      <point x="158" y="331.333" type="line" smooth="yes"/>
      <point x="158" y="399.713"/>
      <point x="195.7" y="450.667"/>
      <point x="267.667" y="450.667" type="curve" smooth="yes"/>
      <point x="341.373" y="450.667"/>
      <point x="375.333" y="400.483"/>
      <point x="375.333" y="331.333" type="curve" smooth="yes"/>
      <point x="375.333" y="0" type="line" smooth="yes"/>
      <point x="375.333" y="-71.058"/>
      <point x="352.994" y="-94.193"/>
      <point x="288.311" y="-94.193" type="curve" smooth="yes"/>
      <point x="274.333" y="-94.193" type="line"/>
      <point x="274.333" y="-173" type="line"/>
      <point x="326.333" y="-173" type="line" smooth="yes"/>
      <point x="423.33" y="-173"/>
      <point x="465.017" y="-113.857"/>
      <point x="465" y="0" type="curve"/>
      <point x="465" y="343" type="line" smooth="yes"/>
      <point x="465" y="453.173"/>
      <point x="407.51" y="529.667"/>
      <point x="292.333" y="529.667" type="curve" smooth="yes"/>
      <point x="238.27" y="529.667"/>
      <point x="188.423" y="510.197"/>
      <point x="156.333" y="465.333" type="curve"/>
      <point x="156.333" y="523.333" type="line"/>
      <point x="69.667" y="523.333" type="line"/>
    </contour>
  </outline>
</glyph>
<glyph name="OE" format="2">
  <advance width="906"/>
  <unicode hex="0152"/>
  <outline>
    <contour>
      <point x="467.667" y="0" type="line"/>
      <point x="862" y="0" type="line"/>
      <point x="862" y="84.333" type="line"/>
      <point x="558.667" y="84.333" type="line"/>
      <point x="558.667" y="316.667" type="line"/>
      <point x="812" y="316.667" type="line"/>
      <point x="812" y="400.333" type="line"/>
      <point x="558.667" y="400.333" type="line"/>
      <point x="558.667" y="622.667" type="line"/>
      <point x="862" y="622.667" type="line"/>
      <point x="862" y="707" type="line"/>
      <point x="467.667" y="707" type="line"/>
      <point x="467.667" y="663.333" type="line"/>
      <point x="422.853" y="701.797"/>
      <point x="364.878" y="716.333"/>
      <point x="306.667" y="716.333" type="curve" smooth="yes"/>
      <point x="132.509" y="716.333"/>
      <point x="62.333" y="603.218"/>
      <point x="62.333" y="441.667" type="curve" smooth="yes"/>
      <point x="62.333" y="265.667" type="line" smooth="yes"/>
      <point x="62.333" y="102.827"/>
      <point x="130.069" y="-8"/>
      <point x="305.667" y="-8" type="curve" smooth="yes"/>
      <point x="363.964" y="-8"/>
      <point x="422.397" y="5.802"/>
      <point x="467.667" y="44" type="curve"/>
    </contour>
    <contour>
      <point x="311.333" y="77.333" type="curve" smooth="yes"/>
      <point x="192.226" y="77.333"/>
      <point x="156.667" y="156.787"/>
      <point x="156.667" y="263.667" type="curve" smooth="yes"/>
      <point x="156.667" y="437.333" type="line" smooth="yes"/>
      <point x="156.667" y="546.732"/>
      <point x="186.285" y="631.667"/>
      <point x="311.333" y="631.667" type="curve" smooth="yes"/>
      <point x="431.825" y="631.667"/>
      <point x="464.333" y="542.993"/>
      <point x="464.333" y="437.333" type="curve" smooth="yes"/>
      <point x="464.333" y="263.667" type="line" smooth="yes"/>
      <point x="464.333" y="158.432"/>
      <point x="428.7" y="77.333"/>
    </contour>
  </outline>
</glyph>
<glyph name="Rcommaaccent" format="2">
  <advance width="613"/>
  <unicode hex="0156"/>
  <outline>
    <contour>
      <point x="74.667" y="0" type="line"/>
      <point x="169.667" y="0" type="line"/>
      <point x="169.667" y="302.333" type="line"/>
      <point x="316.333" y="302.333" type="line"/>
      <point x="467" y="0" type="line"/>
      <point x="576" y="0" type="line"/>
      <point x="414" y="313.667" type="line"/>
      <point x="505.826" y="338.284"/>
      <point x="556.333" y="409.808"/>
      <point x="556.333" y="504" type="curve" smooth="yes"/>
      <point x="556.333" y="636.421"/>
      <point x="466.244" y="707"/>
      <point x="339" y="707" type="curve" smooth="yes"/>
      <point x="74.667" y="707" type="line"/>
    </contour>
    <contour>
      <point x="169.667" y="382.667" type="line"/>
      <point x="169.667" y="622.667" type="line"/>
      <point x="332.667" y="622.667" type="line" smooth="yes"/>
      <point x="409.521" y="622.667"/>
      <point x="461.667" y="583.869"/>
      <point x="461.667" y="503.333" type="curve" smooth="yes"/>
      <point x="461.667" y="422.868"/>
      <point x="410.016" y="382.667"/>
      <point x="332.667" y="382.667" type="curve" smooth="yes"/>
    </contour>
    <contour>
      <point x="268.333" y="-173" type="line"/>
      <point x="344.333" y="-104.667" type="line"/>
      <point x="344.333" y="-36.667" type="line"/>
      <point x="268.333" y="-36.667" type="line"/>
    </contour>
  </outline>
</glyph>
<glyph name="rcommaaccent" format="2">
  <advance width="352"/>
  <unicode hex="0157"/>
  <outline>
    <contour>
      <point x="69.667" y="0" type="line"/>
      <point x="158" y="0" type="line"/>
      <point x="158" y="325.667" type="line" smooth="yes"/>
      <point x="158" y="394.72"/>
      <point x="199.284" y="452"/>
      <point x="272.333" y="452" type="curve" smooth="yes"/>
      <point x="291.434" y="452"/>
      <point x="310.492" y="448.826"/>
      <point x="328.667" y="443" type="curve"/>
      <point x="328.667" y="528.667" type="line"/>
      <point x="315.815" y="531.059"/>
      <point x="302.731" y="532"/>
      <point x="289.667" y="532" type="curve" smooth="yes"/>
      <point x="235.888" y="532"/>
      <point x="182.778" y="507.362"/>
      <point x="156.333" y="459" type="curve"/>
      <point x="156.333" y="523.333" type="line"/>
      <point x="69.667" y="523.333" type="line"/>
    </contour>
    <contour>
      <point x="76.667" y="-173" type="line"/>
      <point x="152.667" y="-104.667" type="line"/>
      <point x="152.667" y="-36.667" type="line"/>
      <point x="76.667" y="-36.667" type="line"/>
    </contour>
  </outline>
</glyph>
<glyph name="tcaron" format="2">
  <advance width="352"/>
  <unicode hex="0165"/>
  <outline>
    <component base="t"/>
    <contour>
      <point x="257.667" y="547" type="line"/>
      <point x="333.667" y="615.333" type="line"/>
      <point x="333.667" y="738.333" type="line"/>
      <point x="257.667" y="738.333" type="line"/>
    </contour>
  </outline>
</glyph>
<glyph name="Tbar" format="2">
  <advance width="498"/>
  <unicode hex="0166"/>
  <outline>
    <component base="T"/>
    <contour>
      <point x="112.667" y="297.333" type="line"/>
      <point x="386" y="297.333" type="line"/>
      <point x="386" y="377.667" type="line"/>
      <point x="112.667" y="377.667" type="line"/>
    </contour>
  </outline>
</glyph>
<glyph name="tbar" format="2">
  <advance width="352"/>
  <unicode hex="0167"/>
  <outline>
    <component base="t"/>
    <contour>
      <point x="32" y="297.333" type="line"/>
      <point x="311.333" y="297.333" type="line"/>
      <point x="311.333" y="363.667" type="line"/>
      <point x="32" y="363.667" type="line"/>
    </contour>
  </outline>
</glyph>
<glyph name="longs" format="2">
  <advance width="297"/>
  <unicode hex="017F"/>
  <anchor x="136.333" y="774" name="top"/>
  <outline>
    <contour>
      <point x="69.667" y="0" type="line"/>
      <point x="158.333" y="0" type="line"/>
      <point x="158.333" y="457" type="line"/>
      <point x="262.667" y="457" type="line"/>
      <point x="262.667" y="523.333" type="line"/>
      <point x="158.333" y="523.333" type="line"/>
      <point x="158.333" y="545" type="line" smooth="yes"/>
      <point x="158.333" y="620.017"/>
      <point x="172.468" y="640.9"/>
      <point x="246.934" y="640.9" type="curve" smooth="yes"/>
      <point x="262.667" y="640.9" type="line"/>
      <point x="262.667" y="707" type="line"/>
      <point x="202.333" y="707" type="line" smooth="yes"/>
      <point x="119.112" y="707"/>
      <point x="69.667" y="656.117"/>
      <point x="69.667" y="573.333" type="curve" smooth="yes"/>
    </contour>
  </outline>
</glyph>
<glyph name="Schwa" format="2">
  <advance width="616"/>
  <unicode hex="018F"/>
  <outline>
    <contour>
      <point x="151.951" y="489" type="line"/>
      <point x="151.951" y="493.843" type="line" smooth="yes"/>
      <point x="151.951" y="583.788"/>
      <point x="213.164" y="631"/>
      <point x="301.276" y="631" type="curve" smooth="yes"/>
      <point x="419.912" y="631"/>
      <point x="459.609" y="552.257"/>
      <point x="459.609" y="444.666" type="curve" smooth="yes"/>
      <point x="459.609" y="271" type="line" smooth="yes"/>
      <point x="459.609" y="162.366"/>
      <point x="425.984" y="76.6663"/>
      <point x="302.609" y="76.6663" type="curve" smooth="yes"/>
      <point x="208.498" y="76.6663"/>
      <point x="151.997" y="141.762"/>
      <point x="151.997" y="250.211" type="curve" smooth="yes"/>
      <point x="151.997" y="387.039" type="line"/>
      <point x="57.333" y="387.039" type="line"/>
      <point x="57.333" y="249.114" type="line" smooth="yes"/>
      <point x="57.333" y="84.3633"/>
      <point x="143.004" y="-7.99967"/>
      <point x="302.276" y="-7.99967" type="curve" smooth="yes"/>
      <point x="478.733" y="-7.99967"/>
      <point x="553.943" y="99.2903"/>
      <point x="553.943" y="266.666" type="curve" smooth="yes"/>
      <point x="553.943" y="442.666" type="line" smooth="yes"/>
      <point x="553.943" y="609.478"/>
      <point x="478.702" y="716.333"/>
      <point x="302.943" y="716.333" type="curve" smooth="yes"/>
      <point x="163.297" y="716.333"/>
      <point x="59.276" y="641.272"/>
      <point x="59.276" y="494" type="curve" smooth="yes"/>
      <point x="59.276" y="489" type="line"/>
    </contour>
    <contour>
      <point x="84.637" y="387.024" type="line"/>
      <point x="84.637" y="303.357" type="line"/>
      <point x="481.336" y="303.357" type="line"/>
      <point x="481.336" y="387.024" type="line"/>
    </contour>
  </outline>
</glyph>
<glyph name="florin" format="2">
  <advance width="420"/>
  <unicode hex="0192"/>
  <outline>
    <contour>
      <point x="11.667" y="-157.256" type="line"/>
      <point x="39.364" y="-157.256" type="line" smooth="yes"/>
      <point x="153.167" y="-157.256"/>
      <point x="195.024" y="-114.377"/>
      <point x="212.333" y="1.667" type="curve" smooth="yes"/>
      <point x="263.333" y="343.667" type="line"/>
      <point x="381.333" y="343.667" type="line"/>
      <point x="381.333" y="424.333" type="line"/>
      <point x="275.333" y="424.333" type="line"/>
      <point x="294.667" y="546.333" type="line" smooth="yes"/>
      <point x="303.875" y="604.375"/>
      <point x="324.946" y="622.653"/>
      <point x="386.988" y="622.653" type="curve" smooth="yes"/>
      <point x="408" y="622.653" type="line"/>
      <point x="408" y="707" type="line"/>
      <point x="369.333" y="707" type="line" smooth="yes"/>
      <point x="268.421" y="707"/>
      <point x="219.449" y="648.165"/>
      <point x="204.018" y="548.88" type="curve" smooth="yes"/>
      <point x="184.667" y="424.333" type="line"/>
      <point x="88" y="424.333" type="line"/>
      <point x="88" y="343.667" type="line"/>
      <point x="172.667" y="343.667" type="line"/>
      <point x="122.667" y="5.667" type="line" smooth="yes"/>
      <point x="113.04" y="-59.436"/>
      <point x="86.551" y="-71.943"/>
      <point x="26.074" y="-71.943" type="curve" smooth="yes"/>
      <point x="11.667" y="-71.943" type="line"/>
    </contour>
  </outline>
</glyph>
<glyph name="lbar" format="2">
  <advance width="284"/>
  <unicode hex="019A"/>
  <outline>
    <component base="l"/>
    <contour>
      <point x="16.667" y="313" type="line"/>
      <point x="258.667" y="313" type="line"/>
      <point x="258.667" y="397" type="line"/>
      <point x="16.667" y="397" type="line"/>
    </contour>
  </outline>
</glyph>
<glyph name="Ocenteredtilde" format="2">
  <advance width="621"/>
  <unicode hex="019F"/>
  <outline>
    <component base="O"/>
    <contour>
      <point x="135.667" y="313" type="line"/>
      <point x="484.333" y="313" type="line"/>
      <point x="484.333" y="397" type="line"/>
      <point x="135.667" y="397" type="line"/>
    </contour>
  </outline>
</glyph>
<glyph name="kcaron" format="2">
  <advance width="514"/>
  <unicode hex="01E9"/>
  <outline>
    <contour>
      <point x="69.667" y="0" type="line"/>
      <point x="158" y="0" type="line"/>
      <point x="158" y="156" type="line"/>
      <point x="242.333" y="253.667" type="line"/>
      <point x="389" y="0" type="line"/>
      <point x="496.667" y="0" type="line"/>
      <point x="301" y="322.333" type="line"/>
      <point x="473" y="523.333" type="line"/>
      <point x="366.667" y="523.333" type="line"/>
      <point x="158" y="265.667" type="line"/>
      <point x="158" y="707" type="line"/>
      <point x="69.667" y="707" type="line"/>
    </contour>
    <contour>
      <point x="79.333" y="766.333" type="line"/>
      <point x="148.333" y="766.333" type="line"/>
      <point x="260.333" y="915.667" type="line"/>
      <point x="185.333" y="915.667" type="line"/>
      <point x="114.333" y="824.333" type="line"/>
      <point x="42.667" y="915.667" type="line"/>
      <point x="-32.667" y="915.667" type="line"/>
    </contour>
  </outline>
</glyph>
<glyph name="dotlessj" format="2">
  <advance width="236"/>
  <unicode hex="0237"/>
  <anchor x="115" y="591.333" name="top"/>
  <outline>
    <contour>
      <point x="-32" y="-157.333" type="line"/>
      <point x="20.667" y="-157.333" type="line" smooth="yes"/>
      <point x="114.382" y="-157.333"/>
      <point x="159.333" y="-102.922"/>
      <point x="159.333" y="-12" type="curve" smooth="yes"/>
      <point x="159.333" y="523.333" type="line"/>
      <point x="71.333" y="523.333" type="line"/>
      <point x="71.333" y="-6.667" type="line" smooth="yes"/>
      <point x="71.333" y="-62.541"/>
      <point x="53.764" y="-78.077"/>
      <point x="-9.746" y="-78.077" type="curve" smooth="yes"/>
      <point x="-32" y="-78.077" type="line"/>
    </contour>
  </outline>
</glyph>
<glyph name="Lbar" format="2">
  <advance width="537"/>
  <unicode hex="023D"/>
  <outline>
    <component base="L"/>
    <contour>
      <point x="16.667" y="359.667" type="line"/>
      <point x="298.667" y="359.667" type="line"/>
      <point x="298.667" y="443.667" type="line"/>
      <point x="16.667" y="443.667" type="line"/>
    </contour>
  </outline>
</glyph>
<glyph name="obarred" format="2">
  <advance width="519"/>
  <unicode hex="0275"/>
  <outline>
    <component base="o"/>
    <contour>
      <point x="123.333" y="222" type="line"/>
      <point x="405.333" y="222" type="line"/>
      <point x="405.333" y="306" type="line"/>
      <point x="123.333" y="306" type="line"/>
    </contour>
  </outline>
</glyph>
<glyph name="breve" format="2">
  <advance width="512"/>
  <unicode hex="02D8"/>
  <outline>
    <contour>
      <point x="119.667" y="734.667" type="line"/>
      <point x="119.672" y="720.67" type="line" smooth="yes"/>
      <point x="119.759" y="632.109"/>
      <point x="161.248" y="575"/>
      <point x="255" y="575" type="curve" smooth="yes"/>
      <point x="345.544" y="575"/>
      <point x="390.333" y="630.385"/>
      <point x="390.333" y="718" type="curve" smooth="yes"/>
      <point x="390.333" y="734.667" type="line"/>
      <point x="319.991" y="734.667" type="line"/>
      <point x="319.991" y="730.169" type="line" smooth="yes"/>
      <point x="319.991" y="682.095"/>
      <point x="309.941" y="639"/>
      <point x="255" y="639" type="curve" smooth="yes"/>
      <point x="197.18" y="639"/>
      <point x="189.79" y="682.867"/>
      <point x="189.982" y="730.15" type="curve"/>
      <point x="190" y="734.667" type="line"/>
    </contour>
  </outline>
</glyph>
<glyph name="ring" format="2">
  <advance width="512"/>
  <unicode hex="02DA"/>
  <outline>
    <contour>
      <point x="220" y="613.333" type="curve" smooth="yes"/>
      <point x="255.825" y="593.625"/>
      <point x="297.438" y="604.79"/>
      <point x="317.333" y="641" type="curve" smooth="yes"/>
      <point x="337.321" y="677.21"/>
      <point x="326.158" y="718.679"/>
      <point x="290.333" y="738.667" type="curve" smooth="yes"/>
      <point x="254.583" y="759.267"/>
      <point x="213.549" y="747.802"/>
      <point x="193.333" y="711.667" type="curve" smooth="yes"/>
      <point x="173.221" y="675.531"/>
      <point x="184.249" y="633.635"/>
    </contour>
    <contour>
      <point x="255.333" y="623" type="curve" smooth="yes"/>
      <point x="227.163" y="623"/>
      <point x="204.333" y="646.727"/>
      <point x="204.333" y="676" type="curve" smooth="yes"/>
      <point x="204.333" y="706.493"/>
      <point x="226.182" y="729.333"/>
      <point x="255.333" y="729.333" type="curve" smooth="yes"/>
      <point x="284.284" y="729.333"/>
      <point x="306.667" y="706.079"/>
      <point x="306.667" y="676" type="curve" smooth="yes"/>
      <point x="306.667" y="646.649"/>
      <point x="283.757" y="623"/>
    </contour>
  </outline>
</glyph>
<glyph name="ogonek" format="2">
  <advance width="309"/>
  <unicode hex="02DB"/>
  <outline>
    <contour>
      <point x="60" y="-102" type="line"/>
      <point x="88.714" y="-186.406"/>
      <point x="164.835" y="-220.333"/>
      <point x="248.667" y="-220.333" type="curve"/>
      <point x="248.667" y="-149.333" type="line"/>
      <point x="204.692" y="-149.333"/>
      <point x="166.421" y="-142.565"/>
      <point x="140" y="-108" type="curve"/>
      <point x="248.667" y="-1.667" type="line"/>
      <point x="248.667" y="4.333" type="line"/>
      <point x="178" y="4.333" type="line"/>
    </contour>
  </outline>
</glyph>
<glyph name="tilde" format="2">
  <advance width="512"/>
  <unicode hex="02DC"/>
  <outline>
    <contour>
      <point x="123" y="587.333" type="line"/>
      <point x="152.95" y="617.371"/>
      <point x="170.879" y="627.333"/>
      <point x="195" y="627.333" type="curve" smooth="yes"/>
      <point x="234.842" y="627.333"/>
      <point x="263.918" y="588.333"/>
      <point x="313" y="588.333" type="curve" smooth="yes"/>
      <point x="339.296" y="588.333"/>
      <point x="362.224" y="600.572"/>
      <point x="388" y="628.333" type="curve"/>
      <point x="388" y="700.667" type="line"/>
      <point x="360.432" y="670.967"/>
      <point x="341.716" y="660.333"/>
      <point x="317" y="660.333" type="curve" smooth="yes"/>
      <point x="277.29" y="660.333"/>
      <point x="244.076" y="700"/>
      <point x="198" y="700" type="curve" smooth="yes"/>
      <point x="170.144" y="700"/>
      <point x="150.152" y="689.141"/>
      <point x="123" y="659.333" type="curve"/>
    </contour>
  </outline>
</glyph>
<glyph name="hungarumlaut" format="2">
  <advance width="512"/>
  <unicode hex="02DD"/>
  <outline>
    <contour>
      <point x="226.333" y="591.333" type="line"/>
      <point x="306.333" y="591.333" type="line"/>
      <point x="434.667" y="722" type="line"/>
      <point x="330.667" y="722" type="line"/>
    </contour>
    <contour>
      <point x="199.667" y="591.333" type="line"/>
      <point x="279.667" y="591.333" type="line"/>
      <point x="408" y="722" type="line"/>
      <point x="304" y="722" type="line"/>
    </contour>
  </outline>
</glyph>
<glyph name="uni0300" format="2">
  <unicode hex="0300"/>
  <anchor x="0" y="591.333" name="_top"/>
  <outline>
    <contour>
      <point x="-15.333" y="591.333" type="line"/>
      <point x="64.667" y="591.333" type="line"/>
      <point x="-39.667" y="722" type="line"/>
      <point x="-143.667" y="722" type="line"/>
    </contour>
  </outline>
</glyph>
<glyph name="uni0301" format="2">
  <unicode hex="0301"/>
  <anchor x="0" y="591.333" name="_top"/>
  <outline>
    <contour>
      <point x="-82.833" y="591.333" type="line"/>
      <point x="-2.833" y="591.333" type="line"/>
      <point x="125.5" y="722" type="line"/>
      <point x="21.5" y="722" type="line"/>
    </contour>
  </outline>
</glyph>
<glyph name="uni0303" format="2">
  <unicode hex="0303"/>
  <anchor x="0" y="591.333" name="_top"/>
  <outline>
    <contour>
      <point x="-132.5" y="587.333" type="line"/>
      <point x="-102.55" y="617.371"/>
      <point x="-84.621" y="627.333"/>
      <point x="-60.5" y="627.333" type="curve" smooth="yes"/>
      <point x="-20.658" y="627.333"/>
      <point x="8.418" y="588.333"/>
      <point x="57.5" y="588.333" type="curve" smooth="yes"/>
      <point x="83.795" y="588.333"/>
      <point x="106.724" y="600.572"/>
      <point x="132.5" y="628.333" type="curve"/>
      <point x="132.5" y="700.667" type="line"/>
      <point x="104.931" y="670.967"/>
      <point x="86.216" y="660.333"/>
      <point x="61.5" y="660.333" type="curve" smooth="yes"/>
      <point x="21.79" y="660.333"/>
      <point x="-11.424" y="700"/>
      <point x="-57.5" y="700" type="curve" smooth="yes"/>
      <point x="-85.357" y="700"/>
      <point x="-105.349" y="689.141"/>
      <point x="-132.5" y="659.333" type="curve"/>
    </contour>
  </outline>
</glyph>
<glyph name="uni0307" format="2">
  <unicode hex="0307"/>
  <anchor x="0" y="591.333" name="_top"/>
  <outline>
    <contour>
      <point x="-47" y="606" type="line"/>
      <point x="47" y="606" type="line"/>
      <point x="47" y="701.333" type="line"/>
      <point x="-47" y="701.333" type="line"/>
    </contour>
  </outline>
</glyph>
<glyph name="uni030B" format="2">
  <unicode hex="030B"/>
  <anchor x="0" y="591.333" name="_top"/>
  <outline>
    <contour>
      <point x="-124.333" y="591.333" type="line"/>
      <point x="-44.333" y="591.333" type="line"/>
      <point x="84" y="722" type="line"/>
      <point x="-20" y="722" type="line"/>
    </contour>
    <contour>
      <point x="35.667" y="591.333" type="line"/>
      <point x="115.667" y="591.333" type="line"/>
      <point x="244" y="722" type="line"/>
      <point x="140" y="722" type="line"/>
    </contour>
  </outline>
</glyph>
<glyph name="uni030C" format="2">
  <unicode hex="030C"/>
  <anchor x="0" y="591.333" name="_top"/>
  <outline>
    <contour>
      <point x="-34.5" y="579.333" type="line"/>
      <point x="34.5" y="579.333" type="line"/>
      <point x="146.5" y="728.667" type="line"/>
      <point x="71.5" y="728.667" type="line"/>
      <point x="0.5" y="637.333" type="line"/>
      <point x="-71.167" y="728.667" type="line"/>
      <point x="-146.5" y="728.667" type="line"/>
    </contour>
  </outline>
</glyph>
<glyph name="uni030F" format="2">
  <unicode hex="030F"/>
  <anchor x="0" y="590.667" name="_top"/>
  <outline>
    <contour>
      <point x="-86.6966" y="591.333" type="line"/>
      <point x="-6.6966" y="591.333" type="line"/>
      <point x="-111.031" y="722" type="line"/>
      <point x="-215.031" y="722" type="line"/>
    </contour>
    <contour>
      <point x="68.7717" y="591.333" type="line"/>
      <point x="148.772" y="591.333" type="line"/>
      <point x="44.4377" y="722" type="line"/>
      <point x="-59.5623" y="722" type="line"/>
    </contour>
  </outline>
</glyph>
<glyph name="uni0312" format="2">
  <unicode hex="0312"/>
  <outline>
    <contour>
      <point x="-83" y="591.333" type="line"/>
      <point x="21.333" y="591.333" type="line"/>
      <point x="126" y="722" type="line"/>
      <point x="46.333" y="722" type="line"/>
    </contour>
  </outline>
</glyph>
<glyph name="uni0323" format="2">
  <unicode hex="0323"/>
  <anchor x="0" y="-86" name="_bottom"/>
  <anchor x="0" y="-133.667" name="_dot"/>
  <outline>
    <contour>
      <point x="-46.333" y="-181.333" type="line"/>
      <point x="47.667" y="-181.333" type="line"/>
      <point x="47.667" y="-86" type="line"/>
      <point x="-46.333" y="-86" type="line"/>
    </contour>
  </outline>
</glyph>
<glyph name="uni0326" format="2">
  <unicode hex="0326"/>
  <anchor x="0" y="-36.667" name="_bottom"/>
  <outline>
    <contour>
      <point x="-38" y="-173" type="line"/>
      <point x="38" y="-104.667" type="line"/>
      <point x="38" y="-36.667" type="line"/>
      <point x="-38" y="-36.667" type="line"/>
    </contour>
  </outline>
</glyph>
<glyph name="alpha" format="2">
  <advance width="644"/>
  <unicode hex="03B1"/>
  <outline>
    <contour>
      <point x="584.667" y="91.333" type="line"/>
      <point x="505.712" y="92.076"/>
      <point x="479" y="146.159"/>
      <point x="479" y="218.333" type="curve" smooth="yes"/>
      <point x="479" y="305.667" type="line" smooth="yes"/>
      <point x="479" y="378.277"/>
      <point x="505.504" y="431.257"/>
      <point x="584.667" y="432" type="curve"/>
      <point x="584.667" y="509" type="line"/>
      <point x="522.527" y="509.006"/>
      <point x="474.388" y="490.393"/>
      <point x="434.333" y="442.667" type="curve"/>
      <point x="398.372" y="505.909"/>
      <point x="330.886" y="530.333"/>
      <point x="260.667" y="530.333" type="curve" smooth="yes"/>
      <point x="121.706" y="530.333"/>
      <point x="55.333" y="448.109"/>
      <point x="55.333" y="314" type="curve" smooth="yes"/>
      <point x="55.333" y="210.333" type="line" smooth="yes"/>
      <point x="55.333" y="75.765"/>
      <point x="121.32" y="-6"/>
      <point x="260.667" y="-6" type="curve" smooth="yes"/>
      <point x="329.479" y="-6"/>
      <point x="400.145" y="18.122"/>
      <point x="434.333" y="81.667" type="curve"/>
      <point x="470.411" y="33.464"/>
      <point x="526.177" y="15.327"/>
      <point x="584.667" y="15.333" type="curve"/>
    </contour>
    <contour>
      <point x="260.667" y="72.667" type="curve" smooth="yes"/>
      <point x="171.271" y="72.667"/>
      <point x="144" y="133.389"/>
      <point x="144" y="213.333" type="curve" smooth="yes"/>
      <point x="144" y="310.667" type="line" smooth="yes"/>
      <point x="144" y="391.277"/>
      <point x="170.945" y="450.667"/>
      <point x="260.667" y="450.667" type="curve" smooth="yes"/>
      <point x="344.213" y="450.667"/>
      <point x="384.667" y="389.043"/>
      <point x="384.667" y="310.667" type="curve" smooth="yes"/>
      <point x="384.667" y="213.333" type="line" smooth="yes"/>
      <point x="384.667" y="135.592"/>
      <point x="343.874" y="72.667"/>
    </contour>
  </outline>
</glyph>
<glyph name="Djecyr" format="2">
  <advance width="715"/>
  <unicode hex="0402"/>
  <anchor x="248.667" y="-86" name="bottom"/>
  <anchor x="231.5" y="774" name="top"/>
  <anchor x="220" y="0" name="b.cedilla"/>
  <outline>
    <contour>
      <point x="202" y="0" type="line"/>
      <point x="296.667" y="0" type="line"/>
      <point x="296.667" y="622.667" type="line"/>
      <point x="490.667" y="622.667" type="line"/>
      <point x="490.667" y="707" type="line"/>
      <point x="7.333" y="707" type="line"/>
      <point x="7.333" y="622.667" type="line"/>
      <point x="202" y="622.667" type="line"/>
    </contour>
    <contour>
      <point x="385.476" y="0" type="line"/>
      <point x="428.667" y="0" type="line" smooth="yes"/>
      <point x="569.844" y="0"/>
      <point x="653.667" y="80.109"/>
      <point x="653.667" y="215" type="curve" smooth="yes"/>
      <point x="653.667" y="343.265"/>
      <point x="567.422" y="423"/>
      <point x="428.667" y="423" type="curve" smooth="yes"/>
      <point x="245.82" y="423" type="line"/>
      <point x="245.82" y="339" type="line"/>
      <point x="422.333" y="339" type="line" smooth="yes"/>
      <point x="510.304" y="339"/>
      <point x="559" y="294.777"/>
      <point x="559" y="215" type="curve" smooth="yes"/>
      <point x="559" y="129.66"/>
      <point x="511.703" y="84.718"/>
      <point x="422.333" y="84.333" type="curve" smooth="yes"/>
      <point x="385.476" y="84.181" type="line"/>
    </contour>
  </outline>
</glyph>
<glyph name="Eukrcyr" format="2">
  <advance width="616"/>
  <unicode hex="0404"/>
  <anchor x="312.333" y="774" name="top"/>
  <outline>
    <contour>
      <point x="464.325" y="219.333" type="line"/>
      <point x="464.325" y="214.49" type="line" smooth="yes"/>
      <point x="464.325" y="124.545"/>
      <point x="403.112" y="77.333"/>
      <point x="315" y="77.333" type="curve" smooth="yes"/>
      <point x="196.364" y="77.333"/>
      <point x="156.667" y="156.076"/>
      <point x="156.667" y="263.667" type="curve" smooth="yes"/>
      <point x="156.667" y="437.333" type="line" smooth="yes"/>
      <point x="156.667" y="545.967"/>
      <point x="190.292" y="631.667"/>
      <point x="313.667" y="631.667" type="curve" smooth="yes"/>
      <point x="399.919" y="631.667"/>
      <point x="464.279" y="585.67"/>
      <point x="464.279" y="498.122" type="curve" smooth="yes"/>
      <point x="464.279" y="489.667" type="line"/>
      <point x="558.943" y="489.667" type="line"/>
      <point x="558.943" y="499.219" type="line" smooth="yes"/>
      <point x="558.943" y="640.635"/>
      <point x="451.589" y="716.333"/>
      <point x="314" y="716.333" type="curve" smooth="yes"/>
      <point x="137.543" y="716.333"/>
      <point x="62.333" y="609.043"/>
      <point x="62.333" y="441.667" type="curve" smooth="yes"/>
      <point x="62.333" y="265.667" type="line" smooth="yes"/>
      <point x="62.333" y="98.855"/>
      <point x="137.574" y="-8"/>
      <point x="313.333" y="-8" type="curve" smooth="yes"/>
      <point x="452.979" y="-8"/>
      <point x="557" y="67.061"/>
      <point x="557" y="214.333" type="curve" smooth="yes"/>
      <point x="557" y="219.333" type="line"/>
    </contour>
    <contour>
      <point x="375.166" y="317.976" type="line"/>
      <point x="134.94" y="317.976" type="line"/>
      <point x="134.94" y="401.642" type="line"/>
      <point x="375.166" y="401.642" type="line"/>
    </contour>
  </outline>
</glyph>
<glyph name="Ljecyr" format="2">
  <advance width="936"/>
  <unicode hex="0409"/>
  <outline>
    <component base="Elcyr"/>
    <contour>
      <point x="466.154" y="0" type="line"/>
      <point x="649" y="0" type="line" smooth="yes"/>
      <point x="790.178" y="0"/>
      <point x="874" y="80.109"/>
      <point x="874" y="215" type="curve" smooth="yes"/>
      <point x="874" y="343.265"/>
      <point x="787.755" y="423"/>
      <point x="649" y="423" type="curve" smooth="yes"/>
      <point x="466.154" y="423" type="line"/>
      <point x="466.154" y="339" type="line"/>
      <point x="642.667" y="339" type="line" smooth="yes"/>
      <point x="730.638" y="339"/>
      <point x="779.334" y="294.777"/>
      <point x="779.334" y="215" type="curve" smooth="yes"/>
      <point x="779.334" y="129.66"/>
      <point x="732.038" y="84.412"/>
      <point x="642.667" y="84.333" type="curve" smooth="yes"/>
      <point x="466.154" y="84.181" type="line"/>
    </contour>
  </outline>
</glyph>
<glyph name="Njecyr" format="2">
  <advance width="989"/>
  <unicode hex="040A"/>
  <outline>
    <component base="H"/>
    <contour>
      <point x="519.487" y="0" type="line"/>
      <point x="702.333" y="0" type="line" smooth="yes"/>
      <point x="843.511" y="0"/>
      <point x="927.333" y="80.109"/>
      <point x="927.333" y="215" type="curve" smooth="yes"/>
      <point x="927.333" y="343.265"/>
      <point x="841.088" y="423"/>
      <point x="702.333" y="423" type="curve" smooth="yes"/>
      <point x="519.487" y="423" type="line"/>
      <point x="519.487" y="339" type="line"/>
      <point x="696" y="339" type="line" smooth="yes"/>
      <point x="783.971" y="339"/>
      <point x="832.667" y="294.777"/>
      <point x="832.667" y="215" type="curve" smooth="yes"/>
      <point x="832.667" y="129.66"/>
      <point x="785.371" y="84.412"/>
      <point x="696" y="84.333" type="curve" smooth="yes"/>
      <point x="519.487" y="84.181" type="line"/>
    </contour>
  </outline>
</glyph>
<glyph name="Tshecyr" format="2">
  <advance width="739"/>
  <unicode hex="040B"/>
  <outline>
    <contour>
      <point x="202" y="0" type="line"/>
      <point x="296.667" y="0" type="line"/>
      <point x="296.667" y="622.667" type="line"/>
      <point x="490.667" y="622.667" type="line"/>
      <point x="490.667" y="707" type="line"/>
      <point x="7.333" y="707" type="line"/>
      <point x="7.333" y="622.667" type="line"/>
      <point x="202" y="622.667" type="line"/>
    </contour>
    <contour>
      <point x="677.333" y="0" type="line"/>
      <point x="677.333" y="215" type="line" smooth="yes"/>
      <point x="677.333" y="343.265"/>
      <point x="591.088" y="443"/>
      <point x="452.333" y="443" type="curve" smooth="yes"/>
      <point x="400.982" y="443"/>
      <point x="348.075" y="438"/>
      <point x="296.724" y="423" type="curve"/>
      <point x="269.487" y="423" type="line"/>
      <point x="269.487" y="339" type="line"/>
      <point x="296.724" y="339" type="line"/>
      <point x="345.985" y="354"/>
      <point x="396.739" y="359"/>
      <point x="446" y="359" type="curve" smooth="yes"/>
      <point x="533.971" y="359"/>
      <point x="582.667" y="294.777"/>
      <point x="582.667" y="215" type="curve" smooth="yes"/>
      <point x="582.667" y="-0.237" type="line"/>
    </contour>
  </outline>
</glyph>
<glyph name="Dzhecyr" format="2">
  <advance width="608"/>
  <unicode hex="040F"/>
  <outline>
    <contour>
      <point x="256.667" y="-170" type="line"/>
      <point x="351.333" y="-170" type="line"/>
      <point x="351.333" y="83.667" type="line"/>
      <point x="256.667" y="83.667" type="line"/>
    </contour>
    <contour>
      <point x="130.333" y="0" type="line"/>
      <point x="487" y="0" type="line"/>
      <point x="487" y="83.667" type="line"/>
      <point x="130.333" y="83.667" type="line"/>
    </contour>
    <contour>
      <point x="438.666" y="0" type="line"/>
      <point x="533.333" y="0" type="line"/>
      <point x="533.333" y="707" type="line"/>
      <point x="438.666" y="707" type="line"/>
    </contour>
    <contour>
      <point x="74.667" y="0" type="line"/>
      <point x="169.333" y="0" type="line"/>
      <point x="169.333" y="707" type="line"/>
      <point x="74.667" y="707" type="line"/>
    </contour>
  </outline>
</glyph>
<glyph name="Gecyr" format="2">
  <advance width="547"/>
  <unicode hex="0413"/>
  <anchor x="312" y="774" name="top"/>
  <outline>
    <contour>
      <point x="149.487" y="623.333" type="line"/>
      <point x="510.333" y="623.333" type="line"/>
      <point x="510.333" y="707" type="line"/>
      <point x="149.487" y="707" type="line"/>
    </contour>
    <contour>
      <point x="74.667" y="0" type="line"/>
      <point x="169.667" y="0" type="line"/>
      <point x="169.667" y="707.143" type="line"/>
      <point x="74.667" y="707" type="line"/>
    </contour>
  </outline>
</glyph>
<glyph name="Decyr" format="2">
  <advance width="668"/>
  <unicode hex="0414"/>
  <outline>
    <contour>
      <point x="378.99" y="-0.123" type="line"/>
      <point x="562.74" y="-0.123" type="line"/>
      <point x="562.74" y="-169.94" type="line"/>
      <point x="657.407" y="-169.94" type="line"/>
      <point x="657.407" y="83.753" type="line"/>
      <point x="378.99" y="83.54" type="line"/>
    </contour>
    <contour>
      <point x="50.867" y="0" type="line"/>
      <point x="166.881" y="0"/>
      <point x="243.529" y="213.556"/>
      <point x="258.553" y="543.364" type="curve"/>
      <point x="267" y="707" type="line"/>
      <point x="172.333" y="707" type="line"/>
      <point x="163.62" y="545.021" type="line" smooth="yes"/>
      <point x="148.247" y="239.52"/>
      <point x="104.392" y="83.648"/>
      <point x="50.993" y="83.603" type="curve"/>
    </contour>
    <contour>
      <point x="486.333" y="0" type="line"/>
      <point x="581" y="0" type="line"/>
      <point x="581" y="707" type="line"/>
      <point x="486.333" y="707" type="line"/>
    </contour>
    <contour>
      <point x="206.667" y="623.333" type="line"/>
      <point x="534.667" y="623.333" type="line"/>
      <point x="534.667" y="707" type="line"/>
      <point x="206.667" y="707" type="line"/>
    </contour>
    <contour>
      <point x="192.137" y="-0.125" type="line"/>
      <point x="398.669" y="-0.125" type="line"/>
      <point x="398.669" y="83.54" type="line"/>
      <point x="192.137" y="83.54" type="line"/>
    </contour>
    <contour>
      <point x="10.207" y="-169.94" type="line"/>
      <point x="104.873" y="-169.94" type="line"/>
      <point x="104.873" y="-0.123" type="line"/>
      <point x="211.855" y="-0.123" type="line"/>
      <point x="211.855" y="83.54" type="line"/>
      <point x="10.207" y="83.647" type="line"/>
    </contour>
  </outline>
</glyph>
<glyph name="Zhecyr" format="2">
  <advance width="993"/>
  <unicode hex="0416"/>
  <outline>
    <contour>
      <point x="523.64" y="318.333" type="line"/>
      <point x="689.506" y="318.333" type="line"/>
      <point x="689.506" y="402" type="line"/>
      <point x="523.64" y="402" type="line"/>
    </contour>
    <contour>
      <point x="449" y="0" type="line"/>
      <point x="544" y="0" type="line"/>
      <point x="544" y="707" type="line"/>
      <point x="449" y="707" type="line"/>
    </contour>
    <contour>
      <point x="873.333" y="0" type="line"/>
      <point x="983" y="0" type="line"/>
      <point x="689.506" y="402" type="line"/>
      <point x="628.988" y="327.086" type="line"/>
    </contour>
    <contour>
      <point x="585.986" y="328.985" type="line"/>
      <point x="651.214" y="328.948" type="line"/>
      <point x="955.667" y="707" type="line"/>
      <point x="842.667" y="707" type="line"/>
      <point x="585.959" y="375.793" type="line"/>
    </contour>
    <contour>
      <point x="303.494" y="318.333" type="line"/>
      <point x="469.36" y="318.333" type="line"/>
      <point x="469.36" y="402" type="line"/>
      <point x="303.494" y="402" type="line"/>
    </contour>
    <contour>
      <point x="449" y="0" type="line"/>
      <point x="544" y="0" type="line"/>
      <point x="544" y="707" type="line"/>
      <point x="449" y="707" type="line"/>
    </contour>
    <contour>
      <point x="10" y="0" type="line"/>
      <point x="119.667" y="0" type="line"/>
      <point x="364.012" y="327.086" type="line"/>
      <point x="303.494" y="402" type="line"/>
    </contour>
    <contour>
      <point x="341.786" y="328.948" type="line"/>
      <point x="407.014" y="328.985" type="line"/>
      <point x="407.041" y="375.793" type="line"/>
      <point x="150.333" y="707" type="line"/>
      <point x="37.333" y="707" type="line"/>
    </contour>
  </outline>
</glyph>
<glyph name="Zecyr" format="2">
  <advance width="617"/>
  <unicode hex="0417"/>
  <outline>
    <contour>
      <point x="75.588" y="192.331" type="line"/>
      <point x="75.588" y="184.505" type="line" smooth="yes"/>
      <point x="75.588" y="67.951"/>
      <point x="172.354" y="-8"/>
      <point x="315.002" y="-8" type="curve" smooth="yes"/>
      <point x="444.852" y="-8"/>
      <point x="555.667" y="60.422"/>
      <point x="555.667" y="193" type="curve" smooth="yes"/>
      <point x="555.667" y="207.333" type="line" smooth="yes"/>
      <point x="555.667" y="279.415"/>
      <point x="514.183" y="339.782"/>
      <point x="443" y="364" type="curve"/>
      <point x="504.88" y="387.128"/>
      <point x="545.333" y="446"/>
      <point x="545.333" y="511" type="curve" smooth="yes"/>
      <point x="545.333" y="520.667" type="line" smooth="yes"/>
      <point x="545.333" y="651.099"/>
      <point x="442.852" y="716.333"/>
      <point x="316.522" y="716.333" type="curve" smooth="yes"/>
      <point x="172.151" y="716.333"/>
      <point x="75.512" y="641.361"/>
      <point x="75.512" y="522.897" type="curve" smooth="yes"/>
      <point x="75.512" y="515.849" type="line"/>
      <point x="170.554" y="515.847" type="line"/>
      <point x="170.554" y="522.897" type="line" smooth="yes"/>
      <point x="170.554" y="590.072"/>
      <point x="228.674" y="632.667"/>
      <point x="309.79" y="632.667" type="curve" smooth="yes"/>
      <point x="392.597" y="632.667"/>
      <point x="450.333" y="593.404"/>
      <point x="450.333" y="515.333" type="curve" smooth="yes"/>
      <point x="450.333" y="508" type="line" smooth="yes"/>
      <point x="450.333" y="434.695"/>
      <point x="391.139" y="402"/>
      <point x="317.453" y="402" type="curve" smooth="yes"/>
      <point x="224.457" y="402" type="line"/>
      <point x="224.457" y="319" type="line"/>
      <point x="324.151" y="319" type="line" smooth="yes"/>
      <point x="404.736" y="319"/>
      <point x="461" y="281.339"/>
      <point x="461" y="199.333" type="curve" smooth="yes"/>
      <point x="461" y="188.667" type="line" smooth="yes"/>
      <point x="461" y="112.71"/>
      <point x="392.154" y="75.667"/>
      <point x="313.247" y="75.667" type="curve" smooth="yes"/>
      <point x="229.715" y="75.667"/>
      <point x="170.609" y="119.243"/>
      <point x="170.609" y="185.505" type="curve" smooth="yes"/>
      <point x="170.609" y="192.333" type="line"/>
    </contour>
  </outline>
</glyph>
<glyph name="Icyr" format="2">
  <advance width="669"/>
  <unicode hex="0418"/>
  <anchor x="320.333" y="774" name="top"/>
  <outline>
    <contour>
      <point x="74.667" y="0" type="line"/>
      <point x="169.333" y="0" type="line"/>
      <point x="468.385" y="485.949" type="line" smooth="yes"/>
      <point x="482.89" y="509.513"/>
      <point x="494.716" y="533.48"/>
      <point x="502.521" y="552.912" type="curve"/>
      <point x="506.408" y="552.912" type="line"/>
      <point x="500.771" y="512.699"/>
      <point x="499.333" y="479.148"/>
      <point x="499.333" y="439.179" type="curve" smooth="yes"/>
      <point x="499.333" y="0" type="line"/>
      <point x="594.333" y="0" type="line"/>
      <point x="594.333" y="707" type="line"/>
      <point x="499.333" y="707" type="line"/>
      <point x="199.919" y="220.471" type="line" smooth="yes"/>
      <point x="186.529" y="198.612"/>
      <point x="174.426" y="177.988"/>
      <point x="164.994" y="158.777" type="curve"/>
      <point x="160.994" y="158.744" type="line"/>
      <point x="167.593" y="197.393"/>
      <point x="169.333" y="233.634"/>
      <point x="169.333" y="274.036" type="curve" smooth="yes"/>
      <point x="169.333" y="707" type="line"/>
      <point x="74.667" y="707" type="line"/>
    </contour>
  </outline>
</glyph>
<glyph name="Kacyr" format="2">
  <advance width="616"/>
  <unicode hex="041A"/>
  <anchor x="291" y="774" name="top"/>
  <outline>
    <contour>
      <point x="149.307" y="318.333" type="line"/>
      <point x="315.173" y="318.333" type="line"/>
      <point x="315.173" y="402" type="line"/>
      <point x="149.307" y="402" type="line"/>
    </contour>
    <contour>
      <point x="74.667" y="0" type="line"/>
      <point x="169.667" y="0" type="line"/>
      <point x="169.667" y="707" type="line"/>
      <point x="74.667" y="707" type="line"/>
    </contour>
    <contour>
      <point x="499" y="0" type="line"/>
      <point x="608.667" y="0" type="line"/>
      <point x="315.173" y="402" type="line"/>
      <point x="254.655" y="327.086" type="line"/>
    </contour>
    <contour>
      <point x="211.653" y="328.985" type="line"/>
      <point x="276.88" y="328.948" type="line"/>
      <point x="581.333" y="707" type="line"/>
      <point x="468.333" y="707" type="line"/>
      <point x="211.626" y="375.793" type="line"/>
    </contour>
  </outline>
</glyph>
<glyph name="Elcyr" format="2">
  <advance width="585"/>
  <unicode hex="041B"/>
  <outline>
    <contour>
      <point x="416" y="0" type="line"/>
      <point x="510.667" y="0" type="line"/>
      <point x="510.667" y="707" type="line"/>
      <point x="416" y="707" type="line"/>
    </contour>
    <contour>
      <point x="20.263" y="-8" type="line"/>
      <point x="114.079" y="-8"/>
      <point x="162.515" y="59.254"/>
      <point x="173.097" y="204.104" type="curve" smooth="yes"/>
      <point x="210" y="707" type="line"/>
      <point x="115.333" y="707" type="line"/>
      <point x="78.139" y="237.45" type="line" smooth="yes"/>
      <point x="69.184" y="124.18"/>
      <point x="53.969" y="83.64"/>
      <point x="20.263" y="83.603" type="curve"/>
    </contour>
    <contour>
      <point x="136.333" y="623.333" type="line"/>
      <point x="464.333" y="623.333" type="line"/>
      <point x="464.333" y="707" type="line"/>
      <point x="136.333" y="707" type="line"/>
    </contour>
  </outline>
</glyph>
<glyph name="Pecyr" format="2">
  <advance width="628"/>
  <unicode hex="041F"/>
  <outline>
    <contour>
      <point x="149.487" y="623.333" type="line"/>
      <point x="510.333" y="623.333" type="line"/>
      <point x="510.333" y="707" type="line"/>
      <point x="149.487" y="707" type="line"/>
    </contour>
    <contour>
      <point x="74.667" y="0" type="line"/>
      <point x="169.667" y="0" type="line"/>
      <point x="169.667" y="707.143" type="line"/>
      <point x="74.667" y="707" type="line"/>
    </contour>
    <contour>
      <point x="458.667" y="-0.143" type="line"/>
      <point x="553.667" y="-0.143" type="line"/>
      <point x="553.667" y="707" type="line"/>
      <point x="458.667" y="706.857" type="line"/>
    </contour>
  </outline>
</glyph>
<glyph name="Ucyr" format="2">
  <advance width="525"/>
  <unicode hex="0423"/>
  <anchor x="255" y="774" name="top"/>
  <outline>
    <contour>
      <point x="84.852" y="-8" type="line"/>
      <point x="125.147" y="-8" type="line" smooth="yes"/>
      <point x="190.188" y="-8"/>
      <point x="243.755" y="34.511"/>
      <point x="274.24" y="109.456" type="curve" smooth="yes"/>
      <point x="519.333" y="707" type="line"/>
      <point x="416" y="707" type="line"/>
      <point x="229.871" y="255.8" type="line"/>
      <point x="228.79" y="242.636" type="line"/>
      <point x="189.505" y="144.147" type="line" smooth="yes"/>
      <point x="173.628" y="103.674"/>
      <point x="143.816" y="81.033"/>
      <point x="106.487" y="80.556" type="curve" smooth="yes"/>
      <point x="84.852" y="80.333" type="line"/>
    </contour>
    <contour>
      <point x="208.173" y="182.23" type="line"/>
      <point x="265.189" y="287.362" type="line"/>
      <point x="109" y="707" type="line"/>
      <point x="6" y="707" type="line"/>
    </contour>
  </outline>
</glyph>
<glyph name="Efcyr" format="2">
  <advance width="693"/>
  <unicode hex="0424"/>
  <anchor x="327.667" y="774" name="top"/>
  <outline>
    <contour>
      <point x="309.333" y="154" type="line"/>
      <point x="208" y="154"/>
      <point x="156.667" y="217"/>
      <point x="156.667" y="340" type="curve" smooth="yes"/>
      <point x="156.667" y="377" type="line" smooth="yes"/>
      <point x="156.667" y="507.333"/>
      <point x="207.667" y="571"/>
      <point x="309.333" y="571" type="curve"/>
      <point x="309.333" y="656.333" type="line"/>
      <point x="148" y="656.333"/>
      <point x="62.333" y="559.667"/>
      <point x="62.333" y="381.333" type="curve" smooth="yes"/>
      <point x="62.333" y="342" type="line" smooth="yes"/>
      <point x="62.333" y="164.667"/>
      <point x="149.333" y="68.667"/>
      <point x="309.333" y="68.667" type="curve"/>
    </contour>
    <contour>
      <point x="299.333" y="0" type="line"/>
      <point x="394" y="0" type="line"/>
      <point x="394" y="707" type="line"/>
      <point x="299.333" y="707" type="line"/>
    </contour>
    <contour>
      <point x="384" y="68.667" type="line"/>
      <point x="545.333" y="68.667"/>
      <point x="631" y="165.333"/>
      <point x="631" y="343.667" type="curve" smooth="yes"/>
      <point x="631" y="383" type="line" smooth="yes"/>
      <point x="631" y="560.333"/>
      <point x="544" y="656.333"/>
      <point x="384" y="656.333" type="curve"/>
      <point x="384" y="571" type="line"/>
      <point x="485.333" y="571"/>
      <point x="536.667" y="508"/>
      <point x="536.667" y="385" type="curve" smooth="yes"/>
      <point x="536.667" y="348" type="line" smooth="yes"/>
      <point x="536.667" y="217.667"/>
      <point x="485.667" y="154"/>
      <point x="384" y="154" type="curve"/>
    </contour>
  </outline>
</glyph>
<glyph name="Tsecyr" format="2">
  <advance width="620"/>
  <unicode hex="0426"/>
  <outline>
    <contour>
      <point x="438.333" y="0" type="line"/>
      <point x="533" y="0" type="line"/>
      <point x="533" y="707" type="line"/>
      <point x="438.333" y="707" type="line"/>
    </contour>
    <contour>
      <point x="144.137" y="-0.125" type="line"/>
      <point x="350.669" y="-0.125" type="line"/>
      <point x="350.669" y="83.54" type="line"/>
      <point x="144.137" y="83.54" type="line"/>
    </contour>
    <contour>
      <point x="74.667" y="0" type="line"/>
      <point x="169.333" y="0" type="line"/>
      <point x="169.333" y="707" type="line"/>
      <point x="74.667" y="707" type="line"/>
    </contour>
    <contour>
      <point x="330.99" y="-0.123" type="line"/>
      <point x="514.74" y="-0.123" type="line"/>
      <point x="514.74" y="-169.94" type="line"/>
      <point x="609.407" y="-169.94" type="line"/>
      <point x="609.407" y="83.753" type="line"/>
      <point x="330.99" y="83.54" type="line"/>
    </contour>
  </outline>
</glyph>
<glyph name="Checyr" format="2">
  <advance width="641"/>
  <unicode hex="0427"/>
  <outline>
    <contour>
      <point x="472" y="353.228" type="line"/>
      <point x="439.309" y="322.873"/>
      <point x="388.467" y="308.831"/>
      <point x="320.333" y="308.831" type="curve" smooth="yes"/>
      <point x="226.765" y="308.831"/>
      <point x="169" y="373.075"/>
      <point x="169" y="469.165" type="curve" smooth="yes"/>
      <point x="169" y="707" type="line"/>
      <point x="73.333" y="707" type="line"/>
      <point x="73.333" y="462.831" type="line" smooth="yes"/>
      <point x="73.333" y="319.637"/>
      <point x="171.095" y="225.831"/>
      <point x="320.333" y="225.831" type="curve" smooth="yes"/>
      <point x="406.95" y="225.831"/>
      <point x="466.073" y="243.438"/>
      <point x="509.535" y="282.274" type="curve"/>
      <point x="509.535" y="353.504" type="line"/>
    </contour>
    <contour>
      <point x="470.667" y="0" type="line"/>
      <point x="566" y="0" type="line"/>
      <point x="566" y="707" type="line"/>
      <point x="470.667" y="707" type="line"/>
    </contour>
  </outline>
</glyph>
<glyph name="Shacyr" format="2">
  <advance width="835"/>
  <unicode hex="0428"/>
  <anchor x="677" y="695" name="top"/>
  <outline>
    <contour>
      <point x="74.6663" y="0" type="line"/>
      <point x="170" y="0" type="line"/>
      <point x="170" y="707" type="line"/>
      <point x="74.6663" y="707" type="line"/>
    </contour>
    <contour>
      <point x="370.14" y="0" type="line"/>
      <point x="465.473" y="0" type="line"/>
      <point x="465.473" y="707" type="line"/>
      <point x="370.14" y="707" type="line"/>
    </contour>
    <contour>
      <point x="665.333" y="0" type="line"/>
      <point x="760.667" y="0" type="line"/>
      <point x="760.667" y="707" type="line"/>
      <point x="665.333" y="707" type="line"/>
    </contour>
    <contour>
      <point x="103.804" y="-0.125" type="line"/>
      <point x="745.21" y="-0.125" type="line"/>
      <point x="745.21" y="83.54" type="line"/>
      <point x="103.804" y="83.54" type="line"/>
    </contour>
  </outline>
</glyph>
<glyph name="Shchacyr" format="2">
  <advance width="868"/>
  <unicode hex="0429"/>
  <outline>
    <contour>
      <point x="74.6663" y="0" type="line"/>
      <point x="170" y="0" type="line"/>
      <point x="170" y="707" type="line"/>
      <point x="74.6663" y="707" type="line"/>
    </contour>
    <contour>
      <point x="370.14" y="0" type="line"/>
      <point x="465.473" y="0" type="line"/>
      <point x="465.473" y="707" type="line"/>
      <point x="370.14" y="707" type="line"/>
    </contour>
    <contour>
      <point x="665.333" y="0" type="line"/>
      <point x="760.667" y="0" type="line"/>
      <point x="760.667" y="707" type="line"/>
      <point x="665.333" y="707" type="line"/>
    </contour>
    <contour>
      <point x="103.804" y="-0.125" type="line"/>
      <point x="745.21" y="-0.125" type="line"/>
      <point x="745.21" y="83.54" type="line"/>
      <point x="103.804" y="83.54" type="line"/>
    </contour>
    <contour>
      <point x="579.473" y="-0.336096" type="line"/>
      <point x="763.223" y="-0.336096" type="line"/>
      <point x="763.223" y="-170.153" type="line"/>
      <point x="857.89" y="-170.153" type="line"/>
      <point x="857.89" y="83.5399" type="line"/>
      <point x="579.473" y="83.3269" type="line"/>
    </contour>
  </outline>
</glyph>
<glyph name="Hardcyr" format="2">
  <advance width="719"/>
  <unicode hex="042A"/>
  <outline>
    <contour>
      <point x="249.487" y="0" type="line"/>
      <point x="432.333" y="0" type="line" smooth="yes"/>
      <point x="573.511" y="0"/>
      <point x="657.333" y="80.109"/>
      <point x="657.333" y="215" type="curve" smooth="yes"/>
      <point x="657.333" y="343.265"/>
      <point x="571.088" y="423"/>
      <point x="432.333" y="423" type="curve" smooth="yes"/>
      <point x="249.487" y="423" type="line"/>
      <point x="249.487" y="339" type="line"/>
      <point x="426" y="339" type="line" smooth="yes"/>
      <point x="513.971" y="339"/>
      <point x="562.667" y="294.777"/>
      <point x="562.667" y="215" type="curve" smooth="yes"/>
      <point x="562.667" y="129.66"/>
      <point x="515.371" y="84.412"/>
      <point x="426" y="84.333" type="curve" smooth="yes"/>
      <point x="249.487" y="84.181" type="line"/>
    </contour>
    <contour>
      <point x="174.667" y="0" type="line"/>
      <point x="269.667" y="-0.004" type="line"/>
      <point x="269.667" y="707" type="line"/>
      <point x="174.667" y="707" type="line"/>
    </contour>
    <contour>
      <point x="0" y="623.333" type="line"/>
      <point x="260" y="623.333" type="line"/>
      <point x="260" y="707" type="line"/>
      <point x="0" y="707" type="line"/>
    </contour>
  </outline>
</glyph>
<glyph name="Softcyr" format="2">
  <advance width="619"/>
  <unicode hex="042C"/>
  <anchor x="298.667" y="774" name="top"/>
  <outline>
    <contour>
      <point x="149.487" y="0" type="line"/>
      <point x="332.333" y="0" type="line" smooth="yes"/>
      <point x="473.511" y="0"/>
      <point x="557.333" y="80.109"/>
      <point x="557.333" y="215" type="curve" smooth="yes"/>
      <point x="557.333" y="343.265"/>
      <point x="471.088" y="423"/>
      <point x="332.333" y="423" type="curve" smooth="yes"/>
      <point x="149.487" y="423" type="line"/>
      <point x="149.487" y="339" type="line"/>
      <point x="326" y="339" type="line" smooth="yes"/>
      <point x="413.971" y="339"/>
      <point x="462.667" y="294.777"/>
      <point x="462.667" y="215" type="curve" smooth="yes"/>
      <point x="462.667" y="129.66"/>
      <point x="415.371" y="84.412"/>
      <point x="326" y="84.333" type="curve" smooth="yes"/>
      <point x="149.487" y="84.181" type="line"/>
    </contour>
    <contour>
      <point x="74.667" y="0" type="line"/>
      <point x="169.667" y="-0.004" type="line"/>
      <point x="169.667" y="707" type="line"/>
      <point x="74.667" y="707" type="line"/>
    </contour>
  </outline>
</glyph>
<glyph name="Ereversedcyr" format="2">
  <advance width="616"/>
  <unicode hex="042D"/>
  <anchor x="302" y="774" name="top"/>
  <outline>
    <component base="C" xScale="-1" xOffset="616.276"/>
    <contour>
      <point x="241.11" y="317.976" type="line"/>
      <point x="481.336" y="317.976" type="line"/>
      <point x="481.336" y="401.642" type="line"/>
      <point x="241.11" y="401.642" type="line"/>
    </contour>
  </outline>
</glyph>
<glyph name="Yucyr" format="2">
  <advance width="807"/>
  <unicode hex="042E"/>
  <anchor x="440" y="774" name="top"/>
  <outline>
    <component base="O" xScale="1" xOffset="186.667"/>
    <contour>
      <point x="149.307" y="318.333" type="line"/>
      <point x="303.15" y="318.333" type="line"/>
      <point x="303.15" y="402" type="line"/>
      <point x="149.307" y="402" type="line"/>
    </contour>
    <contour>
      <point x="74.667" y="0" type="line"/>
      <point x="169.667" y="0" type="line"/>
      <point x="169.667" y="707" type="line"/>
      <point x="74.667" y="707" type="line"/>
    </contour>
  </outline>
</glyph>
<glyph name="becyr" format="2">
  <advance width="510"/>
  <unicode hex="0431"/>
  <outline>
    <contour>
      <point x="254.523" y="-6" type="curve" smooth="yes"/>
      <point x="381.429" y="-6"/>
      <point x="455" y="90.038"/>
      <point x="455" y="209.581" type="curve" smooth="yes"/>
      <point x="455" y="271.088" type="line" smooth="yes"/>
      <point x="455" y="386.106"/>
      <point x="407.348" y="486"/>
      <point x="278.856" y="486" type="curve" smooth="yes"/>
      <point x="223.242" y="486"/>
      <point x="182.263" y="469.734"/>
      <point x="147.92" y="433.471" type="curve"/>
      <point x="56.288" y="433.369" type="line"/>
      <point x="56.636" y="236.164" type="line" smooth="yes"/>
      <point x="56.887" y="88.401"/>
      <point x="113.636" y="-6"/>
    </contour>
    <contour>
      <point x="255.14" y="72.667" type="curve" smooth="yes"/>
      <point x="172.701" y="72.667"/>
      <point x="144.333" y="139.949"/>
      <point x="144.333" y="214.256" type="curve" smooth="yes"/>
      <point x="144.333" y="262.738" type="line" smooth="yes"/>
      <point x="144.333" y="336.692"/>
      <point x="175.358" y="407"/>
      <point x="259.223" y="407" type="curve" smooth="yes"/>
      <point x="342.969" y="407"/>
      <point x="366" y="338.818"/>
      <point x="366" y="266.748" type="curve" smooth="yes"/>
      <point x="366" y="213.587" type="line" smooth="yes"/>
      <point x="366" y="143.333"/>
      <point x="338.071" y="72.667"/>
    </contour>
    <contour>
      <point x="56.391" y="386.464" type="line"/>
      <point x="144.667" y="386.865" type="line"/>
      <point x="144.667" y="443.618" type="line" smooth="yes"/>
      <point x="144.667" y="615.788"/>
      <point x="285.022" y="570.458"/>
      <point x="384.459" y="614.902" type="curve"/>
      <point x="384.459" y="707" type="line"/>
      <point x="242.389" y="631.569"/>
      <point x="56.025" y="708.149"/>
      <point x="56.333" y="439.521" type="curve"/>
    </contour>
  </outline>
</glyph>
<glyph name="vecyr" format="2">
  <advance width="533"/>
  <unicode hex="0432"/>
  <outline>
    <contour>
      <point x="138.333" y="0" type="line"/>
      <point x="299.333" y="0" type="line" smooth="yes"/>
      <point x="407" y="0"/>
      <point x="464.333" y="52.333"/>
      <point x="464.333" y="150" type="curve" smooth="yes"/>
      <point x="464.333" y="215.333"/>
      <point x="438.333" y="266.667"/>
      <point x="384.333" y="285.333" type="curve"/>
      <point x="384.333" y="288.333" type="line"/>
      <point x="426.938" y="311.93"/>
      <point x="444.333" y="347.712"/>
      <point x="444.333" y="396.378" type="curve" smooth="yes"/>
      <point x="444.333" y="471.786"/>
      <point x="391.307" y="523.333"/>
      <point x="312" y="523.333" type="curve" smooth="yes"/>
      <point x="138.333" y="523.333" type="line"/>
      <point x="138.333" y="443" type="line"/>
      <point x="288.333" y="443" type="line" smooth="yes"/>
      <point x="325.667" y="443"/>
      <point x="355.667" y="426.333"/>
      <point x="355.667" y="380.333" type="curve" smooth="yes"/>
      <point x="355.667" y="353.667"/>
      <point x="330.333" y="314"/>
      <point x="288.333" y="314" type="curve" smooth="yes"/>
      <point x="138.333" y="314" type="line"/>
      <point x="138.333" y="233.667" type="line"/>
      <point x="305" y="233.667" type="line" smooth="yes"/>
      <point x="350" y="233.667"/>
      <point x="369.667" y="195"/>
      <point x="369.667" y="156.667" type="curve" smooth="yes"/>
      <point x="369.667" y="111.667"/>
      <point x="343" y="80.333"/>
      <point x="301.667" y="80.333" type="curve" smooth="yes"/>
      <point x="138.333" y="80.333" type="line"/>
    </contour>
    <contour>
      <point x="69.667" y="0" type="line"/>
      <point x="158.333" y="0" type="line"/>
      <point x="158.333" y="523.333" type="line"/>
      <point x="69.667" y="523.333" type="line"/>
    </contour>
  </outline>
</glyph>
<glyph name="gecyr" format="2">
  <advance width="352"/>
  <unicode hex="0433"/>
  <anchor x="211.667" y="591.333" name="top"/>
  <outline>
    <contour>
      <point x="328.667" y="443" type="line"/>
      <point x="328.667" y="523.333" type="line"/>
      <point x="69.667" y="523.333" type="line"/>
      <point x="69.667" y="442.545" type="line"/>
    </contour>
    <contour>
      <point x="69.667" y="0" type="line"/>
      <point x="158" y="0" type="line"/>
      <point x="158" y="523.354" type="line"/>
      <point x="69.667" y="523.333" type="line"/>
    </contour>
  </outline>
</glyph>
<glyph name="decyr" format="2">
  <advance width="561"/>
  <unicode hex="0434"/>
  <outline>
    <contour>
      <point x="452.618" y="-170" type="line"/>
      <point x="541.285" y="-170" type="line"/>
      <point x="541.285" y="80.48" type="line"/>
      <point x="432.618" y="80.48" type="line"/>
      <point x="432.618" y="0.129" type="line"/>
      <point x="452.618" y="0.129" type="line"/>
    </contour>
    <contour>
      <point x="20.208" y="-169.94" type="line"/>
      <point x="112.208" y="-169.94" type="line"/>
      <point x="112.208" y="80.315" type="line"/>
      <point x="20.208" y="80.314" type="line"/>
    </contour>
    <contour>
      <point x="395.667" y="0" type="line"/>
      <point x="484.333" y="0" type="line"/>
      <point x="484.333" y="523.333" type="line"/>
      <point x="395.667" y="523.333" type="line"/>
    </contour>
    <contour>
      <point x="52.722" y="71.648" type="curve"/>
      <point x="75.676" y="9.738" type="line"/>
      <point x="164.201" y="9.738"/>
      <point x="224.546" y="131.756"/>
      <point x="236.803" y="349.103" type="curve"/>
      <point x="250" y="523.331" type="line"/>
      <point x="162.068" y="523.331" type="line"/>
      <point x="147.817" y="354.035" type="line"/>
      <point x="136.637" y="181.966"/>
      <point x="102.035" y="71.688"/>
    </contour>
    <contour>
      <point x="84.613" y="-0.001" type="line"/>
      <point x="422.285" y="0.453" type="line"/>
      <point x="422.285" y="80.787" type="line"/>
      <point x="84.613" y="80.787" type="line"/>
    </contour>
    <contour>
      <point x="193.333" y="449.667" type="line"/>
      <point x="451.333" y="449.667" type="line"/>
      <point x="451.333" y="523.333" type="line"/>
      <point x="193.333" y="523.333" type="line"/>
    </contour>
  </outline>
</glyph>
<glyph name="zhecyr" format="2">
  <advance width="790"/>
  <unicode hex="0436"/>
  <outline>
    <component base="kacyr" xOffset="281.333"/>
    <contour>
      <point x="325.427" y="260" type="line"/>
      <point x="146.333" y="523.333" type="line"/>
      <point x="40" y="523.333" type="line"/>
      <point x="229.333" y="260" type="line"/>
    </contour>
    <contour>
      <point x="120" y="0" type="line"/>
      <point x="284.333" y="251.333" type="line"/>
      <point x="216.667" y="311.667" type="line"/>
      <point x="12.333" y="0" type="line"/>
    </contour>
    <contour>
      <point x="381.667" y="234" type="line"/>
      <point x="381.667" y="314.333" type="line"/>
      <point x="228.667" y="314.333" type="line"/>
      <point x="228.667" y="234" type="line"/>
    </contour>
  </outline>
</glyph>
<glyph name="zecyr" format="2">
  <advance width="493"/>
  <unicode hex="0437"/>
  <outline>
    <contour>
      <point x="55.595" y="149.959" type="line"/>
      <point x="55.595" y="143.114" type="line" smooth="yes"/>
      <point x="55.595" y="53.56"/>
      <point x="128.534" y="-6"/>
      <point x="238.226" y="-6" type="curve" smooth="yes"/>
      <point x="350.561" y="-6"/>
      <point x="423.863" y="53.641"/>
      <point x="423.863" y="145.048" type="curve" smooth="yes"/>
      <point x="423.863" y="151.081" type="line" smooth="yes"/>
      <point x="423.863" y="209.688"/>
      <point x="394.028" y="253.909"/>
      <point x="347.021" y="273.304" type="curve"/>
      <point x="347.021" y="276.304" type="line"/>
      <point x="389.127" y="293.717"/>
      <point x="415.162" y="332.558"/>
      <point x="415.162" y="380.395" type="curve" smooth="yes"/>
      <point x="415.162" y="384.941" type="line" smooth="yes"/>
      <point x="415.162" y="477.035"/>
      <point x="351.514" y="530.333"/>
      <point x="238.063" y="530.333" type="curve" smooth="yes"/>
      <point x="132.225" y="530.333"/>
      <point x="55.613" y="464.766"/>
      <point x="55.613" y="377.641" type="curve" smooth="yes"/>
      <point x="55.613" y="370.04" type="line"/>
      <point x="144.819" y="370.073" type="line"/>
      <point x="144.819" y="376.51" type="line" smooth="yes"/>
      <point x="144.819" y="423.822"/>
      <point x="183.129" y="458.091"/>
      <point x="236.532" y="458.091" type="curve" smooth="yes"/>
      <point x="293.329" y="458.091"/>
      <point x="326.078" y="431.224"/>
      <point x="326.078" y="383.96" type="curve" smooth="yes"/>
      <point x="326.078" y="377.96" type="line" smooth="yes"/>
      <point x="326.078" y="325.36"/>
      <point x="293.245" y="299.606"/>
      <point x="229.497" y="299.606" type="curve" smooth="yes"/>
      <point x="171.243" y="299.606" type="line"/>
      <point x="171.243" y="233.517" type="line"/>
      <point x="236.916" y="233.517" type="line" smooth="yes"/>
      <point x="301.047" y="233.517"/>
      <point x="335.042" y="205.519"/>
      <point x="335.042" y="151.172" type="curve" smooth="yes"/>
      <point x="335.042" y="144.92" type="line" smooth="yes"/>
      <point x="335.042" y="94.334"/>
      <point x="300.927" y="65.827"/>
      <point x="241.913" y="65.908" type="curve" smooth="yes"/>
      <point x="184.4" y="65.984"/>
      <point x="144.837" y="97.669"/>
      <point x="144.837" y="143.674" type="curve" smooth="yes"/>
      <point x="144.837" y="150.021" type="line"/>
    </contour>
  </outline>
</glyph>
<glyph name="icyr" format="2">
  <advance width="556"/>
  <unicode hex="0438"/>
  <anchor x="272.667" y="591.333" name="top"/>
  <outline>
    <contour>
      <point x="397.667" y="0" type="line"/>
      <point x="486.333" y="0" type="line"/>
      <point x="486.333" y="523.333" type="line"/>
      <point x="411" y="523.333" type="line"/>
      <point x="404.264" y="473.789"/>
      <point x="397.667" y="395.333"/>
      <point x="397.667" y="346.667" type="curve" smooth="yes"/>
    </contour>
    <contour>
      <point x="69.667" y="0" type="line"/>
      <point x="145" y="0" type="line"/>
      <point x="152.342" y="49.215"/>
      <point x="158.333" y="128"/>
      <point x="158.333" y="176.667" type="curve" smooth="yes"/>
      <point x="158.333" y="523.333" type="line"/>
      <point x="69.667" y="523.333" type="line"/>
    </contour>
    <contour>
      <point x="129" y="0" type="line"/>
      <point x="168.333" y="0" type="line"/>
      <point x="369.667" y="346.667" type="line" smooth="yes"/>
      <point x="384.698" y="372.757"/>
      <point x="390.867" y="384.443"/>
      <point x="397.667" y="401.333" type="curve"/>
      <point x="427" y="401.333" type="line"/>
      <point x="427" y="523.333" type="line"/>
      <point x="387.667" y="523.333" type="line"/>
      <point x="186" y="176.667" type="line" smooth="yes"/>
      <point x="175.667" y="159"/>
      <point x="165.928" y="139.178"/>
      <point x="158.333" y="122.333" type="curve"/>
      <point x="129" y="122.333" type="line"/>
    </contour>
  </outline>
</glyph>
<glyph name="kacyr" format="2">
  <advance width="509"/>
  <unicode hex="043A"/>
  <anchor x="239" y="591.333" name="top"/>
  <outline>
    <contour>
      <point x="69.667" y="0" type="line"/>
      <point x="158" y="0" type="line"/>
      <point x="158" y="523.333" type="line"/>
      <point x="69.667" y="523.333" type="line"/>
    </contour>
    <contour>
      <point x="183.573" y="260" type="line"/>
      <point x="279.667" y="260" type="line"/>
      <point x="469" y="523.333" type="line"/>
      <point x="362.667" y="523.333" type="line"/>
    </contour>
    <contour>
      <point x="389" y="0" type="line"/>
      <point x="496.667" y="0" type="line"/>
      <point x="292.333" y="311.667" type="line"/>
      <point x="224.667" y="251.333" type="line"/>
    </contour>
    <contour>
      <point x="127.333" y="234" type="line"/>
      <point x="280.333" y="234" type="line"/>
      <point x="280.333" y="314.333" type="line"/>
      <point x="127.333" y="314.333" type="line"/>
    </contour>
  </outline>
</glyph>
<glyph name="elcyr" format="2">
  <advance width="496"/>
  <unicode hex="043B"/>
  <outline>
    <contour>
      <point x="337.667" y="0" type="line"/>
      <point x="426.333" y="0" type="line"/>
      <point x="426.333" y="523.333" type="line"/>
      <point x="337.667" y="523.333" type="line"/>
    </contour>
    <contour>
      <point x="134.333" y="449.667" type="line"/>
      <point x="392.333" y="449.667" type="line"/>
      <point x="392.333" y="523.333" type="line"/>
      <point x="134.333" y="523.333" type="line"/>
    </contour>
    <contour>
      <point x="10.511" y="85.334" type="curve"/>
      <point x="10.511" y="0" type="line"/>
      <point x="93.994" y="0"/>
      <point x="149.007" y="52.345"/>
      <point x="158.653" y="152.984" type="curve" smooth="yes"/>
      <point x="194.333" y="523.331" type="line"/>
      <point x="106.401" y="523.331" type="line"/>
      <point x="72.337" y="192.903" type="line" smooth="yes"/>
      <point x="63.747" y="110.085"/>
      <point x="45.315" y="85.373"/>
    </contour>
  </outline>
</glyph>
<glyph name="emcyr" format="2">
  <advance width="682"/>
  <unicode hex="043C"/>
  <outline>
    <contour>
      <point x="69.667" y="0" type="line"/>
      <point x="158.333" y="0" type="line"/>
      <point x="158.333" y="346.806" type="line" smooth="yes"/>
      <point x="158.333" y="395.279"/>
      <point x="150.088" y="474"/>
      <point x="145" y="523.333" type="curve"/>
      <point x="69.667" y="523.333" type="line"/>
    </contour>
    <contour>
      <point x="341.585" y="202.149" type="line"/>
      <point x="339.468" y="202.333" type="line"/>
      <point x="331.801" y="223.227"/>
      <point x="321.353" y="245.626"/>
      <point x="311.832" y="263.35" type="curve" smooth="yes"/>
      <point x="170.662" y="523.195" type="line"/>
      <point x="142.715" y="523.338" type="line"/>
      <point x="142.715" y="387.966" type="line"/>
      <point x="159.329" y="387.862" type="line"/>
      <point x="165.339" y="367.759"/>
      <point x="171.949" y="347.956"/>
      <point x="186.65" y="320.089" type="curve" smooth="yes"/>
      <point x="314.468" y="80" type="line"/>
      <point x="341.585" y="79.92" type="line"/>
    </contour>
    <contour>
      <point x="341.291" y="79.92" type="line"/>
      <point x="368.407" y="80" type="line"/>
      <point x="496.226" y="320.089" type="line" smooth="yes"/>
      <point x="510.927" y="347.956"/>
      <point x="517.537" y="367.759"/>
      <point x="523.547" y="387.862" type="curve"/>
      <point x="540.16" y="387.966" type="line"/>
      <point x="540.16" y="523.338" type="line"/>
      <point x="512.213" y="523.195" type="line"/>
      <point x="371.043" y="263.35" type="line" smooth="yes"/>
      <point x="361.522" y="245.626"/>
      <point x="351.075" y="223.227"/>
      <point x="343.407" y="202.333" type="curve"/>
      <point x="341.291" y="202.149" type="line"/>
    </contour>
    <contour>
      <point x="523.684" y="0" type="line"/>
      <point x="612.351" y="0" type="line"/>
      <point x="612.351" y="523.333" type="line"/>
      <point x="537.017" y="523.333" type="line"/>
      <point x="531.929" y="474"/>
      <point x="523.684" y="395.279"/>
      <point x="523.684" y="346.806" type="curve" smooth="yes"/>
    </contour>
  </outline>
</glyph>
<glyph name="encyr" format="2">
  <advance width="534"/>
  <unicode hex="043D"/>
  <outline>
    <contour>
      <point x="375.667" y="0" type="line"/>
      <point x="464.333" y="0" type="line"/>
      <point x="464.333" y="523.333" type="line"/>
      <point x="375.667" y="523.333" type="line"/>
    </contour>
    <contour>
      <point x="69.667" y="0" type="line"/>
      <point x="158.333" y="0" type="line"/>
      <point x="158.333" y="523.333" type="line"/>
      <point x="69.667" y="523.333" type="line"/>
    </contour>
    <contour>
      <point x="138.333" y="240.334" type="line"/>
      <point x="395.667" y="240.334" type="line"/>
      <point x="395.667" y="320.667" type="line"/>
      <point x="138.333" y="320.667" type="line"/>
    </contour>
  </outline>
</glyph>
<glyph name="pecyr" format="2">
  <advance width="526"/>
  <unicode hex="043F"/>
  <outline>
    <contour>
      <point x="367.667" y="0" type="line"/>
      <point x="456.333" y="0" type="line"/>
      <point x="456.333" y="523.333" type="line"/>
      <point x="367.667" y="523.333" type="line"/>
    </contour>
    <contour>
      <point x="69.667" y="0" type="line"/>
      <point x="158.333" y="0" type="line"/>
      <point x="158.333" y="523.333" type="line"/>
      <point x="69.667" y="523.333" type="line"/>
    </contour>
    <contour>
      <point x="130.344" y="442.694" type="line"/>
      <point x="387.618" y="443.148" type="line"/>
      <point x="387.618" y="523.482" type="line"/>
      <point x="130.344" y="523.482" type="line"/>
    </contour>
  </outline>
</glyph>
<glyph name="tecyr" format="2">
  <advance width="413"/>
  <unicode hex="0442"/>
  <anchor x="206.667" y="591.333" name="top"/>
  <outline>
    <contour>
      <point x="23.333" y="442.545" type="line"/>
      <point x="390" y="443" type="line"/>
      <point x="390" y="523.333" type="line"/>
      <point x="23.333" y="523.333" type="line"/>
    </contour>
    <contour>
      <point x="163.667" y="0" type="line"/>
      <point x="252" y="0" type="line"/>
      <point x="252" y="523.354" type="line"/>
      <point x="163.667" y="523.333" type="line"/>
    </contour>
  </outline>
</glyph>
<glyph name="efcyr" format="2">
  <advance width="821"/>
  <unicode hex="0444"/>
  <outline>
    <contour>
      <point x="365.667" y="-157.333" type="line"/>
      <point x="455" y="-157.333" type="line"/>
      <point x="455" y="62" type="line"/>
      <point x="485.333" y="14"/>
      <point x="534.667" y="-6"/>
      <point x="590" y="-6" type="curve" smooth="yes"/>
      <point x="718.667" y="-6"/>
      <point x="765.333" y="95"/>
      <point x="765.333" y="209.333" type="curve" smooth="yes"/>
      <point x="765.333" y="315" type="line" smooth="yes"/>
      <point x="765.333" y="432.333"/>
      <point x="715.333" y="529.667"/>
      <point x="585.333" y="529.667" type="curve" smooth="yes"/>
      <point x="529.333" y="529.667"/>
      <point x="482.667" y="504.333"/>
      <point x="454" y="456.667" type="curve"/>
      <point x="454" y="707" type="line"/>
      <point x="366.667" y="707" type="line"/>
      <point x="366.667" y="456.667" type="line"/>
      <point x="338" y="504.333"/>
      <point x="291.333" y="529.667"/>
      <point x="235.333" y="529.667" type="curve" smooth="yes"/>
      <point x="105.333" y="529.667"/>
      <point x="55.333" y="432.333"/>
      <point x="55.333" y="315" type="curve" smooth="yes"/>
      <point x="55.333" y="209.333" type="line" smooth="yes"/>
      <point x="55.333" y="95"/>
      <point x="102" y="-6"/>
      <point x="230.667" y="-6" type="curve" smooth="yes"/>
      <point x="286" y="-6"/>
      <point x="335.333" y="14"/>
      <point x="365.667" y="62" type="curve"/>
    </contour>
    <contour>
      <point x="249" y="72.667" type="curve" smooth="yes"/>
      <point x="164.667" y="72.667"/>
      <point x="144.333" y="142"/>
      <point x="144.333" y="213.333" type="curve" smooth="yes"/>
      <point x="144.333" y="310" type="line" smooth="yes"/>
      <point x="144.333" y="383.333"/>
      <point x="166.667" y="450.667"/>
      <point x="252.667" y="450.667" type="curve" smooth="yes"/>
      <point x="336.333" y="450.667"/>
      <point x="367.339" y="379.333"/>
      <point x="367.339" y="306.667" type="curve" smooth="yes"/>
      <point x="367.339" y="214" type="line" smooth="yes"/>
      <point x="367.339" y="140.333"/>
      <point x="331.333" y="72.667"/>
    </contour>
    <contour>
      <point x="571.667" y="72.667" type="curve" smooth="yes"/>
      <point x="489.333" y="72.667"/>
      <point x="453.339" y="140.333"/>
      <point x="453.339" y="214" type="curve" smooth="yes"/>
      <point x="453.339" y="306.667" type="line" smooth="yes"/>
      <point x="453.339" y="379.333"/>
      <point x="484.333" y="450.667"/>
      <point x="568" y="450.667" type="curve" smooth="yes"/>
      <point x="654" y="450.667"/>
      <point x="676.333" y="383.333"/>
      <point x="676.333" y="310" type="curve" smooth="yes"/>
      <point x="676.333" y="213.333" type="line" smooth="yes"/>
      <point x="676.333" y="142"/>
      <point x="656" y="72.667"/>
    </contour>
  </outline>
</glyph>
<glyph name="tsecyr" format="2">
  <advance width="531"/>
  <unicode hex="0446"/>
  <outline>
    <contour>
      <point x="375.667" y="0" type="line"/>
      <point x="464.333" y="0" type="line"/>
      <point x="464.333" y="523.333" type="line"/>
      <point x="375.667" y="523.333" type="line"/>
    </contour>
    <contour>
      <point x="69.667" y="0" type="line"/>
      <point x="158.333" y="0" type="line"/>
      <point x="158.333" y="523.333" type="line"/>
      <point x="69.667" y="523.333" type="line"/>
    </contour>
    <contour>
      <point x="138.344" y="-0.001" type="line"/>
      <point x="395.618" y="0.453" type="line"/>
      <point x="395.618" y="80.787" type="line"/>
      <point x="138.344" y="80.787" type="line"/>
    </contour>
    <contour>
      <point x="432.618" y="-170" type="line"/>
      <point x="521.285" y="-170" type="line"/>
      <point x="521.285" y="80.48" type="line"/>
      <point x="412.618" y="80.48" type="line"/>
      <point x="412.618" y="0.129" type="line"/>
      <point x="432.618" y="0.129" type="line"/>
    </contour>
  </outline>
</glyph>
<glyph name="checyr" format="2">
  <advance width="534"/>
  <unicode hex="0447"/>
  <outline>
    <contour>
      <point x="241.667" y="147" type="curve" smooth="yes"/>
      <point x="301.847" y="147"/>
      <point x="354.439" y="159.323"/>
      <point x="386.334" y="178.258" type="curve"/>
      <point x="386.025" y="251.159" type="line"/>
      <point x="376" y="250.86" type="line"/>
      <point x="355.263" y="234.31"/>
      <point x="323.735" y="226"/>
      <point x="266.333" y="226" type="curve" smooth="yes"/>
      <point x="193.716" y="226"/>
      <point x="158.667" y="276.956"/>
      <point x="158.667" y="345.333" type="curve" smooth="yes"/>
      <point x="158.667" y="523.333" type="line"/>
      <point x="69.667" y="523.333" type="line"/>
      <point x="69.667" y="333.667" type="line" smooth="yes"/>
      <point x="69.667" y="224.444"/>
      <point x="127.099" y="147"/>
    </contour>
    <contour>
      <point x="376" y="0" type="line"/>
      <point x="464.333" y="0" type="line"/>
      <point x="464.333" y="523.333" type="line"/>
      <point x="376" y="523.333" type="line"/>
    </contour>
  </outline>
</glyph>
<glyph name="shacyr" format="2">
  <advance width="780"/>
  <unicode hex="0448"/>
  <outline>
    <contour>
      <point x="401.666" y="0.000333333" type="line"/>
      <point x="659" y="0.000333333" type="line"/>
      <point x="659" y="80.3333" type="line"/>
      <point x="401.666" y="80.3333" type="line"/>
    </contour>
    <contour>
      <point x="125.666" y="0.000333333" type="line"/>
      <point x="383" y="0.000333333" type="line"/>
      <point x="383" y="80.3333" type="line"/>
      <point x="125.666" y="80.3333" type="line"/>
    </contour>
    <contour>
      <point x="621.667" y="0" type="line"/>
      <point x="710.333" y="0" type="line"/>
      <point x="710.333" y="523.333" type="line"/>
      <point x="621.667" y="523.333" type="line"/>
    </contour>
    <contour>
      <point x="345.667" y="0" type="line"/>
      <point x="434.333" y="0" type="line"/>
      <point x="434.333" y="523.333" type="line"/>
      <point x="345.667" y="523.333" type="line"/>
    </contour>
    <contour>
      <point x="69.667" y="0" type="line"/>
      <point x="158.333" y="0" type="line"/>
      <point x="158.333" y="523.333" type="line"/>
      <point x="69.667" y="523.333" type="line"/>
    </contour>
  </outline>
</glyph>
<glyph name="shchacyr" format="2">
  <advance width="777"/>
  <unicode hex="0449"/>
  <outline>
    <contour>
      <point x="401.666" y="0.000333333" type="line"/>
      <point x="659" y="0.000333333" type="line"/>
      <point x="659" y="80.3333" type="line"/>
      <point x="401.666" y="80.3333" type="line"/>
    </contour>
    <contour>
      <point x="125.666" y="0.000333333" type="line"/>
      <point x="383" y="0.000333333" type="line"/>
      <point x="383" y="80.3333" type="line"/>
      <point x="125.666" y="80.3333" type="line"/>
    </contour>
    <contour>
      <point x="621.667" y="0" type="line"/>
      <point x="710.333" y="0" type="line"/>
      <point x="710.333" y="523.333" type="line"/>
      <point x="621.667" y="523.333" type="line"/>
    </contour>
    <contour>
      <point x="345.667" y="0" type="line"/>
      <point x="434.333" y="0" type="line"/>
      <point x="434.333" y="523.333" type="line"/>
      <point x="345.667" y="523.333" type="line"/>
    </contour>
    <contour>
      <point x="69.667" y="0" type="line"/>
      <point x="158.333" y="0" type="line"/>
      <point x="158.333" y="523.333" type="line"/>
      <point x="69.667" y="523.333" type="line"/>
    </contour>
    <contour>
      <point x="678.618" y="-170" type="line"/>
      <point x="767.285" y="-170" type="line"/>
      <point x="767.285" y="80.48" type="line"/>
      <point x="658.618" y="80.48" type="line"/>
      <point x="658.618" y="0.129" type="line"/>
      <point x="678.618" y="0.129" type="line"/>
    </contour>
  </outline>
</glyph>
<glyph name="hardcyr" format="2">
  <advance width="580"/>
  <unicode hex="044A"/>
  <outline>
    <contour>
      <point x="136.334" y="0" type="line"/>
      <point x="225" y="0" type="line"/>
      <point x="225" y="523.333" type="line"/>
      <point x="136.334" y="523.333" type="line"/>
    </contour>
    <contour>
      <point x="181.516" y="443" type="line"/>
      <point x="181.516" y="523.333" type="line"/>
      <point x="0" y="523.333" type="line"/>
      <point x="0" y="442.545" type="line"/>
    </contour>
    <contour>
      <point x="205" y="0" type="line"/>
      <point x="359.334" y="0" type="line" smooth="yes"/>
      <point x="467" y="0"/>
      <point x="524.334" y="53.563"/>
      <point x="524.334" y="153.25" type="curve" smooth="yes"/>
      <point x="524.334" y="252.338"/>
      <point x="482.777" y="320.667"/>
      <point x="368.334" y="320.667" type="curve" smooth="yes"/>
      <point x="205" y="320.667" type="line"/>
      <point x="205" y="240.333" type="line"/>
      <point x="363.334" y="240.333" type="line" smooth="yes"/>
      <point x="410.146" y="240.333"/>
      <point x="429.667" y="201.75"/>
      <point x="429.667" y="160.136" type="curve" smooth="yes"/>
      <point x="429.667" y="111.27"/>
      <point x="402.536" y="80.333"/>
      <point x="360" y="80.333" type="curve" smooth="yes"/>
      <point x="205" y="80.333" type="line"/>
    </contour>
  </outline>
</glyph>
